<svg width="892" height="331" viewBox="0 0 892 331" fill="none" xmlns="http://www.w3.org/2000/svg">
<g clip-path="url(#clip0_2354_21)" filter="url(#filter0_d_2354_21)">
<path fill-rule="evenodd" clip-rule="evenodd" d="M16.5502 6.26304C18.6502 4.96304 22.9502 3.16304 25.9502 2.36304C28.9502 1.56304 33.9502 0.863043 36.9502 0.863043C39.9502 0.763043 45.1502 1.46304 48.4502 2.36304C51.7502 3.16304 56.9502 5.16304 59.9502 6.76304C62.9502 8.46304 68.1502 12.063 71.3502 14.963C74.6502 17.863 78.7502 22.463 80.5502 25.263C82.2502 27.963 84.6502 33.063 85.8502 36.463C87.0502 40.163 87.9502 45.263 87.9502 48.763C87.9502 54.363 87.7502 54.763 85.7502 54.763C84.4502 54.763 76.4502 53.163 67.9502 51.163C59.4502 49.163 47.3502 45.763 41.1502 43.663C35.0502 41.463 27.1502 38.363 23.7502 36.663C20.2502 34.963 14.6502 31.663 11.1502 29.363C7.75021 27.163 4.95021 24.663 4.95021 23.963C4.95021 23.363 5.65021 21.063 6.55021 18.963C7.35021 16.963 9.15021 13.763 10.3502 11.963C11.6502 10.163 14.4502 7.56304 16.5502 6.26304ZM7.05021 46.263C6.05021 43.463 4.95021 39.563 4.55021 37.463C4.15021 35.463 4.05021 33.763 4.35021 33.763C4.75021 33.763 7.95021 35.663 11.6502 37.963C15.4502 40.163 21.1502 43.263 24.4502 44.763C27.7502 46.263 33.8502 48.663 37.9502 50.163C42.0502 51.663 51.5502 54.463 58.9502 56.263C66.3502 58.163 75.1502 60.163 78.4502 60.763C81.7502 61.363 84.5502 62.063 84.6502 62.263C84.8502 62.563 84.3502 63.963 83.5502 65.463C82.7502 67.063 80.6502 69.663 78.7502 71.463C76.9502 73.263 73.1502 75.663 70.4502 76.963C66.1502 78.963 63.8502 79.263 54.4502 79.263C43.8502 79.263 43.1502 79.163 35.9502 75.663C31.8502 73.663 26.0502 70.163 23.1502 67.963C20.3502 65.663 15.8502 60.963 13.3502 57.463C10.8502 54.063 8.05021 48.963 7.05021 46.263ZM424.75 65.363C421.45 67.563 420.35 67.763 415.15 67.263C411.65 66.863 408.45 67.063 407.15 67.663C405.95 68.263 404.95 69.063 404.95 69.463C404.85 69.963 406.25 70.963 408.05 71.763C409.75 72.563 411.65 74.063 412.05 74.963C412.55 75.963 412.95 82.463 412.95 89.463C412.95 96.563 412.25 108.363 411.45 115.763C410.65 123.163 409.95 130.063 409.95 130.963C409.95 132.563 410.75 132.663 417.25 132.063C421.15 131.763 425.25 131.763 426.25 132.063C427.15 132.463 427.75 133.363 427.45 133.963C427.25 134.663 423.05 136.963 418.25 138.963C413.45 140.963 409.15 143.363 408.75 144.163C408.25 145.063 408.55 146.663 409.45 147.963C410.65 149.763 410.85 153.163 410.65 164.163L410.45 178.163C400.25 178.463 395.05 179.463 391.95 180.563C388.05 182.063 385.05 184.163 381.45 187.963C378.35 191.363 375.95 195.063 375.15 197.763C374.25 200.663 374.05 203.663 374.55 206.263C374.95 208.563 376.65 211.763 378.35 213.663C380.05 215.563 383.25 217.863 385.45 218.863C387.85 219.963 391.85 220.763 395.45 220.763C398.75 220.763 403.75 220.163 406.45 219.363C409.25 218.663 413.75 216.963 416.45 215.563C419.25 214.163 423.85 211.163 426.75 208.863C429.55 206.663 432.55 203.763 433.25 202.463C434.15 200.863 434.55 188.563 434.95 155.263L435.45 110.263C441.65 110.663 445.85 111.963 448.75 113.263C451.55 114.663 456.25 117.863 459.05 120.563C461.85 123.163 466.35 128.863 468.95 133.263C471.55 137.663 474.55 142.963 475.65 145.063C476.75 147.263 478.15 148.763 479.25 148.763C480.15 148.763 481.05 147.963 481.25 147.063C481.371 146.457 481.382 144.126 481.283 141.025C481.495 142.129 481.722 142.763 481.95 142.763C482.45 142.763 483.65 141.263 484.55 139.563C485.45 137.763 488.55 132.963 491.35 128.863C494.15 124.863 498.05 120.263 499.95 118.663C501.85 117.163 505.95 114.763 508.95 113.463C511.95 112.063 516.15 110.663 518.25 110.363L521.95 109.763C521.95 176.063 522.35 196.863 522.85 198.763C523.45 200.963 525.75 204.063 529.15 207.263C532.15 210.063 536.85 213.463 539.55 214.963C542.25 216.463 547.15 218.363 550.45 219.163C553.75 220.063 559.15 220.763 562.45 220.763C565.95 220.763 570.05 219.963 572.45 218.963C574.65 217.963 577.85 215.363 579.45 213.263C581.65 210.463 582.55 208.063 582.85 204.363C583.15 200.463 582.65 198.163 580.85 194.363C579.55 191.663 576.45 187.663 573.95 185.563C571.45 183.463 567.25 180.963 564.45 180.063C561.75 179.163 556.65 178.363 553.35 178.363L547.25 178.263C546.05 154.863 546.25 152.163 547.65 149.063C548.85 146.363 548.95 144.863 548.25 143.763C547.65 142.963 543.65 140.763 539.35 138.963C535.05 137.163 531.05 135.363 530.55 134.963C530.15 134.563 530.15 133.663 530.55 132.863C531.25 131.763 533.15 131.563 539.75 132.063L547.95 132.763C547.531 129.308 547.167 126.018 546.83 122.964C546.522 120.183 546.236 117.598 545.95 115.263C545.35 110.363 544.85 99.3631 544.65 90.9631L544.45 75.5631C548.75 71.8631 550.75 70.7631 551.75 70.7631C553.35 70.7631 553.35 70.6631 551.65 69.0631C550.25 67.6631 548.25 67.2631 542.65 67.2631C536.65 67.2631 534.85 66.8631 532.45 64.9631C530.75 63.7631 529.15 62.6631 528.75 62.7631C528.35 62.7631 527.85 63.5631 527.55 64.5631C527.511 64.7379 527.461 64.958 527.403 65.2116L527.402 65.2186C527.162 66.271 526.791 67.8963 526.55 69.2631C526.25 70.9631 524.65 74.1631 522.95 76.5631C520.55 79.9631 518.05 81.6631 510.45 85.2631C503.45 88.5631 499.45 91.2631 495.15 95.5631C491.95 98.6631 487.15 104.863 484.45 109.263C481.55 113.963 479.65 118.263 479.75 119.763C479.75 120.492 479.858 122.384 480.005 124.835C479.523 122.112 478.854 120.035 477.85 117.763C476.45 114.763 473.45 109.563 471.25 106.263C469.05 102.963 464.55 97.763 461.35 94.563C457.35 90.763 452.85 87.763 447.45 85.263C443.05 83.263 438.35 80.663 437.05 79.463C435.75 78.263 433.65 75.063 432.35 72.263C431.05 69.563 429.95 66.263 429.95 65.063C429.95 63.763 429.65 62.763 429.25 62.763C428.75 62.763 426.75 63.963 424.75 65.363ZM296.35 65.0631C292.55 67.0631 292.35 67.0631 285.65 65.3631C281.95 64.3631 277.95 63.8631 276.65 64.2631C274.55 64.9631 274.55 65.0631 278.25 68.3631C280.25 70.2631 282.25 72.7631 282.55 74.0631C282.85 75.2631 282.15 80.0631 280.85 84.7631C279.65 89.4631 275.35 101.863 271.45 112.263C268.847 119.03 266.456 125.374 264.993 129.256C264.208 131.34 263.69 132.714 263.55 133.063C263.05 134.463 263.55 134.763 267.25 134.763C269.85 134.663 271.95 135.263 272.75 136.263C273.35 137.063 273.75 138.663 273.45 139.763C273.15 140.863 271.95 141.963 270.75 142.263C269.45 142.563 266.25 143.263 263.45 143.863C260.75 144.463 257.85 145.463 257.15 146.063C256.45 146.763 255.85 149.063 255.95 151.263C255.95 153.463 254.85 158.663 253.55 162.763C252.25 166.863 248.25 178.363 244.55 188.263C240.85 198.163 237.25 206.863 236.65 207.463C235.95 208.163 232.95 209.563 229.95 210.463C224.65 212.163 224.45 212.363 224.25 216.063L223.95 219.763L269.45 219.263C269.95 215.363 269.25 213.463 268.25 212.463C267.25 211.463 265.45 210.663 264.25 210.763C262.95 210.763 260.85 209.663 259.45 208.263C258.05 206.863 256.95 204.963 256.95 204.063C256.95 203.063 258.95 196.463 261.45 189.263C263.95 182.063 267.05 173.863 268.25 170.963C269.65 167.563 271.15 165.363 272.45 165.063C273.55 164.763 278.25 165.763 282.95 167.263C290.65 169.763 292.55 169.963 303.45 169.663C310.05 169.463 316.05 169.663 316.75 170.063C317.35 170.463 317.75 171.163 317.45 171.763C317.15 172.363 317.25 174.263 317.65 176.063C317.95 177.763 320.25 182.063 322.65 185.563C325.05 188.963 327.45 192.963 327.95 194.563C328.75 196.763 328.65 197.663 327.25 199.063C325.85 200.463 325.65 201.563 326.25 204.063C326.65 205.863 328.15 208.963 329.45 211.063C331.05 213.463 333.75 215.663 337.25 217.263C340.05 218.563 345.35 220.163 348.95 220.763C352.55 221.263 358.85 221.763 362.95 221.763C368.55 221.863 370.75 221.463 371.75 220.263C372.35 219.463 372.75 218.363 372.45 217.763C372.15 217.163 370.55 216.763 368.95 216.763C367.35 216.763 364.85 216.363 363.45 215.763C362.05 215.163 360.35 213.563 359.75 212.163C358.65 210.063 358.75 208.763 360.45 204.063C362.25 199.063 362.35 198.363 360.85 195.963C359.85 194.063 358.55 193.363 356.85 193.463C355.55 193.563 353.75 193.463 352.95 193.163C351.75 192.863 352.05 192.163 354.15 189.963C355.65 188.463 356.95 186.463 356.95 185.563C356.95 184.563 355.05 178.963 352.85 173.063C350.55 167.063 348.35 160.763 347.85 159.063C347.25 156.963 347.35 154.763 348.05 153.063C348.65 151.463 349.95 149.263 351.05 148.063C352.05 146.763 352.75 145.363 352.45 144.763C352.15 144.163 351.25 143.763 350.45 143.763C349.65 143.763 347.45 143.063 345.75 142.263C343.85 141.463 341.55 139.163 340.35 137.063C339.15 134.963 333.85 119.963 328.45 103.763C323.15 87.5631 318.95 73.5631 319.15 72.7631C319.35 71.9631 321.45 70.2631 323.95 69.1631C328.05 67.2631 328.25 66.9631 326.45 66.0631C325.25 65.4631 322.65 65.3631 319.95 65.8631C317.45 66.2631 313.05 66.6631 310.25 66.6631C307.35 66.7631 304.75 66.2631 304.45 65.7631C304.15 65.2631 303.15 64.3631 302.15 63.8631C300.85 63.2631 299.05 63.6631 296.35 65.0631ZM797.95 66.4631C800.35 66.8631 802.25 66.3631 804.25 64.9631L807.05 62.9631L809.75 64.9631C812.15 66.7631 813.35 66.8631 820.95 66.2631C825.65 65.9631 830.65 65.6631 831.95 65.6631C833.35 65.6631 834.95 66.1631 835.45 66.7631C836.117 67.3631 835.45 68.0298 833.45 68.7631C831.85 69.2631 829.75 70.1631 828.95 70.6631C828.15 71.0631 827.25 72.3631 827.15 73.3631C826.95 74.3631 831.35 89.1631 836.95 106.263C842.65 123.363 847.85 138.463 848.55 140.063C849.35 141.563 850.95 143.663 852.25 144.763C853.45 145.863 856.15 146.963 858.25 147.263C860.25 147.563 862.15 148.163 862.45 148.763C862.75 149.363 861.55 151.463 859.85 153.563C856.95 156.963 856.75 157.663 857.25 162.263C857.55 165.063 859.65 171.763 861.95 177.263C864.15 182.763 866.95 190.163 868.05 193.763C869.05 197.363 869.95 202.363 869.95 205.063C869.95 207.663 869.25 211.163 868.45 212.763C867.65 214.363 867.15 216.163 867.45 216.763C867.75 217.363 869.35 217.763 870.95 217.763C872.65 217.763 874.85 218.663 875.95 219.763C877.85 221.663 877.95 221.963 874.65 233.263L877.75 239.763C879.45 243.363 880.95 247.363 880.95 248.763C880.95 250.163 881.45 253.063 882.15 255.263C882.75 257.463 884.35 260.263 887.95 263.763H882.45C879.45 263.763 874.65 263.163 871.85 262.563C868.25 261.663 865.95 260.363 864.25 258.263C862.05 255.663 861.85 254.363 862.05 248.763C862.25 242.463 862.15 242.163 859.35 240.663C857.75 239.863 855.85 238.063 855.25 236.663C854.55 235.363 853.95 233.363 853.95 232.263C854.05 231.163 851.45 227.063 848.25 223.063C845.05 219.163 840.95 213.563 839.25 210.563C837.45 207.663 833.75 200.363 831.05 194.263C828.35 188.163 825.75 181.263 825.25 178.763C824.75 176.263 823.75 174.363 823.15 174.563C822.45 174.663 816.25 174.763 809.25 174.863C797.95 174.963 795.55 174.663 788.45 172.363C784.05 170.863 779.45 169.963 778.25 170.263C776.95 170.563 775.45 171.763 774.75 173.063C774.15 174.263 771.05 182.763 767.75 192.063C764.55 201.263 761.95 209.763 761.95 211.063C761.85 212.263 762.85 214.163 764.05 215.263C765.15 216.363 767.75 217.763 769.85 218.263C771.95 218.963 774.05 220.363 774.95 221.963C776.25 224.263 776.25 224.763 774.95 226.263C773.65 227.663 770.85 227.863 727.45 227.263L727.25 224.063C727.05 221.563 727.45 220.463 729.25 219.363C730.45 218.563 733.15 217.663 735.25 217.363C737.45 217.063 739.65 215.863 740.75 214.463C741.65 213.263 746.35 201.163 751.15 187.763C757.017 171.43 760.184 160.996 760.65 156.463C761.15 152.263 762.05 149.363 762.95 148.763C763.75 148.263 766.05 147.763 767.95 147.763C769.85 147.663 773.05 147.163 774.95 146.463C777.95 145.463 778.45 144.763 778.45 142.263C778.45 139.463 778.15 139.263 774.45 138.963C772.25 138.863 769.85 138.463 769.25 138.263C768.35 137.863 769.45 133.763 773.35 124.063C776.25 116.463 781.05 103.263 783.95 94.7631C787.95 83.0631 789.05 78.3631 788.65 75.7631C788.25 73.3631 786.85 71.2631 784.25 68.9631C781.15 66.3631 780.65 65.4631 781.75 64.4631C782.75 63.5631 784.15 63.5631 788.75 64.6631C791.85 65.3631 796.05 66.2631 797.95 66.4631ZM129.45 65.3631C126.15 66.1631 120.65 68.2631 117.05 70.0631C113.05 72.0631 108.75 75.3631 105.35 78.9631C100.95 83.6631 99.6502 86.0631 97.8502 91.9631C96.1502 97.6631 95.8502 101.063 96.1502 107.763C96.4502 114.963 97.0502 117.363 100.15 123.763C102.75 129.163 105.55 132.963 110.15 137.263C113.65 140.563 119.65 145.163 123.45 147.463C127.35 149.863 134.55 153.463 139.45 155.563C144.45 157.763 156.35 162.063 165.95 165.163C178.95 169.263 185.15 171.863 189.95 174.963C193.45 177.363 197.35 180.563 198.45 182.063C199.85 184.063 200.45 186.363 200.45 189.563C200.35 192.363 199.35 196.263 197.95 199.163C196.55 201.963 194.05 205.063 191.95 206.463C190.05 207.763 186.05 209.563 182.95 210.363C179.95 211.263 174.35 212.063 170.45 212.063C166.65 212.063 161.05 211.363 157.95 210.463C154.95 209.563 149.65 207.063 146.25 204.763C142.85 202.563 137.55 198.163 134.55 194.963C131.45 191.863 125.35 184.263 120.75 178.263C113.95 169.163 111.75 166.963 108.45 165.863C104.85 164.563 104.15 164.563 100.45 166.363C98.1502 167.463 96.3502 169.063 96.1502 170.263C96.0502 171.363 97.0502 174.963 98.3502 178.263C99.7502 181.563 101.35 186.063 101.95 188.263C102.55 190.463 103.45 197.463 103.95 203.763C104.75 213.663 105.25 215.563 107.25 217.563C108.65 218.963 110.65 219.763 112.45 219.763C114.35 219.663 116.75 218.563 118.75 216.663C120.55 215.063 123.05 213.763 124.25 213.763C125.45 213.763 130.35 215.363 134.95 217.163C139.65 219.063 146.95 221.263 151.25 222.163C155.65 223.063 164.05 223.763 170.75 223.763C178.25 223.763 184.65 223.163 188.45 222.163C191.75 221.363 196.75 219.463 199.45 217.963C202.25 216.463 207.25 212.563 210.55 209.263C213.95 205.963 217.85 200.763 219.35 197.763C220.75 194.763 222.45 189.463 223.05 185.963C223.75 181.163 223.65 178.163 222.45 172.463C221.65 168.463 219.85 162.763 218.45 159.763C217.15 156.763 213.85 152.163 211.25 149.563C208.15 146.463 203.45 143.463 197.95 140.863C193.35 138.763 183.45 134.663 175.95 131.963C172.707 130.78 168.464 129.212 164.048 127.58L164.041 127.578L164.031 127.574L164.019 127.57L164.015 127.568C158.365 125.48 152.435 123.289 147.95 121.663C140.05 118.763 131.05 114.663 127.95 112.663C124.95 110.663 121.65 107.663 120.55 106.163C119.55 104.563 118.45 101.663 118.25 99.7631C117.95 97.4631 118.45 94.8631 119.75 92.2631C120.95 90.0631 123.55 86.5631 125.65 84.5631C127.75 82.5631 131.55 79.8631 133.95 78.5631C137.15 76.9631 140.65 76.1631 145.95 75.8631C152.35 75.5631 154.35 75.8631 158.95 77.9631C162.05 79.2631 167.15 82.1631 170.45 84.3631C173.75 86.6631 178.75 90.9631 181.45 93.9631C184.25 97.0631 188.95 103.663 191.95 108.763C195.05 113.863 198.35 118.663 199.45 119.363C200.55 120.163 202.35 120.763 203.45 120.763C204.55 120.863 206.55 120.063 207.95 119.063L210.35 117.263C207.75 104.863 206.25 94.0631 205.45 85.2631C204.55 75.9631 203.45 68.6631 202.75 67.9631C202.05 67.2631 200.45 66.6631 199.25 66.6631C198.05 66.7631 194.25 67.4631 190.95 68.2631C186.25 69.4631 183.75 69.5631 178.75 68.7631C175.35 68.1631 170.05 67.0631 166.95 66.1631C163.75 65.2631 156.15 64.4631 148.45 64.1631C139.05 63.8631 133.85 64.1631 129.45 65.3631ZM585.75 67.1631C585.65 66.6631 586.25 65.5631 586.95 64.9631C587.95 64.1631 592.65 63.7631 601.15 63.7631C612.75 63.7631 614.35 63.9631 617.25 65.9631C619.05 67.1631 622.25 68.2631 624.45 68.5631C626.95 68.7631 631.05 68.0631 634.95 66.7631C639.65 65.1631 644.95 64.3631 653.45 64.0631C663.55 63.5631 666.85 63.8631 673.95 65.6631C678.65 66.7631 685.45 69.1631 688.95 70.9631C692.55 72.7631 698.35 76.8631 701.85 80.2631C705.85 84.0631 709.25 88.4631 711.15 92.2631C712.75 95.5631 714.55 101.363 715.25 105.263C716.15 110.663 716.15 114.063 715.15 120.263C714.45 125.163 712.85 130.163 711.25 133.163C709.75 135.863 706.65 139.563 704.45 141.563C702.25 143.463 698.25 146.063 695.45 147.363C692.75 148.663 687.35 150.363 683.45 151.063C677.95 152.063 676.45 152.763 676.15 154.263C675.95 155.463 678.55 160.163 682.15 165.663C685.65 170.863 691.45 178.163 694.95 182.063C698.55 185.863 702.75 189.663 704.25 190.363C705.75 191.163 708.35 191.763 709.95 191.763C711.75 191.763 714.15 190.763 715.75 189.363C717.25 188.063 719.65 184.963 720.95 182.363C722.35 179.863 723.95 177.863 724.45 178.063C725.05 178.263 725.75 179.463 726.15 180.863C726.55 182.163 726.85 185.763 726.85 188.763C726.95 191.763 726.25 197.063 725.45 200.463C724.65 203.963 723.15 208.463 722.15 210.463C721.05 212.563 718.45 215.863 716.35 217.863C713.75 220.263 710.85 221.763 707.25 222.563C704.35 223.263 700.55 223.463 698.75 223.063C696.95 222.763 692.95 221.163 689.75 219.563C686.55 217.963 681.55 214.263 678.45 210.963C674.65 207.163 671.35 202.263 668.45 196.263C666.05 191.263 661.95 180.963 659.45 173.263C656.95 165.563 654.35 158.163 653.65 156.863C653.05 155.563 651.05 153.863 649.25 153.063C647.15 152.263 644.65 151.963 642.25 152.463C640.15 152.863 637.95 153.763 637.25 154.463C636.35 155.463 635.95 162.063 635.95 205.263L638.45 207.963C640.05 209.663 642.45 210.963 644.75 211.263C646.85 211.563 649.15 212.263 649.95 212.663C650.85 213.163 651.95 214.263 652.45 215.163C653.15 216.263 653.15 217.263 652.35 218.463C651.35 220.063 648.65 220.263 587.45 220.263L587.25 217.263C587.05 215.563 587.55 213.663 588.25 212.963C588.95 212.263 590.35 211.663 591.45 211.663C592.55 211.663 594.25 210.963 595.25 209.963C596.85 208.363 597.05 205.963 597.05 183.763C596.95 162.363 596.75 158.763 595.15 155.263C594.15 153.063 592.05 150.063 590.45 148.663C588.85 147.263 586.85 145.863 585.95 145.563C584.65 144.963 584.65 144.763 585.95 143.963C586.85 143.363 588.85 141.863 590.45 140.563C592.15 139.163 594.25 136.463 595.25 134.363C596.75 131.163 596.95 127.363 596.95 74.7631L594.45 72.2631C593.15 70.8631 590.65 69.3631 588.95 68.9631C587.35 68.5631 585.85 67.7631 585.75 67.1631ZM17.9502 80.9631C17.2502 81.5631 16.6502 83.3631 16.7502 84.9631C16.9502 86.9631 17.9502 88.2631 20.4502 89.7631C23.1502 91.2631 24.1502 92.5631 24.4502 94.9631C24.6502 96.7631 25.5502 121.863 26.4502 150.763C27.4502 179.663 28.3502 203.963 28.5502 204.763C28.7502 205.563 30.4502 207.463 32.4502 208.963L35.9502 211.763C35.9502 230.463 36.4502 235.663 37.2502 237.263C37.9502 238.663 39.2502 240.063 40.2502 240.263C41.2502 240.563 42.6502 241.963 43.3502 243.463C44.1502 244.963 47.1502 248.363 50.1502 251.063C53.0502 253.663 57.5502 256.563 59.9502 257.563C64.2502 259.163 89.6502 259.263 454.75 259.463C713.45 259.663 845.65 259.363 846.95 258.763C848.05 258.163 849.05 256.963 849.05 255.963C849.05 255.063 848.45 253.663 847.75 252.963C846.75 251.963 769.85 251.763 455.95 251.763H65.4502C57.0502 247.463 53.4502 244.663 51.9502 242.763C49.3502 239.363 49.3502 239.063 49.9502 227.763C50.4502 216.463 50.5502 216.263 53.2502 214.963C54.7502 214.363 56.3502 212.763 56.8502 211.463C57.3502 210.263 58.2502 200.263 58.8502 189.263C59.0758 185.718 59.3741 180.957 59.7117 175.571L59.712 175.565C60.4217 164.239 61.3049 150.147 62.0502 138.763C63.1502 121.963 64.5502 107.263 65.0502 105.963C65.7502 104.363 66.9502 103.663 69.6502 103.463C71.9502 103.363 73.7502 102.563 74.6502 101.263C75.8502 99.4631 75.8502 98.9631 74.2502 96.9631C72.9502 95.2631 66.8502 92.9631 47.7502 87.2631C34.1502 83.0631 22.1502 79.7631 21.1502 79.7631C20.2502 79.7631 18.7502 80.2631 17.9502 80.9631ZM81.9503 279.063C80.0503 279.563 79.0503 280.163 79.6503 280.363C80.4503 280.663 80.9503 282.563 80.9503 285.263C80.9503 288.563 80.6503 289.563 79.7504 288.963C78.8503 288.463 78.7504 288.763 79.4503 290.263C79.9503 291.363 80.5503 295.963 80.6503 300.463C80.9503 308.663 80.9503 308.763 78.1503 309.863C75.7504 310.763 75.1503 310.563 73.0503 308.063C71.0503 305.663 70.7503 304.463 71.0503 298.963C71.3503 293.663 71.8503 292.263 73.9503 290.563L76.4503 288.463C72.5503 289.663 70.3503 291.063 68.9503 292.363C66.9503 294.263 66.3503 296.063 66.0503 300.563C65.7503 305.563 66.0504 306.663 68.3503 309.463C70.1504 311.763 71.8503 312.763 73.6503 312.763C75.2504 312.763 77.4503 312.063 78.6503 311.263C80.7504 309.963 81.0503 309.963 81.6503 311.363C82.2504 312.363 83.2504 312.663 85.1503 312.363C87.2504 311.963 87.6503 311.463 86.9503 310.463C86.4503 309.863 85.9503 302.263 85.7504 293.663L85.4503 278.063L81.9503 279.063ZM627.95 278.463C627.05 278.763 625.85 279.163 625.15 279.363C624.35 279.663 624.25 280.163 624.95 281.063C625.55 281.763 625.85 288.263 625.65 297.063L625.45 311.763C627.499 311.763 628.708 311.763 629.401 311.165C630.4 310.304 630.327 308.2 630.15 303.063C629.95 296.963 630.25 293.863 631.15 292.963C631.85 292.263 633.35 291.663 634.45 291.663C635.55 291.663 637.05 292.263 637.75 292.963C638.55 293.863 638.85 296.963 638.75 303.063L638.45 311.763H644.45C643.65 295.163 642.95 291.563 641.95 290.363C641.15 289.463 639.55 288.763 638.45 288.763C637.35 288.763 635.35 289.463 633.95 290.263C632.55 291.063 631.15 291.763 630.65 291.763C630.25 291.763 629.85 288.663 629.65 284.863C629.45 279.363 629.05 278.063 627.95 278.463ZM356.95 279.663C355.85 280.263 355.75 280.663 356.65 281.163C357.35 281.463 357.95 283.563 357.95 285.763C357.95 288.663 357.65 289.563 356.75 289.063C355.75 288.463 355.75 288.763 356.45 290.263C356.95 291.363 357.45 296.063 357.55 300.763C357.65 305.463 358.05 310.063 358.55 311.063C359.25 312.463 360.15 312.763 362.45 312.263C364.75 311.763 365.15 311.363 364.15 310.463C363.25 309.563 362.95 305.063 362.95 294.063C362.95 278.863 362.95 278.763 360.65 278.763C359.45 278.763 357.75 279.163 356.95 279.663ZM91.4503 280.363C90.9503 280.763 90.6503 281.963 90.7504 282.963C90.8503 283.963 91.3503 284.963 91.9503 285.263C92.4503 285.563 93.6503 285.463 94.5503 285.063C95.3503 284.563 95.9503 283.363 95.7504 282.263C95.5504 281.163 94.7504 280.163 93.8503 279.963C93.0503 279.863 91.9503 280.063 91.4503 280.363ZM173.95 280.463C173.15 280.663 172.65 281.463 172.65 282.063C172.75 282.763 173.55 283.963 174.45 284.763C175.85 286.063 176.25 286.063 177.75 284.563C179.25 283.063 179.25 282.663 177.95 281.263C177.15 280.363 176.25 279.763 175.95 279.763C175.65 279.863 174.75 280.163 173.95 280.463ZM278.45 280.463C277.95 280.763 277.65 281.663 277.75 282.463C277.85 283.163 279.05 284.263 280.45 284.763C281.85 285.363 282.95 286.363 282.95 287.063C282.95 287.663 283.45 287.463 283.95 286.563C284.65 285.363 284.55 283.863 283.95 282.263C283.35 280.863 282.15 279.763 281.15 279.763C280.15 279.763 278.95 280.063 278.45 280.463ZM451.85 281.363C450.65 282.663 450.75 283.163 452.15 284.563C453.85 286.163 454.05 286.163 455.65 284.563C457.25 283.063 457.25 282.663 455.95 281.263C455.15 280.363 454.15 279.663 453.85 279.763C453.45 279.763 452.55 280.463 451.85 281.363ZM481.95 280.463C481.15 280.663 480.65 281.763 480.75 282.863C480.85 283.863 481.75 285.063 482.65 285.363C483.75 285.663 484.95 285.163 485.65 284.063C486.65 282.663 486.65 281.963 485.65 280.963C484.95 280.263 484.25 279.763 483.95 279.763C483.65 279.863 482.75 280.163 481.95 280.463ZM550.45 281.263C550.15 282.063 550.15 283.263 550.45 283.763C550.75 284.363 551.65 284.763 552.45 284.763C553.25 284.763 554.35 285.563 554.85 286.563C555.75 288.163 555.85 288.163 556.55 286.263C556.85 285.163 556.65 283.263 556.05 282.063C555.45 280.763 554.05 279.763 552.95 279.763C551.85 279.763 550.65 280.463 550.45 281.263ZM594.15 280.963C593.25 281.963 593.25 282.763 594.25 284.063C595.05 285.363 595.95 285.663 597.25 285.063C598.35 284.563 598.95 283.463 598.75 282.263C598.55 281.163 597.75 280.163 596.85 279.963C595.95 279.863 594.75 280.263 594.15 280.963ZM790.45 280.363C789.95 280.763 789.65 281.963 789.75 282.963C789.85 283.963 790.75 284.963 791.65 285.263C792.65 285.563 793.85 285.463 794.25 285.063C794.75 284.663 794.95 283.363 794.75 282.263C794.55 281.163 793.75 280.163 792.85 279.963C792.05 279.863 790.95 280.063 790.45 280.363ZM834.45 280.363C833.95 280.763 833.65 281.963 833.75 282.963C833.85 283.963 834.75 284.963 835.65 285.263C836.65 285.563 837.85 285.463 838.25 285.063C838.75 284.663 838.95 283.363 838.75 282.263C838.55 281.163 837.75 280.163 836.85 279.963C836.05 279.863 834.95 280.063 834.45 280.363ZM31.7503 282.063C32.6503 282.963 32.8503 287.263 32.6503 297.563L32.4503 311.763H38.4503V280.763C31.2503 280.763 30.7503 281.063 31.7503 282.063ZM165.95 283.263C167.65 285.063 168.55 285.463 168.75 284.563C168.95 283.863 168.85 282.663 168.55 282.063C168.25 281.363 166.95 280.763 165.65 280.763H163.45L165.95 283.263ZM303.65 284.563C302.75 286.863 301.95 289.263 301.95 289.963C301.95 290.763 302.25 290.663 302.85 289.663C303.55 288.563 304.15 289.563 305.55 293.663C306.55 296.663 307.25 299.763 307.15 300.463C307.05 301.163 307.25 301.663 307.65 301.663C308.15 301.663 309.05 303.463 309.65 305.663C310.35 307.863 310.75 310.163 310.45 310.663C310.15 311.263 311.65 311.663 313.95 311.663H317.95C315.85 307.463 313.35 300.763 310.95 294.163C308.55 287.563 306.35 281.763 306.05 281.363C305.75 280.963 304.65 282.363 303.65 284.563ZM378.35 283.963C378.95 285.763 380.25 288.263 381.05 289.663C381.95 291.063 384.25 296.563 386.05 301.963C387.95 307.263 389.65 311.663 389.95 311.663C390.25 311.663 391.05 309.963 391.65 307.663C392.75 304.363 392.65 303.263 391.55 301.463C390.85 300.163 388.65 294.963 386.85 289.863C383.55 280.863 383.35 280.563 380.35 280.663C377.35 280.663 377.25 280.763 378.35 283.963ZM399.55 283.163C399.25 284.563 399.35 286.263 399.85 286.963C400.35 287.663 400.95 293.463 401.15 299.963L401.45 311.663C407.45 311.663 407.85 311.363 407.05 309.963C406.65 308.963 405.95 302.563 405.65 295.663C405.25 288.763 405.35 282.663 405.75 281.963C406.35 281.063 405.65 280.663 403.35 280.663C400.75 280.663 400.05 281.163 399.55 283.163ZM568.45 296.163V311.663H574.45C574.05 285.963 574.25 281.963 575.15 281.463C575.85 281.063 574.65 280.663 572.45 280.663H568.45V296.163ZM581.15 282.263C582.15 283.263 583.15 285.563 583.55 287.163C584.05 289.263 583.75 291.063 582.65 292.963C581.65 294.463 580.15 295.963 579.15 296.163C577.65 296.663 577.85 297.563 581.15 304.163C584.25 310.263 585.45 311.763 587.65 312.263C589.25 312.563 590.55 312.563 590.65 312.263C590.85 311.963 589.55 309.063 587.75 305.963C586.05 302.763 583.85 299.363 583.05 298.363C582.15 297.463 581.85 296.663 582.45 296.663C582.95 296.763 584.65 295.563 586.15 294.163C587.85 292.663 588.95 290.563 588.95 288.963C589.05 287.463 588.25 285.163 587.25 283.963C586.25 282.763 584.15 281.463 582.45 281.063C579.65 280.363 579.55 280.363 581.15 282.263ZM697.35 282.763C696.75 284.063 695.85 286.263 695.35 287.663C694.75 289.463 694.85 289.963 695.75 289.463C696.55 288.963 697.45 290.463 698.55 294.463C699.55 297.563 701.05 302.063 702.05 304.463C703.15 306.763 703.75 309.363 703.45 310.163C703.05 311.363 703.85 311.663 707.15 311.763C710.55 311.763 711.25 311.463 710.35 310.463C709.75 309.763 707.05 303.063 704.45 295.663C701.85 288.263 699.35 281.763 699.05 281.263C698.65 280.763 697.95 281.463 697.35 282.763ZM152.85 284.563C152.25 285.663 151.85 287.563 151.85 288.863C151.85 290.163 152.65 292.163 153.45 293.463C154.25 294.663 157.05 296.763 159.65 298.063C162.35 299.363 165.15 301.163 165.95 302.163C167.05 303.463 167.25 304.863 166.65 307.563L165.95 311.163C169.35 307.863 170.05 305.863 170.05 303.163C169.95 300.363 169.35 298.563 167.75 297.063C166.45 295.863 163.55 293.963 161.15 292.763C158.85 291.663 156.45 289.763 155.95 288.663C155.35 287.563 155.15 285.763 155.25 284.663C155.45 283.563 155.25 282.663 154.85 282.663C154.35 282.663 153.45 283.563 152.85 284.563ZM821.75 287.563C819.65 290.163 819.45 291.063 819.95 299.863C820.25 306.363 820.95 309.963 821.95 311.063C822.75 311.963 824.55 312.763 825.95 312.763C827.35 312.763 829.15 311.963 829.95 311.063C831.35 309.463 831.25 309.363 829.45 309.963C828.25 310.363 826.85 310.163 826.15 309.463C825.25 308.563 824.85 305.363 824.85 299.463L824.95 290.663C830.45 290.663 832.65 291.363 833.55 292.463C834.85 293.863 835.05 295.963 834.75 302.963L834.45 311.663H839.45L838.95 288.663C834.65 289.963 831.55 290.163 829.15 289.963C825.55 289.763 824.85 289.263 824.45 287.263L823.95 284.763L821.75 287.563ZM649.75 288.163C648.25 289.563 647.45 290.663 648.05 290.663C648.65 290.663 649.05 294.363 648.95 299.963C648.95 305.763 649.45 309.863 650.25 310.963C651.05 312.263 652.45 312.663 654.45 312.463C656.05 312.363 657.55 311.563 657.65 310.963C657.85 310.263 657.65 309.763 657.25 309.763C656.85 309.863 655.95 309.863 655.25 309.763C654.35 309.663 654.05 307.063 654.05 300.163V290.663L661.55 289.963C654.75 289.663 654.05 289.263 654.05 287.663C654.05 286.563 653.65 285.663 653.25 285.663C652.85 285.763 651.25 286.863 649.75 288.163ZM44.9503 289.963C43.0503 290.463 42.0503 291.063 42.7503 291.263C43.6503 291.563 44.0503 294.563 44.0503 301.663V311.663H49.5503C49.0503 293.863 49.0503 293.663 51.5503 292.463C53.4503 291.463 54.5503 291.463 55.8503 292.263C57.2503 293.163 57.5503 295.063 57.5503 302.563V311.663H63.0503C62.5503 292.863 62.2503 291.363 60.5503 290.063C59.4503 289.263 57.6503 288.663 56.5503 288.663C55.4503 288.563 53.2503 289.563 51.7503 290.663C49.1503 292.563 48.9503 292.563 48.6503 290.863C48.3503 289.263 47.8503 289.163 44.9503 289.963ZM92.1503 289.863C89.2504 290.663 89.1503 290.763 90.6503 292.463C91.9503 293.863 92.1504 295.863 91.8503 302.963L91.5503 311.663C96.5503 311.663 96.5504 311.663 96.2504 303.463C96.2247 302.874 96.1991 302.276 96.1735 301.679C95.9991 297.612 95.8247 293.546 95.6503 292.063C95.3503 289.163 95.1503 289.063 92.1503 289.863ZM104.45 290.263C103.465 291.042 102.99 291.416 103.041 291.513C103.089 291.602 103.588 291.452 104.55 291.163C105.65 290.863 107.35 291.263 108.35 291.863C109.85 292.863 110.35 294.763 110.65 300.663C110.85 305.763 110.55 308.663 109.75 309.563C108.75 310.763 108.75 310.963 109.75 310.363C110.45 309.963 111.25 310.363 111.55 311.163C111.75 311.963 112.85 312.663 113.75 312.763C114.75 312.763 116.15 312.063 117.05 311.163C118.35 309.763 118.35 309.563 116.75 309.663C115.25 309.663 115.05 308.663 115.05 301.163C115.05 293.963 114.75 292.363 113.05 290.663C111.95 289.563 109.95 288.663 108.75 288.663C107.45 288.663 105.55 289.363 104.45 290.263ZM121.75 289.763C119.75 290.463 119.25 290.963 120.05 291.963C120.65 292.663 120.95 297.163 120.75 302.463L120.55 311.663H126.55C126.05 296.863 126.35 293.763 127.25 292.863C127.95 292.163 129.55 291.563 130.75 291.663C132.05 291.663 133.45 292.563 134.15 293.963C134.75 295.163 135.05 299.463 134.85 303.963C134.647 309.177 134.582 310.861 135.337 311.404C135.697 311.663 136.243 311.663 137.05 311.663H139.55C138.65 293.263 138.15 290.363 137.05 289.663C136.15 289.163 134.65 288.663 133.55 288.663C132.45 288.663 130.65 289.263 129.55 290.163C128.45 290.963 127.15 291.663 126.75 291.663C126.35 291.663 126.05 290.963 126.05 290.163C126.05 289.363 125.65 288.663 125.25 288.763C124.85 288.763 123.25 289.263 121.75 289.763ZM174.75 289.763C172.75 290.463 172.25 290.963 173.05 291.963C173.65 292.663 173.95 297.163 173.75 302.463L173.55 311.663H179.05C179.05 293.863 178.65 288.663 178.25 288.763C177.85 288.763 176.25 289.263 174.75 289.763ZM184.85 289.663C183.45 290.063 182.75 290.863 183.05 291.763C183.25 292.563 183.55 297.363 183.55 302.463C183.55 308.944 183.55 310.86 184.424 311.426C184.791 311.663 185.311 311.663 186.05 311.663C186.814 311.663 187.344 311.663 187.704 311.416C188.522 310.852 188.459 309.007 188.25 302.963C188.05 296.863 188.35 293.763 189.25 292.863C189.95 292.163 191.45 291.563 192.55 291.563C193.65 291.563 195.05 292.163 195.75 292.863C196.65 293.763 196.95 296.863 196.75 302.963L196.55 311.663H202.55C201.65 295.063 201.05 291.463 200.05 290.263C199.15 289.363 197.65 288.563 196.55 288.663C195.45 288.663 193.05 289.563 191.25 290.663C188.15 292.563 187.95 292.563 187.65 290.863C187.35 289.463 186.75 289.163 184.85 289.663ZM208.55 290.763C206.35 292.363 205.85 293.563 205.95 296.463C206.05 298.563 206.75 300.963 207.55 301.963C208.85 303.463 208.85 303.863 207.55 305.163C206.65 305.963 206.05 307.263 205.95 307.963C205.95 308.563 206.55 309.763 207.25 310.363C208.25 311.363 208.15 311.963 206.75 313.363C205.85 314.363 205.05 315.963 205.05 316.963C205.05 317.863 205.95 319.563 207.05 320.663C208.35 321.963 210.35 322.663 212.75 322.663C214.85 322.663 217.15 322.163 218.05 321.663C219.15 320.963 218.65 320.663 216.05 320.763C213.95 320.763 211.75 319.963 210.75 318.963C209.75 317.963 209.05 316.063 209.25 314.663C209.45 312.263 209.85 312.163 216.05 312.163H222.55C222.55 317.163 222.85 318.663 223.25 318.663C223.65 318.663 224.45 317.763 225.05 316.663C225.55 315.563 226.05 313.663 226.05 312.463C226.05 311.163 225.55 309.663 224.85 308.963C224.05 308.363 220.35 307.663 216.55 307.463C212.15 307.263 209.55 306.763 209.35 305.963C209.15 305.263 209.95 304.463 211.05 304.163C212.75 303.763 212.85 303.463 211.55 302.163C210.65 301.363 210.05 299.063 210.05 297.163C210.05 295.263 210.45 292.763 211.05 291.663C211.55 290.563 211.85 289.463 211.65 289.163C211.55 288.863 210.15 289.563 208.55 290.763ZM216.55 290.663C217.35 291.463 217.95 293.863 217.95 295.963C218.05 297.963 217.55 300.563 217.05 301.663C216.25 303.163 216.35 303.663 217.25 303.663C217.95 303.763 219.25 302.963 220.15 301.963C221.05 300.963 222.05 299.263 222.45 298.163C222.75 297.063 222.65 294.963 222.05 293.463C221.15 290.963 221.15 290.763 223.05 291.263C224.35 291.563 225.05 291.363 225.05 290.463C225.05 289.563 223.45 289.163 220.05 289.163C215.75 289.163 215.35 289.363 216.55 290.663ZM238.35 290.363C239.45 291.463 240.05 293.263 239.85 294.863C239.55 297.163 239.95 297.663 241.75 297.663C243.45 297.663 244.05 297.063 243.95 295.463C243.95 294.163 243.65 292.663 243.25 292.063C242.85 291.463 241.55 290.463 240.25 289.863C239.05 289.163 237.65 288.663 237.25 288.663C236.85 288.663 237.35 289.363 238.35 290.363ZM248.75 289.763C246.75 290.463 246.25 290.963 247.05 291.963C247.65 292.663 247.95 297.163 247.75 302.463L247.55 311.663H253.55C253.15 296.563 253.05 291.363 253.05 290.463C253.05 289.463 252.65 288.663 252.25 288.763C251.85 288.763 250.25 289.263 248.75 289.763ZM255.45 290.063C254.45 290.863 253.75 291.663 254.05 291.963C254.25 292.163 255.75 292.663 257.25 293.063C259.75 293.563 260.05 293.363 260.05 291.163C260.05 289.763 259.45 288.663 258.75 288.663C258.05 288.663 256.55 289.263 255.45 290.063ZM322.15 289.863C319.85 290.463 319.25 290.963 320.05 291.963C320.65 292.663 320.95 297.163 320.75 302.463L320.55 311.663H326.55C326.05 293.863 326.05 293.663 328.55 292.463C330.45 291.463 331.55 291.463 332.85 292.263C334.25 293.163 334.55 295.063 334.55 302.563C334.55 308.96 334.55 310.86 335.419 311.425C335.786 311.663 336.308 311.663 337.05 311.663H339.55C338.95 293.263 338.55 290.963 337.15 289.863C336.25 289.163 334.65 288.663 333.55 288.663C332.45 288.563 330.25 289.563 328.75 290.663C326.15 292.563 325.95 292.563 325.65 290.863C325.35 289.263 324.75 289.163 322.15 289.863ZM411.55 289.563C410.15 290.063 409.85 290.563 410.75 290.963C411.65 291.463 412.05 294.363 412.05 299.963C412.05 305.663 412.45 308.863 413.55 310.463C414.45 311.863 416.05 312.663 417.75 312.663C419.25 312.663 421.45 311.963 422.55 311.163C423.65 310.263 424.85 309.663 425.25 309.663C425.65 309.663 426.05 310.363 426.05 311.163C426.05 312.263 426.75 312.563 428.75 312.063C430.25 311.763 431.75 311.263 432.05 311.063C432.25 310.863 431.95 310.063 431.25 309.363C430.35 308.563 429.95 304.963 429.95 298.463C430.05 291.263 429.65 288.663 428.75 288.763C428.05 288.763 426.65 289.163 425.65 289.463C424.25 290.063 424.05 290.463 424.95 291.663C425.45 292.463 426.05 296.363 426.05 300.163C426.05 304.663 425.65 307.663 424.85 308.463C424.05 309.163 422.15 309.563 420.55 309.463L417.55 309.163C417.05 289.963 416.75 288.663 415.25 288.763C414.25 288.763 412.65 289.163 411.55 289.563ZM444.65 291.063C447.15 293.163 447.55 293.263 447.85 291.863C448.05 290.963 447.55 289.863 446.85 289.463C446.15 289.063 444.65 288.663 443.65 288.663C442.15 288.663 442.25 289.063 444.65 291.063ZM452.75 289.763C450.75 290.463 450.25 290.963 451.05 291.963C451.65 292.663 451.95 297.163 451.75 302.463L451.55 311.663H457.55C457.05 293.863 456.65 288.663 456.25 288.763C455.85 288.763 454.25 289.263 452.75 289.763ZM473.55 290.263C474.65 291.263 475.85 292.863 476.15 293.663C476.65 294.863 477.05 294.963 478.15 293.963C479.35 292.863 479.25 292.463 478.05 291.263C477.15 290.463 475.35 289.563 474.05 289.063L471.55 288.263L473.55 290.263ZM482.65 289.863C480.65 290.463 480.25 291.063 480.95 291.963C481.55 292.663 481.85 297.263 481.75 302.463L481.45 311.763H486.45C486.05 297.363 485.75 292.263 485.55 291.163C485.35 289.363 484.85 289.163 482.65 289.863ZM495.05 289.363C494.25 289.663 493.65 290.363 493.75 290.863C493.85 291.363 494.85 291.463 495.95 291.263C497.15 290.963 498.65 291.463 499.55 292.463C500.85 293.863 501.15 295.863 500.85 302.363C500.65 306.863 500.75 310.363 501.25 310.163C501.65 309.963 502.15 310.363 502.45 311.263C502.75 312.063 503.85 312.763 504.95 312.763C506.05 312.763 507.25 312.163 507.65 311.463C508.05 310.763 507.85 310.163 507.15 309.963C506.35 309.863 505.95 306.963 505.95 301.263C505.95 294.063 505.65 292.463 503.95 290.763C502.85 289.663 500.75 288.763 499.25 288.863C497.65 288.863 495.85 289.163 495.05 289.363ZM511.85 289.963C509.25 290.663 508.85 291.063 509.95 291.763C511.15 292.463 511.45 294.763 511.45 302.163C511.45 311.663 511.45 311.763 513.95 311.763C516.45 311.763 516.45 311.763 516.15 302.963C516.05 296.963 516.35 293.863 517.15 292.963C517.85 292.263 519.35 291.663 520.45 291.663C521.55 291.663 523.05 292.263 523.75 292.963C524.65 293.863 524.95 296.963 524.75 302.963L524.45 311.763H530.45C529.55 293.063 529.15 291.363 527.45 290.163C526.35 289.363 524.55 288.663 523.45 288.663C522.35 288.663 520.55 289.363 519.45 290.163C518.35 290.963 517.15 291.663 516.75 291.663C516.25 291.763 515.75 291.163 515.55 290.363C515.35 289.363 514.45 289.263 511.85 289.963ZM543.55 291.163C546.05 293.263 546.55 293.363 546.75 291.963C546.95 290.963 546.55 289.863 545.75 289.463C545.05 289.063 543.65 288.763 542.55 288.763C541.05 288.763 541.25 289.163 543.55 291.163ZM595.15 289.863C592.75 290.563 592.25 291.063 592.95 291.963C593.55 292.663 593.85 297.263 593.75 302.463L593.45 311.763H599.45C599.05 298.966 598.75 293.865 598.65 292.164V292.163C598.35 289.163 598.15 289.063 595.15 289.863ZM605.45 291.163C604.05 292.663 603.05 294.863 603.05 296.663C602.95 298.463 603.85 300.563 604.95 301.763C606.05 302.863 606.55 303.963 605.95 304.263C605.45 304.463 604.55 305.663 603.95 306.763C603.25 308.263 603.35 309.163 604.45 310.263C605.75 311.563 605.75 311.963 603.95 313.763C602.85 314.863 601.95 316.163 601.95 316.763C601.95 317.263 603.05 318.863 604.45 320.263C606.15 321.963 608.05 322.763 610.45 322.763C612.35 322.763 613.95 322.363 613.95 321.963C613.95 321.563 612.65 320.863 610.95 320.463C609.35 320.063 607.55 318.863 606.95 317.763C606.45 316.663 606.15 314.863 606.45 313.763C606.85 312.063 607.75 311.763 612.95 311.763C617.65 311.763 619.15 312.163 619.85 313.463C620.45 314.563 620.45 316.163 619.85 317.463C619.35 318.763 619.25 319.763 619.75 319.763C620.15 319.763 620.95 318.763 621.65 317.563C621.741 317.367 621.836 317.162 621.933 316.952C622.48 315.771 623.096 314.443 623.35 313.763C623.55 312.863 623.15 311.263 622.35 309.963C621.15 308.063 620.05 307.763 614.75 307.763C611.25 307.763 607.75 307.263 606.95 306.863C605.65 306.063 605.75 305.763 607.65 304.563C609.65 303.363 609.65 303.063 608.15 300.763C607.15 299.063 606.85 297.163 607.25 294.763C607.65 292.763 608.75 290.663 609.65 289.963C611.35 288.763 611.35 288.663 609.65 288.763C608.65 288.763 606.75 289.863 605.45 291.163ZM613.65 290.963C614.55 291.963 615.25 294.263 615.35 295.963C615.35 297.763 615.05 300.263 614.65 301.463C614.25 302.763 614.35 303.763 614.95 303.763C615.55 303.763 616.95 302.763 618.15 301.463C619.85 299.663 620.15 298.563 619.65 294.963C619.05 291.263 619.15 290.763 620.75 291.363C621.85 291.763 622.55 291.463 622.75 290.563C622.85 289.563 621.55 289.263 617.55 289.263C612.45 289.263 612.25 289.363 613.65 290.963ZM672.55 291.163C675.05 293.263 675.55 293.363 675.75 291.963C675.95 290.963 675.55 289.863 674.75 289.463C674.05 289.063 672.65 288.763 671.55 288.763C670.05 288.763 670.25 289.163 672.55 291.163ZM739.55 291.163C742.05 293.263 742.55 293.363 742.75 291.963C742.95 290.963 742.55 289.863 741.75 289.463C741.05 289.063 739.65 288.763 738.55 288.763C737.05 288.763 737.25 289.163 739.55 291.163ZM759.25 289.463C759.333 289.628 759.534 290.099 759.812 290.749C760.209 291.677 760.762 292.97 761.35 294.263C762.75 297.263 763.05 299.463 762.55 303.263C762.15 306.463 761.15 309.063 759.75 310.463C758.05 312.163 757.85 312.763 758.95 312.763C759.75 312.763 761.65 311.863 763.25 310.763C764.75 309.663 766.45 307.063 767.05 304.963C767.65 302.963 767.95 299.863 767.65 298.263C767.25 296.563 766.15 294.063 765.15 292.763C764.15 291.363 762.35 289.863 761.15 289.463C759.95 289.063 759.05 289.063 759.25 289.463ZM782.55 290.963C783.75 292.163 784.95 293.863 785.15 294.763C785.55 295.863 785.85 295.663 786.75 293.963C787.85 291.963 787.65 291.563 784.95 290.263C783.35 289.363 781.65 288.763 781.25 288.663C780.75 288.663 781.45 289.663 782.55 290.963ZM791.85 289.763C790.35 290.163 789.65 290.963 789.95 291.863C790.25 292.563 790.45 297.363 790.45 302.463C790.45 311.663 790.45 311.763 792.95 311.763C795.45 311.763 795.45 311.663 795.15 303.463C795.05 298.963 794.75 293.863 794.55 292.163C794.35 289.463 793.95 289.163 791.85 289.763ZM802.85 290.763L800.45 292.763C805.95 290.863 806.75 291.063 808.25 292.463C809.65 293.863 810.05 295.863 809.95 301.463C809.95 307.363 809.65 308.863 808.25 309.663C807.15 310.163 805.75 310.163 804.75 309.663C803.75 309.163 802.95 307.963 802.95 306.963C802.95 306.063 803.75 304.463 804.75 303.463C806.35 301.763 806.35 301.663 804.65 301.663C803.65 301.763 801.75 302.863 800.45 304.263C799.05 305.563 797.95 307.363 797.95 308.263C797.95 309.063 798.65 310.363 799.45 311.263C800.25 312.063 801.95 312.763 803.25 312.763C804.45 312.763 806.55 311.963 807.85 310.963C810.15 309.363 810.25 309.363 811.05 310.963C811.55 311.963 812.85 312.763 813.95 312.763C815.05 312.763 816.25 312.263 816.75 311.663C817.15 311.063 816.95 310.263 816.35 309.863C815.65 309.463 815.05 305.763 814.85 301.063C814.55 294.663 814.05 292.463 812.45 290.763C811.35 289.663 809.25 288.663 807.85 288.663C806.35 288.763 804.15 289.663 802.85 290.763ZM849.25 289.663C848.15 290.063 846.45 291.363 845.55 292.363C844.65 293.363 843.65 296.263 843.25 298.763C842.85 301.863 843.25 304.363 844.25 306.763C845.15 308.663 847.05 310.763 848.45 311.463C849.85 312.163 851.15 312.763 851.45 312.763C851.75 312.763 851.05 311.063 849.95 308.963C848.85 306.963 847.85 303.363 847.75 301.063C847.65 298.763 848.15 295.563 848.85 294.063C849.45 292.463 850.85 290.663 851.75 289.963C852.65 289.263 853.05 288.763 852.45 288.763C851.95 288.863 850.45 289.263 849.25 289.663ZM857.75 292.463C858.85 294.263 859.45 297.163 859.45 300.863C859.45 305.163 858.95 307.263 857.25 309.663C855.95 311.363 855.15 312.763 855.45 312.763C855.75 312.763 857.35 312.063 858.95 311.263C860.65 310.363 862.45 308.763 863.05 307.463C863.75 306.263 864.25 303.163 864.25 300.763C864.25 298.263 863.75 295.263 863.05 293.963C862.45 292.763 860.65 291.063 859.05 290.163C857.35 289.363 856.05 288.963 856.05 289.163C855.95 289.463 856.75 290.963 857.75 292.463ZM868.75 289.863C866.65 290.463 866.25 291.063 866.95 291.963C867.55 292.663 867.85 297.263 867.75 302.463L867.45 311.763H873.45V293.263C878.75 291.363 879.35 291.563 880.65 293.263C881.65 294.663 881.95 297.463 881.75 303.463L881.45 311.763C886.25 311.763 886.85 311.363 886.45 310.263C886.15 309.363 885.95 304.863 885.95 300.263C885.95 294.063 885.55 291.363 884.45 290.263C883.65 289.363 881.95 288.763 880.75 288.663C879.45 288.663 877.25 289.563 875.75 290.663C872.95 292.763 872.95 292.763 872.95 290.763C872.95 289.663 872.65 288.763 872.25 288.863C871.75 288.863 870.25 289.263 868.75 289.863ZM229.75 291.463C228.95 292.463 227.75 294.263 227.05 295.463C226.45 296.763 225.95 299.263 225.95 301.263C225.95 303.163 226.65 306.063 227.45 307.763C228.25 309.363 229.85 311.163 230.95 311.763C232.05 312.263 234.05 312.763 235.45 312.763C236.85 312.763 238.65 312.463 239.45 312.263C240.25 311.963 240.95 311.263 240.95 310.763C240.95 310.163 239.35 309.763 237.45 309.763C234.55 309.763 233.65 309.263 232.45 306.763C231.65 305.063 231.05 301.563 231.05 298.963C231.15 296.363 231.75 293.263 232.35 291.963C233.25 290.363 233.25 289.763 232.35 289.763C231.75 289.763 230.55 290.563 229.75 291.463ZM345.45 292.863C343.15 295.363 342.75 296.763 342.85 301.363C342.95 305.763 343.45 307.363 345.75 309.863C347.85 312.163 349.15 312.863 351.35 312.563C352.95 312.363 354.45 311.663 354.65 310.963C354.85 310.263 354.45 309.963 353.75 310.363C353.05 310.663 351.45 309.663 350.15 308.063C348.45 305.963 347.95 303.963 347.95 300.263C347.95 297.463 348.65 293.963 349.45 292.463C350.75 290.163 350.75 289.763 349.55 289.763C348.75 289.763 346.95 291.163 345.45 292.863ZM435.45 292.263C434.35 294.163 434.25 295.363 434.95 297.463C435.55 298.963 438.15 301.563 440.75 303.263C444.05 305.363 445.45 306.963 445.45 308.463C445.45 309.763 445.65 310.763 445.95 310.763C446.25 310.763 447.05 310.263 447.75 309.563C448.45 308.863 448.85 306.863 448.75 305.263C448.55 303.163 447.45 301.663 444.95 300.063C443.05 298.863 440.55 297.163 439.45 296.363C438.25 295.463 437.55 293.963 437.65 292.363C437.75 290.963 437.65 289.763 437.45 289.763C437.15 289.763 436.35 290.863 435.45 292.263ZM464.75 291.463C463.95 292.463 462.75 294.263 462.05 295.463C461.45 296.763 460.95 299.263 460.95 301.263C460.95 303.163 461.65 306.063 462.45 307.763C463.25 309.363 464.85 311.163 465.95 311.763C467.05 312.263 469.05 312.763 470.45 312.763C471.85 312.763 473.65 312.463 474.45 312.263C475.25 311.963 475.95 311.263 475.95 310.763C475.95 310.163 474.65 309.763 472.95 309.763C470.85 309.763 469.35 308.963 467.95 306.963C466.55 305.063 465.85 302.763 465.95 299.263C465.95 296.463 466.55 293.263 467.25 291.963C468.25 290.363 468.35 289.763 467.45 289.763C466.75 289.763 465.55 290.563 464.75 291.463ZM534.45 292.263C533.35 294.163 533.25 295.363 533.95 297.463C534.55 298.963 537.15 301.563 539.75 303.263C543.05 305.363 544.45 306.963 544.45 308.463C544.45 309.763 544.65 310.763 544.95 310.763C545.25 310.763 546.05 310.263 546.75 309.563C547.45 308.863 547.85 306.863 547.75 305.263C547.55 303.163 546.45 301.663 543.95 300.063C542.05 298.863 539.55 297.163 538.45 296.363C537.25 295.463 536.55 293.963 536.65 292.363C536.75 290.963 536.65 289.763 536.45 289.763C536.15 289.763 535.35 290.863 534.45 292.263ZM714.45 291.263C713.55 292.163 712.85 293.863 712.85 295.063C712.95 296.263 713.45 297.963 714.15 298.863C714.85 299.763 717.35 301.663 719.75 303.163C722.05 304.563 724.05 306.263 724.05 306.963C724.15 307.663 724.15 308.763 724.05 309.463C724.05 310.163 724.45 310.763 724.95 310.763C725.55 310.763 726.55 309.563 727.25 308.263C728.25 306.263 728.25 305.263 727.25 303.263C726.55 301.863 724.25 299.863 722.25 298.863C720.15 297.863 717.75 296.263 716.95 295.263C715.85 293.963 715.75 293.163 716.55 291.663C717.15 290.563 717.25 289.763 716.85 289.763C716.45 289.763 715.35 290.463 714.45 291.263ZM731.05 290.963C730.45 291.663 730.05 293.763 730.15 295.763C730.45 298.763 731.25 299.763 735.85 302.763C740.45 305.763 741.15 306.663 740.85 308.963C740.65 310.463 740.55 311.763 740.65 311.763C740.75 311.763 741.55 311.063 742.35 310.263C743.25 309.363 743.95 307.463 743.95 305.963C744.05 304.363 743.05 302.363 741.75 301.063C740.45 299.963 737.95 298.263 736.25 297.363C733.55 295.963 733.05 295.263 733.25 292.763C733.35 291.063 733.15 289.763 732.85 289.763C732.45 289.763 731.65 290.263 731.05 290.963ZM748.95 292.463C747.85 293.963 746.65 296.563 746.35 298.263C746.05 299.863 746.05 302.663 746.35 304.463C746.75 306.363 748.25 308.763 749.95 310.263C751.65 311.563 753.75 312.763 754.75 312.763C756.15 312.763 756.05 312.363 753.95 310.163C751.75 307.963 751.45 306.663 751.45 300.763C751.45 295.663 751.95 293.463 753.25 291.863C754.23 290.72 754.677 290.2 754.557 289.962C754.458 289.763 753.962 289.763 753.05 289.763C751.95 289.763 750.15 290.963 748.95 292.463ZM772.45 292.863C770.15 295.363 769.75 296.763 769.85 301.363C769.95 305.963 770.45 307.163 772.95 309.763C775.05 311.863 776.95 312.763 779.25 312.663C780.95 312.663 783.35 311.963 784.45 311.163C786.35 309.763 786.15 309.663 782.25 309.763C778.65 309.763 777.65 309.263 776.25 306.963C775.35 305.463 774.55 302.163 774.55 299.763C774.55 297.263 775.15 293.963 776.05 292.463C777.05 290.563 777.15 289.763 776.35 289.763C775.65 289.763 773.95 291.163 772.45 292.863ZM261.65 293.263C260.85 294.963 260.75 296.363 261.45 297.763C262.05 298.863 264.75 301.263 267.45 303.063C270.95 305.363 272.45 306.963 272.45 308.563C272.45 309.763 272.75 310.763 273.25 310.763C273.65 310.763 274.55 309.563 275.25 308.263C276.25 306.263 276.25 305.263 275.25 303.263C274.55 301.863 272.25 299.863 270.25 298.863C268.15 297.863 265.85 296.263 265.25 295.363C264.55 294.463 264.05 293.063 264.25 292.263C264.35 291.363 264.15 290.763 263.75 290.763C263.25 290.763 262.35 291.863 261.65 293.263ZM663.05 292.963C662.65 294.263 662.55 296.163 662.85 297.163C663.15 298.263 665.25 300.363 667.45 301.963C669.65 303.463 672.05 305.263 672.85 305.963C673.65 306.763 673.95 308.163 673.55 309.463C673.15 311.163 673.35 311.663 674.45 311.263C675.25 310.963 676.25 309.763 676.55 308.463C676.85 307.263 676.95 305.363 676.75 304.263C676.55 303.163 674.05 300.663 671.15 298.763C667.35 296.163 665.85 294.663 665.95 292.963C665.95 291.763 665.45 290.763 664.95 290.763C664.35 290.763 663.55 291.763 663.05 292.963ZM102.35 302.963C101.15 303.563 99.8503 305.263 99.4503 306.663C99.0503 308.063 99.1503 309.863 99.6503 310.763C100.25 311.563 102.15 312.263 103.95 312.263C105.85 312.263 107.45 311.663 107.65 310.963C107.85 310.263 107.65 309.763 107.25 309.863C106.75 309.963 105.85 309.963 105.25 309.863C104.55 309.763 103.75 308.963 103.45 307.963C103.15 307.063 103.55 305.263 104.35 303.963C105.05 302.763 105.45 301.763 105.05 301.763C104.75 301.863 103.55 302.363 102.35 302.963ZM492.05 303.263C490.45 304.33 489.684 305.763 489.75 307.563C489.85 309.063 490.45 310.763 491.15 311.463C491.85 312.163 493.75 312.663 495.35 312.463C496.95 312.363 498.55 311.563 498.75 310.763C499.05 309.863 498.85 309.563 498.35 309.963C497.85 310.363 496.65 310.263 495.75 309.663C494.75 309.163 493.95 307.863 493.95 306.763C493.95 305.663 494.45 304.463 494.95 304.263C495.55 303.963 495.95 303.263 495.95 302.763C495.95 302.163 495.65 301.763 495.25 301.763C494.75 301.763 493.35 302.463 492.05 303.263ZM151.75 308.863C151.95 311.263 152.45 311.863 155.25 312.263C156.95 312.563 158.45 312.763 158.45 312.563C158.45 312.363 156.95 310.763 155.05 309.063L151.65 305.863L151.75 308.863ZM294.45 308.863C292.95 311.763 292.95 311.863 295.15 311.763C297.05 311.763 297.35 311.363 297.05 308.763C296.95 307.163 296.65 305.863 296.35 305.863C296.15 305.863 295.35 307.163 294.45 308.863ZM687.45 308.863C685.95 311.763 685.95 311.863 688.15 311.763C690.05 311.763 690.35 311.363 690.05 308.763C689.95 307.163 689.55 305.863 689.35 305.863C689.15 305.863 688.25 307.163 687.45 308.863ZM376.75 309.263C376.45 311.263 376.85 311.763 378.65 311.763C380.65 311.863 380.75 311.463 380.05 309.363C379.55 307.963 378.65 306.863 378.15 306.863C377.55 306.863 376.95 307.963 376.75 309.263ZM433.75 309.363C433.85 311.163 434.65 311.963 436.65 312.363C438.15 312.763 439.45 312.863 439.45 312.663C439.45 312.463 438.15 311.163 436.55 309.663L433.65 306.963L433.75 309.363ZM532.75 309.363C532.85 311.163 533.55 311.963 535.65 312.363C537.15 312.663 538.35 312.763 538.35 312.663C538.45 312.463 537.15 311.063 535.55 309.563L532.65 306.963L532.75 309.363ZM661.75 308.963C661.85 311.163 662.45 311.863 664.55 312.363C666.05 312.663 667.35 312.763 667.35 312.563C667.35 312.363 666.15 310.863 664.55 309.263L661.75 306.263V308.963ZM728.95 309.163C728.85 311.163 729.35 311.863 731.55 312.263C733.05 312.563 734.35 312.763 734.45 312.563C734.55 312.363 733.35 310.963 731.85 309.363L729.05 306.563L728.95 309.163ZM260.75 309.463C260.817 310.997 261.584 311.93 263.05 312.263C264.35 312.663 265.45 312.763 265.55 312.563C265.65 312.363 264.65 311.063 263.25 309.763L260.75 307.263V309.463ZM712.75 309.463C712.817 310.93 713.584 311.863 715.05 312.263C716.25 312.563 717.45 312.663 717.55 312.463C717.65 312.363 716.65 311.063 715.25 309.663L712.75 307.163V309.463ZM629.75 84.7627C631.35 82.8627 634.55 80.2627 637.05 79.0627C640.45 77.2627 643.15 76.7627 648.95 76.7627C653.05 76.7627 658.15 77.2627 660.15 77.7627C662.25 78.3627 665.85 80.2627 668.15 82.0627C670.55 83.8627 673.95 87.7627 675.65 90.7627C677.75 94.3627 679.35 98.6627 680.05 103.263C680.65 107.063 680.95 113.063 680.55 116.463C680.25 119.963 679.15 124.663 678.15 126.963C677.25 129.263 674.65 132.563 672.45 134.463C670.25 136.263 666.55 138.163 664.15 138.763C661.85 139.263 653.55 139.763 631.45 139.763L632.15 132.763C632.85 126.463 632.75 125.663 630.95 124.263C630.09 123.618 629.6 123.25 629.495 122.794C629.357 122.189 629.896 121.43 631.15 119.663C633.05 117.163 633.55 114.963 634.25 98.2627L630.65 94.2627C628.65 92.0627 627.05 89.7627 626.95 89.2627C626.95 88.6627 628.25 86.6627 629.75 84.7627ZM284.45 123.763C288.65 111.363 292.35 100.963 292.55 100.463C292.85 100.063 293.45 99.7627 293.95 99.7627C294.45 99.7627 296.15 104.163 297.55 109.463C299.05 114.863 301.85 123.963 307.15 140.263L304.55 142.463C303.15 143.763 301.95 144.963 301.95 145.263C301.95 145.563 303.35 147.663 304.95 149.963C306.65 152.363 307.95 155.363 307.95 156.763C307.95 158.163 307.15 160.063 306.15 161.063C305.05 162.263 302.95 162.863 299.95 162.763C297.45 162.763 293.45 162.163 290.95 161.263C288.45 160.463 284.55 158.263 282.15 156.263C279.35 153.963 277.75 151.663 277.35 149.463C276.85 147.063 278.55 140.963 284.45 123.763ZM791.15 124.763C786.65 137.963 782.95 149.963 782.95 151.463C782.95 153.063 783.95 155.863 785.25 157.763C786.55 159.863 789.75 162.463 792.95 164.063C796.15 165.663 801.05 167.163 804.65 167.563C809.95 168.163 811.05 167.963 812.95 166.263C814.25 164.963 815.05 163.063 814.95 160.963C814.95 158.763 813.85 156.563 811.45 153.763L807.95 149.763C812.25 146.363 812.95 144.763 812.95 142.463C812.95 140.763 810.95 133.163 808.55 125.763C806.05 118.363 803.45 109.663 802.55 106.463C801.65 103.363 800.65 100.763 800.15 100.763C799.75 100.763 795.75 111.563 791.15 124.763Z" fill="white"/>
</g>
<defs>
<filter id="filter0_d_2354_21" x="0" y="0" width="892" height="331" filterUnits="userSpaceOnUse" color-interpolation-filters="sRGB">
<feFlood flood-opacity="0" result="BackgroundImageFix"/>
<feColorMatrix in="SourceAlpha" type="matrix" values="0 0 0 0 0 0 0 0 0 0 0 0 0 0 0 0 0 0 127 0" result="hardAlpha"/>
<feOffset dy="4"/>
<feGaussianBlur stdDeviation="2"/>
<feComposite in2="hardAlpha" operator="out"/>
<feColorMatrix type="matrix" values="0 0 0 0 0 0 0 0 0 0 0 0 0 0 0 0 0 0 0.25 0"/>
<feBlend mode="normal" in2="BackgroundImageFix" result="effect1_dropShadow_2354_21"/>
<feBlend mode="normal" in="SourceGraphic" in2="effect1_dropShadow_2354_21" result="shape"/>
</filter>
<clipPath id="clip0_2354_21">
<rect width="884" height="323" fill="white" transform="translate(4)"/>
</clipPath>
</defs>
</svg>
