<svg width="887" height="355" viewBox="0 0 887 355" fill="none" xmlns="http://www.w3.org/2000/svg">
<g clip-path="url(#clip0_2354_23)">
<path fill-rule="evenodd" clip-rule="evenodd" d="M57.638 5.35532C61.238 4.05532 67.038 2.35532 70.638 1.55532C74.938 0.655317 81.738 0.355317 90.638 0.555317C100.538 0.855317 106.038 1.55532 111.438 3.05532C115.338 4.25532 121.938 6.75532 125.838 8.75532C129.838 10.6553 135.838 14.2553 139.138 16.5553C142.438 18.9553 148.238 24.2553 152.138 28.4553C156.038 32.5553 161.138 39.4553 163.638 43.8553C166.038 48.1553 169.338 55.2553 170.838 59.6553C172.338 64.0553 174.138 71.9553 176.138 86.7553L172.638 90.8553C170.738 93.1553 152.838 111.655 132.938 132.055C112.938 152.455 96.838 169.555 97.138 170.155C97.438 170.755 103.638 174.055 110.838 177.555C118.138 181.155 128.238 186.655 133.138 189.955C138.038 193.155 145.038 198.555 148.538 201.755C152.038 204.955 156.938 210.355 159.338 213.655C161.838 216.955 165.338 222.955 167.238 226.855C169.138 230.855 171.638 238.055 172.838 242.855C174.638 249.955 175.038 254.455 175.038 266.155C174.938 277.855 174.538 282.155 172.738 288.655C171.538 293.055 169.138 299.755 167.338 303.655C165.538 307.555 162.238 313.355 159.938 316.655C157.738 319.955 153.038 325.555 149.538 329.055C146.038 332.555 140.638 337.155 137.638 339.155C134.638 341.255 129.438 344.255 126.138 345.855C122.838 347.555 117.238 349.855 113.638 350.955C110.038 352.055 102.838 353.455 97.638 354.155C92.338 354.855 85.238 355.055 81.638 354.755C78.038 354.355 71.338 353.155 66.638 351.955C61.938 350.855 55.438 348.755 52.138 347.255C48.838 345.755 43.438 342.755 40.138 340.555C36.838 338.455 31.038 333.755 27.238 330.155C23.538 326.555 18.038 320.055 15.138 315.655C12.238 311.255 8.63799 304.855 7.23799 301.355C5.83799 297.955 3.73799 291.455 2.63799 286.855C1.53799 282.355 0.637988 275.855 0.637988 266.155L39.638 226.155C61.038 204.155 78.638 185.555 78.638 184.855C78.638 184.255 73.338 181.055 66.938 177.955C60.438 174.855 51.938 170.355 48.138 168.055C44.338 165.755 38.638 161.955 35.638 159.655C32.638 157.355 27.238 152.555 23.738 149.055C20.238 145.555 15.438 139.555 13.038 135.655C10.638 131.855 7.63799 125.755 6.23799 122.155C4.93799 118.555 3.03799 112.055 2.13799 107.655C1.23799 103.055 0.437988 94.9553 0.437988 88.6553C0.437988 82.5553 1.13799 74.4553 1.93799 70.6553C2.73799 66.8553 4.63799 60.4553 6.13799 56.6553C7.63799 52.8553 10.038 47.6553 11.438 45.1553C12.838 42.6553 15.338 38.8553 17.038 36.6553C18.638 34.4553 22.238 30.2553 25.038 27.3553C27.838 24.3553 32.638 20.0553 35.638 17.7553C38.638 15.4553 43.338 12.2553 46.138 10.6553C48.838 9.15532 54.038 6.75532 57.638 5.35532ZM275.638 34.6553C277.538 33.6553 281.838 32.2553 285.138 31.5553C288.938 30.6553 294.938 30.3553 301.638 30.5553C308.638 30.822 313.805 31.5886 317.138 32.8553C319.938 33.8553 324.238 36.1553 326.938 37.9553C329.538 39.7553 332.938 43.0553 334.538 45.4553C336.038 47.7553 337.838 51.3553 338.538 53.4553C339.138 55.4553 339.438 57.5553 339.138 58.1553C338.838 58.7553 335.638 59.1553 325.138 59.1553L323.438 55.4553C322.538 53.3553 320.538 50.3553 318.938 48.7553C317.438 47.1553 314.538 45.2553 312.638 44.3553C310.738 43.5553 305.538 42.6553 301.138 42.3553C295.538 42.0553 291.438 42.3553 287.638 43.4553C283.638 44.5553 281.138 46.0553 278.438 49.0553C275.738 51.9553 274.438 54.4553 274.038 57.4553C273.538 60.6553 273.838 62.7553 275.438 66.1553C276.838 69.1553 278.738 71.3553 281.338 72.7553C283.438 73.9553 287.438 75.3553 290.138 75.9553C292.938 76.5553 298.538 77.5553 302.638 78.1553C306.738 78.7553 313.138 80.1553 316.938 81.2553C320.638 82.2553 325.738 84.4553 328.438 86.0553C331.038 87.6553 334.338 90.6553 335.838 92.8553C337.338 94.9553 339.038 98.2553 339.638 100.155C340.138 102.055 340.638 105.955 340.638 108.655C340.638 111.455 340.238 115.255 339.638 117.155C339.138 119.055 337.338 122.755 335.638 125.455C334.038 128.055 330.538 131.755 327.938 133.655C325.238 135.555 320.238 138.155 316.638 139.355C311.438 141.155 307.838 141.555 298.638 141.555C289.038 141.655 286.038 141.255 280.138 139.155C276.238 137.855 271.338 135.355 269.238 133.755C267.038 132.055 263.738 128.755 261.938 126.455C260.138 124.055 258.138 120.255 257.638 117.955C257.038 115.555 256.738 113.555 256.838 113.355C257.038 113.255 259.138 112.855 261.638 112.455C264.138 112.155 267.338 112.155 268.938 112.555C270.938 112.955 272.138 114.355 273.638 117.655C274.938 120.455 277.238 123.255 279.938 125.155C282.238 126.855 286.538 128.655 289.638 129.255C292.638 129.955 298.238 130.155 302.138 129.855C306.238 129.555 310.738 128.555 313.138 127.355C315.338 126.255 318.338 124.055 319.738 122.455C321.238 120.955 322.938 117.855 323.638 115.655C324.338 113.355 324.638 109.855 324.238 107.455C323.938 105.055 322.538 101.955 321.338 100.455C320.038 98.8553 316.738 96.6553 314.038 95.4553C311.338 94.2553 302.838 92.1553 295.138 90.8553C287.438 89.4553 278.438 87.3553 275.138 86.0553C271.338 84.6553 267.638 82.2553 264.938 79.4553C262.238 76.7553 260.238 73.5553 259.538 70.9553C258.838 68.5553 258.338 63.9553 258.338 60.6553C258.338 56.1553 258.938 53.1553 260.938 48.9553C262.638 45.2553 265.138 41.9553 267.938 39.7553C270.238 37.9553 273.738 35.6553 275.638 34.6553ZM674.138 31.8553C672.238 32.2553 672.138 33.0553 672.338 51.9553C672.338 62.7553 672.138 72.7553 671.738 74.1553C671.038 76.4553 670.938 76.4553 670.338 74.6553C670.038 73.5553 667.538 70.6553 664.938 68.1553C662.238 65.6553 658.238 63.0553 656.038 62.4553C653.938 61.7553 649.738 61.1553 646.938 61.1553C644.038 61.1553 639.238 62.0553 636.438 63.0553C633.538 64.1553 629.238 66.8553 626.938 69.0553C624.538 71.3553 621.338 75.9553 619.638 79.4553C617.938 83.0553 616.238 88.8553 615.638 93.1553C614.838 98.4553 614.838 103.155 615.638 109.155C616.238 114.155 617.738 119.955 619.238 123.155C620.638 126.155 623.438 130.355 625.438 132.455C627.438 134.555 631.438 137.455 634.138 138.955C638.138 141.055 640.538 141.555 646.638 141.555C652.738 141.655 655.038 141.155 659.138 139.155C661.938 137.755 665.638 134.655 667.838 131.955L671.638 127.155C672.278 132.418 672.615 135.355 672.792 136.899L672.793 136.912L672.794 136.922C672.865 137.536 672.909 137.927 672.938 138.155C673.138 139.255 674.738 139.755 679.438 139.955L685.638 140.155C686.038 45.5553 685.838 33.5553 684.938 32.4553C684.238 31.7553 681.938 31.2553 679.938 31.2553C677.838 31.3553 675.238 31.5553 674.138 31.8553ZM373.138 65.4553C374.738 64.5553 377.938 63.2553 380.138 62.5553C382.338 61.8553 386.838 61.2553 390.138 61.2553C393.438 61.1553 398.438 61.7553 401.138 62.5553C403.938 63.4553 408.338 65.5553 411.038 67.3553C413.738 69.1553 417.238 72.6553 418.838 75.1553C420.438 77.6553 422.638 82.1553 423.738 85.1553C425.338 89.3553 425.838 93.0553 425.938 101.155C426.038 109.855 425.638 112.855 423.538 118.555C421.838 123.555 419.738 127.055 416.138 131.055C412.938 134.455 409.138 137.455 405.638 138.955C401.038 141.055 398.638 141.555 390.638 141.555C382.938 141.555 380.238 141.155 376.438 139.355C373.738 138.155 369.538 135.155 366.938 132.755C363.938 130.055 361.038 125.955 359.138 122.055C356.238 115.855 356.138 115.155 356.138 101.655C356.138 88.4553 356.338 87.3553 358.938 81.6553C360.438 78.3553 363.638 73.7553 365.938 71.3553C368.238 68.9553 371.538 66.2553 373.138 65.4553ZM560.638 62.8553C557.838 63.8553 554.338 66.4553 551.338 69.5553L546.538 74.6553C546.638 66.9553 546.038 64.5553 545.138 63.6553C544.138 62.6553 542.405 62.2887 539.938 62.5553C537.838 62.8553 535.338 63.0553 534.438 63.0553C532.738 63.1553 532.638 65.5553 532.938 101.455L533.138 139.655H546.138C547.138 89.4553 547.238 88.4553 549.638 83.7553C551.138 80.6553 553.638 77.7553 556.038 76.2553C559.338 74.0553 561.138 73.6553 567.238 73.6553C573.538 73.6553 574.838 73.9553 577.138 76.1553C578.638 77.5553 580.538 80.1553 581.238 81.9553C582.338 84.3553 582.638 91.3553 582.638 111.155C582.638 125.455 582.838 137.855 583.138 138.655C583.538 139.755 585.038 140.155 588.638 140.155C591.438 140.155 594.338 139.955 595.138 139.655C596.438 139.255 596.638 135.155 596.638 111.455C596.638 89.9553 596.338 82.5553 595.238 78.6553C594.438 75.9553 592.738 72.1553 591.438 70.2553C590.138 68.3553 586.938 65.6553 584.138 64.2553C580.438 62.2553 577.438 61.5553 572.138 61.4553C567.638 61.2553 563.538 61.7553 560.638 62.8553ZM444.638 93.4553C444.638 78.4553 444.938 65.4553 445.238 64.6553C445.638 63.5553 447.438 63.1553 457.538 63.1553L457.938 89.9553C458.238 106.355 458.838 117.955 459.538 120.155C460.138 122.055 461.938 124.855 463.438 126.355C465.038 128.055 467.738 129.355 470.138 129.755C472.338 130.055 475.938 130.055 478.138 129.755C480.738 129.355 483.738 127.855 486.538 125.455C489.038 123.355 491.638 120.055 492.538 118.155C493.838 115.355 494.238 109.355 495.138 63.6553H508.138L508.438 99.6553C508.538 119.455 508.438 136.655 508.138 137.855C507.738 139.855 507.038 140.155 502.438 140.155C499.438 140.155 496.538 139.655 495.838 138.955C495.138 138.255 494.638 135.655 494.638 128.655L490.438 133.055C488.038 135.455 484.338 138.355 482.138 139.455C479.138 141.055 476.238 141.555 470.138 141.555C463.738 141.655 461.238 141.255 457.638 139.355C455.138 138.055 452.038 135.655 450.638 133.855C449.238 132.155 447.338 128.455 446.438 125.655C444.938 121.455 444.738 116.455 444.638 93.4553ZM742.938 88.5553C742.538 89.2553 742.438 92.0553 742.638 94.7553L743.138 99.6553C850.838 100.055 883.138 99.9553 884.438 99.6553C886.438 99.2553 886.638 98.5553 886.638 93.1553V87.1553C755.338 87.1553 743.438 87.3553 742.938 88.5553ZM506.138 216.455C508.938 215.555 513.438 214.555 516.138 214.055C518.938 213.655 524.238 213.555 528.138 213.855C532.038 214.155 537.538 215.055 540.438 215.755C543.238 216.555 547.338 217.955 549.438 219.055C551.438 220.055 555.538 223.155 558.538 225.755C561.838 228.855 564.938 232.855 566.738 236.655C568.238 239.955 569.738 244.455 570.138 250.655L559.138 251.255C553.138 251.555 547.538 251.555 546.838 251.255C546.138 250.855 545.138 249.255 544.638 247.655C544.138 246.055 542.238 243.155 540.438 241.355C538.438 239.355 535.138 237.455 532.138 236.555C529.438 235.755 525.938 235.155 524.438 235.155C522.838 235.155 519.538 235.755 516.938 236.455C514.038 237.155 510.538 239.155 507.838 241.655C505.038 244.255 502.738 247.555 501.338 251.155C499.638 255.655 499.238 258.955 499.238 269.155C499.138 278.555 499.538 282.855 500.838 286.655C501.838 289.455 504.038 293.455 505.838 295.555C507.638 297.655 510.838 300.255 512.938 301.255C515.538 302.655 518.838 303.155 524.138 303.155C528.238 303.155 532.838 302.655 534.438 302.055C535.938 301.555 538.638 299.555 540.438 297.855C542.138 296.055 543.838 293.455 544.138 291.955C544.438 290.355 545.538 288.755 546.638 288.155C547.738 287.555 552.938 287.155 558.138 287.155C565.238 287.155 568.038 287.555 569.138 288.655C570.138 289.655 570.438 291.155 570.038 293.455C569.638 295.155 567.938 299.555 566.238 303.055C564.538 306.555 561.238 311.155 558.938 313.255C556.538 315.455 552.538 318.255 549.938 319.555C547.238 320.855 542.638 322.655 539.638 323.555C536.238 324.555 530.538 325.155 524.638 325.155C519.438 325.155 512.638 324.455 509.638 323.655C506.638 322.855 501.638 320.955 498.638 319.455C495.538 317.955 490.538 314.055 487.238 310.655C483.738 307.055 480.038 301.855 478.038 297.655C476.138 293.755 473.938 287.155 473.138 282.955C472.338 278.655 471.638 272.655 471.638 269.655C471.638 266.655 472.338 260.655 473.138 256.455C473.938 252.155 475.938 245.955 477.538 242.655C479.038 239.355 482.238 234.255 484.438 231.455C486.738 228.555 491.438 224.355 494.938 222.155C498.338 219.955 503.438 217.355 506.138 216.455ZM818.238 216.655C817.938 217.455 817.638 241.355 817.638 269.655C817.638 314.055 817.838 321.355 819.138 322.655C820.238 323.755 822.938 324.155 829.338 324.155C834.238 324.155 838.638 323.755 839.338 323.355C840.138 322.855 840.538 315.655 840.838 298.655C841.038 278.855 841.438 274.155 842.738 271.655C843.638 270.055 845.638 267.755 847.238 266.755C849.038 265.455 851.938 264.755 854.938 264.755C859.038 264.655 860.138 265.055 861.738 267.155C863.638 269.455 863.738 271.355 863.638 294.955C863.638 309.855 864.038 320.955 864.638 322.155C865.538 323.955 866.638 324.155 874.838 324.155C879.938 324.155 884.738 323.755 885.438 323.355C886.438 322.855 886.638 315.955 886.438 291.655C886.138 262.055 886.038 260.455 883.938 256.655C882.838 254.455 880.738 251.655 879.438 250.455C878.238 249.255 875.338 247.555 873.138 246.655C870.838 245.655 866.438 244.955 862.638 244.955C858.838 244.955 854.438 245.655 852.138 246.655C849.938 247.555 846.938 249.455 845.338 250.955C843.538 252.755 842.338 253.355 841.638 252.655C841.138 252.055 840.538 243.555 840.438 233.655L840.138 215.655C820.738 215.155 818.738 215.355 818.238 216.655ZM671.638 248.455C674.638 247.055 679.738 245.655 683.038 245.255C686.238 244.955 691.438 244.855 694.538 245.255C697.638 245.555 702.138 246.755 704.638 247.955C707.138 249.055 710.838 251.755 713.038 253.855C715.138 255.955 718.338 260.555 720.038 264.155C722.638 269.655 723.138 272.055 723.438 280.155C723.738 287.355 723.438 289.855 722.438 290.355C721.738 290.755 710.638 291.155 674.638 291.155V294.455C674.638 296.155 675.638 299.255 676.938 301.155C678.338 303.355 680.638 305.155 683.138 306.055C685.638 306.855 688.638 307.155 690.838 306.755C692.938 306.455 695.638 305.155 696.838 303.855C698.138 302.555 699.638 300.755 700.138 299.755C700.938 298.455 703.038 297.955 710.138 297.455C717.238 297.055 719.538 297.255 721.138 298.455C722.938 299.755 723.038 300.355 721.938 303.755C721.238 305.955 719.338 309.555 717.738 311.955C716.038 314.255 712.538 317.555 709.838 319.155C707.238 320.855 702.838 322.955 700.138 323.855C696.438 324.955 692.738 325.255 686.138 324.955C679.738 324.655 675.738 323.855 672.338 322.355C669.738 321.155 665.538 318.155 662.838 315.755C659.938 313.055 657.038 308.955 655.138 305.055C652.238 298.955 652.138 298.055 652.138 285.155C652.138 272.755 652.338 271.155 654.638 266.155C656.038 263.155 659.238 258.455 661.638 255.855C664.238 253.055 668.438 249.955 671.638 248.455ZM756.038 246.955C753.338 247.855 749.338 249.855 747.338 251.455C745.338 252.955 742.538 255.655 741.238 257.455C739.838 259.155 737.838 262.655 736.738 265.155C735.638 267.655 734.238 272.755 733.638 276.655C732.838 281.655 732.838 286.155 733.538 292.155C734.238 297.955 735.438 302.555 737.538 306.655C739.138 309.955 742.138 314.155 744.338 316.055C746.438 317.955 750.638 320.655 753.638 322.055C758.038 324.155 761.038 324.755 768.638 324.955C776.638 325.255 779.138 324.955 784.138 323.055C788.438 321.455 791.738 319.255 795.738 315.255C799.838 311.155 801.738 308.255 803.038 304.155C803.938 301.155 804.638 297.755 804.438 296.655C804.138 294.755 803.338 294.655 793.138 294.655H782.238C781.038 299.655 779.238 302.255 777.638 303.655C775.338 305.555 773.538 306.155 769.638 306.155C765.338 306.155 764.138 305.655 761.238 302.955C759.438 301.155 757.438 297.855 756.738 295.655C756.138 293.455 755.638 288.555 755.638 284.655C755.638 280.755 756.238 275.855 756.938 273.755C757.538 271.655 759.038 268.855 760.138 267.655C761.238 266.455 763.738 264.955 765.638 264.355C767.938 263.655 770.438 263.655 772.838 264.255C774.938 264.755 777.538 266.155 778.738 267.455C779.838 268.655 781.038 270.955 781.438 272.455C781.838 274.155 782.938 275.455 784.138 275.755C785.238 276.055 790.138 276.155 795.138 275.955C802.138 275.755 804.238 275.355 804.438 274.155C804.638 273.355 804.038 269.955 803.138 266.655C801.738 261.755 800.338 259.655 795.738 255.055C791.838 251.155 788.338 248.855 784.338 247.355C780.038 245.655 776.438 245.155 769.838 245.155C764.338 245.255 759.338 245.855 756.038 246.955ZM581.438 255.355C581.338 251.055 581.638 247.155 582.138 246.855C582.638 246.455 595.838 246.155 611.538 246.155C633.338 246.155 640.438 246.455 641.438 247.355C642.238 248.155 642.638 251.355 642.638 255.955C642.638 262.355 642.338 263.555 639.938 266.455C639.3 267.178 637.649 269.131 635.401 271.791L635.399 271.793C632.361 275.387 628.232 280.271 624.038 285.155C616.838 293.655 610.238 301.855 607.638 306.155H623.138C631.638 306.155 639.538 306.555 640.638 307.155C642.338 308.055 642.638 309.155 642.638 315.155C642.638 321.155 642.338 322.255 640.638 323.155C639.438 323.755 627.338 324.155 610.638 324.155C595.238 324.155 581.938 323.955 581.138 323.655C579.938 323.255 579.638 321.355 579.638 306.155L595.938 286.955C604.938 276.355 612.638 267.055 613.138 266.255C613.838 265.355 613.638 264.655 612.638 264.055C611.838 263.555 604.538 263.155 581.638 263.155L581.438 255.355ZM255.238 272.655C254.938 273.455 254.638 275.955 254.638 278.155C254.638 280.355 255.038 282.355 255.638 282.655C256.138 282.955 288.438 283.155 327.338 283.155C382.438 283.155 398.338 282.855 398.838 281.855C399.238 281.255 399.638 279.155 399.638 277.455C399.638 275.655 399.438 273.455 399.138 272.655C398.738 271.355 389.838 271.155 327.238 271.155C264.638 271.155 255.738 271.355 255.238 272.655ZM381.238 74.9549C381.895 74.6862 382.569 74.4086 383.214 74.1434C384.728 73.5202 386.077 72.9654 386.638 72.7549C387.438 72.5549 388.938 72.2549 389.938 72.2549C390.838 72.1549 393.738 72.6549 396.438 73.3549C399.438 74.1549 402.438 75.8549 404.738 78.1549C406.738 80.1549 409.038 83.9549 410.138 87.1549C411.438 90.8549 412.038 95.5549 412.038 101.655C412.038 108.055 411.538 112.255 410.138 116.155C409.038 119.255 406.738 123.155 404.738 125.255C402.138 127.755 399.638 129.155 395.938 129.955C393.038 130.655 389.138 130.855 387.438 130.555C385.638 130.155 382.438 128.955 380.338 127.755C378.238 126.655 375.738 124.555 374.838 123.155C373.838 121.755 372.238 118.655 371.238 116.155C369.938 112.855 369.438 108.955 369.438 101.655C369.438 95.0549 370.038 90.2549 371.038 87.4549C371.938 85.0549 373.738 81.6549 375.038 79.9549C376.338 78.1549 379.138 75.8549 381.238 74.9549ZM633.138 83.5549C635.438 79.2549 637.238 77.0549 640.138 75.4549C643.138 73.7549 645.738 73.1549 650.638 73.1549C655.638 73.1549 658.038 73.7549 661.138 75.5549C663.638 77.0549 666.138 79.7549 667.838 82.7549C669.538 85.7549 670.938 90.5549 671.638 95.1549C672.338 100.055 672.438 104.755 671.838 108.655C671.338 111.955 669.938 116.455 668.838 118.655C667.838 120.855 665.338 124.055 663.538 125.755C661.438 127.555 658.138 129.255 655.138 129.955C652.338 130.555 648.638 130.755 646.638 130.255C644.738 129.855 641.538 128.555 639.638 127.455C637.638 126.255 634.938 123.255 633.438 120.455C631.938 117.855 630.438 113.155 629.938 110.155C629.538 107.155 629.338 101.255 629.638 97.0549C630.038 91.3549 630.838 88.1549 633.138 83.5549ZM681.738 263.455C680.438 264.055 678.538 265.755 677.538 267.155C676.538 268.555 675.538 270.755 675.438 272.155L675.138 274.655L701.138 275.255C699.938 269.155 698.538 266.555 696.638 264.955C694.238 262.755 692.638 262.155 688.838 262.155C686.238 262.155 683.038 262.755 681.738 263.455Z" fill="white"/>
</g>
<defs>
<clipPath id="clip0_2354_23">
<rect width="887" height="355" fill="white"/>
</clipPath>
</defs>
</svg>
