<svg width="884" height="212" viewBox="0 0 884 212" fill="none" xmlns="http://www.w3.org/2000/svg">
<g clip-path="url(#clip0_2354_16)">
<path fill-rule="evenodd" clip-rule="evenodd" d="M711.95 8.13844C727.327 7.98967 727.327 7.98967 727.772 9.62616C728.07 10.5932 728.144 48.9764 727.995 95.0214C727.698 174.615 727.772 178.929 729.035 183.169C729.778 185.624 731.338 189.269 732.378 191.277C733.492 193.285 736.241 196.558 738.469 198.567C740.995 200.873 744.263 202.881 746.938 203.848C749.315 204.741 751.395 205.708 751.543 206.006C751.692 206.377 750.429 206.749 748.72 206.973C746.938 207.196 739.361 208.088 731.784 208.981C724.207 209.874 715.738 210.692 712.841 210.915C707.864 211.213 707.567 211.138 705.784 209.13C704.745 207.94 703.259 205.113 702.516 202.881C701.773 200.65 701.03 198.641 700.882 198.418C700.733 198.195 699.545 199.162 698.208 200.575C696.87 201.914 694.196 203.848 692.265 204.815C690.259 205.782 686.619 207.121 684.094 207.716C681.494 208.386 674.734 209.055 669.014 209.353C662.477 209.576 656.534 209.427 653.043 208.907C649.997 208.386 644.798 207.121 641.529 206.006C638.261 204.89 633.061 202.509 630.015 200.65C626.97 198.864 622.29 195.294 619.69 192.839C617.09 190.384 613.524 186.368 611.816 183.913C610.033 181.458 607.73 177.59 606.616 175.358C605.502 173.127 604.09 169.928 603.496 168.292C602.902 166.655 601.936 162.936 601.342 160.109C600.747 157.134 600.227 151.109 600.227 145.976C600.227 140.843 600.747 134.372 601.49 130.727C602.159 127.231 603.644 121.726 604.833 118.453C606.022 115.18 608.176 110.494 609.661 108.039C611.073 105.584 613.673 101.791 615.381 99.559C617.09 97.3274 621.027 93.5337 624.072 91.079C627.118 88.6242 632.021 85.5744 634.844 84.161C637.741 82.8221 643.089 80.9624 646.729 79.9954C652.3 78.5821 655.346 78.3589 664.928 78.3589C674.363 78.4333 677.482 78.7309 682.385 80.0698C685.654 80.9624 690.333 82.6733 692.785 83.9379C695.236 85.1281 698.95 87.434 700.956 89.0705C703.036 90.6326 704.893 91.8228 705.264 91.5997C705.562 91.4509 705.784 78.4333 705.784 62.6635C705.784 38.488 705.562 33.2066 704.522 28.5946C703.779 25.4704 702.367 21.8999 701.03 19.8914C699.767 18.1062 697.539 15.8002 696.128 14.8332C694.716 13.9406 692.042 12.676 690.185 12.0809C688.328 11.4858 685.356 10.5932 680.157 9.10546L688.328 8.65914C692.859 8.43598 703.407 8.21282 711.95 8.13844ZM652.672 88.3267C651.037 89.2937 648.066 91.6741 646.06 93.5337C644.055 95.3934 641.083 98.8895 639.449 101.344C637.741 103.799 635.364 108.188 634.027 111.014C632.764 113.841 630.981 118.751 630.089 121.8C629.272 124.85 628.232 130.429 627.712 134.074C627.192 138.017 627.044 144.339 627.267 149.323C627.564 154.605 628.381 160.556 629.495 164.944C630.535 168.812 632.318 174.168 633.507 176.846C634.695 179.524 636.998 183.69 638.706 186.144C640.341 188.599 643.312 192.095 645.318 193.955C647.323 195.815 650.146 198.046 651.557 198.939C652.969 199.757 656.014 201.022 658.243 201.765C661.437 202.807 663.889 203.03 669.757 202.733C675.105 202.435 678.448 201.84 681.642 200.575C684.465 199.46 687.362 197.6 689.516 195.443C691.373 193.583 693.973 189.938 695.236 187.26C696.499 184.582 698.282 179.598 699.099 176.102C699.842 172.606 700.882 166.135 701.327 161.597C701.699 157.059 702.07 149.249 702.07 144.116C702.07 138.984 701.699 131.322 701.327 127.007C700.882 122.693 699.842 116.37 699.025 112.874C698.208 109.378 696.425 104.171 695.088 101.344C693.305 97.6249 691.373 95.0214 688.254 92.1948C685.579 89.74 682.311 87.6572 679.785 86.6902C677.061 85.6488 673.347 85.0537 668.643 84.9049C664.186 84.6818 660.471 84.9793 658.614 85.5744C656.98 86.0951 654.306 87.3597 652.672 88.3267ZM110.401 0.327895C114.115 0.476668 120.429 1.14614 124.515 1.74123C128.601 2.41071 135.806 4.12159 140.486 5.60931C145.166 7.02265 151.034 8.65914 153.486 9.17984C155.937 9.77493 158.834 10.2212 160.023 10.2212C161.137 10.2212 163.217 9.70055 164.628 9.10546C166.634 8.21282 167.451 7.32019 168.194 5.01422C168.64 3.37773 169.531 2.03878 170.051 2.03878C170.497 2.03878 171.091 2.41071 171.314 2.78264C171.537 3.22895 172.651 18.7013 173.839 37.2234C175.251 58.4235 175.771 71.1435 175.325 71.5898C174.879 72.0857 174.434 72.0857 173.988 71.5898C173.617 71.2179 171.759 66.8291 169.828 61.9196C167.897 57.0101 164.851 50.1666 162.994 46.6704C161.137 43.1743 157.868 37.8929 155.788 34.8431C153.709 31.7932 149.697 26.8837 146.8 23.9083C143.977 21.0072 139.298 17.0648 136.4 15.2795C133.578 13.4199 129.046 11.0395 126.372 9.99809C123.698 8.95669 119.39 7.76651 116.715 7.32019C114.041 6.87387 110.327 6.50194 108.396 6.50194C106.39 6.50194 102.23 7.02265 99.1101 7.69212C95.9159 8.28721 90.7903 9.9237 87.7447 11.1883C84.6991 12.5272 79.7221 15.2795 76.6764 17.2879C73.6308 19.3707 68.6538 23.5364 65.5339 26.6606C62.414 29.7848 57.7341 35.4381 55.0599 39.3062C52.46 43.1743 48.8943 49.3484 47.1858 52.9933C45.403 56.7126 43.1745 62.3659 42.0603 65.6389C41.0203 68.9119 39.6832 73.9702 39.0889 76.7968C38.4946 79.6235 37.6032 86.1695 37.0832 91.3021C36.489 98.4432 36.489 103.278 37.1575 112.13C37.6032 118.453 38.8661 127.677 39.8317 132.586C40.7974 137.496 42.6545 144.711 43.9916 148.579C45.2544 152.448 47.7801 158.473 49.4886 161.969C51.2714 165.465 54.1685 170.375 55.9513 172.904C57.6598 175.433 61.2997 179.747 63.9739 182.499C66.6481 185.177 70.808 188.897 73.2594 190.608C75.7107 192.393 80.242 194.996 83.2877 196.484C86.3333 197.897 91.6817 199.831 95.173 200.724C99.9272 201.989 103.641 202.361 110.03 202.435C115.972 202.435 120.058 202.063 123.401 201.17C126.075 200.427 130.086 199.088 132.315 198.195C134.543 197.302 139.075 195.071 142.343 193.211C146.255 190.98 150.49 187.632 155.046 183.169C158.76 179.524 163.291 174.317 165.074 171.639C166.782 168.961 169.68 163.977 171.388 160.481C173.097 156.985 174.879 152.819 175.399 151.183C175.919 149.546 176.811 147.315 177.331 146.199C177.925 144.935 178.965 144.116 179.856 144.116C180.674 144.116 181.491 144.339 181.639 144.711C181.788 145.009 181.268 147.761 180.451 150.811C179.708 153.861 177.628 159.589 175.919 163.457C174.137 167.325 171.091 173.052 169.085 176.102C167.005 179.152 163.068 183.987 160.171 186.888C157.348 189.789 152.817 193.657 150.143 195.443C147.469 197.228 142.64 199.98 139.372 201.468C136.103 203.03 130.755 204.964 127.486 205.782C124.218 206.601 118.35 207.642 114.487 208.163C110.327 208.683 103.79 208.832 98.5158 208.535C93.6131 208.311 86.6304 207.568 82.9162 206.973C79.2763 206.303 73.2594 204.964 69.5452 203.923C65.9053 202.881 58.8484 200.129 53.9456 197.749C49.0429 195.368 42.3574 191.426 39.0889 188.971C35.8204 186.591 30.6949 182.053 27.7235 179.003C24.6779 175.954 20.1466 170.3 17.5467 166.432C14.9467 162.564 11.6782 156.836 10.2669 153.786C8.85547 150.737 6.84981 145.53 5.73556 142.257C4.69559 138.984 3.13563 132.958 2.24423 128.867C1.20426 123.66 0.609988 117.263 0.312853 107.667C0.0157187 96.5835 0.164286 92.5667 1.12997 87.2109C1.87281 83.566 3.43277 77.4663 4.6213 73.8214C5.88413 70.1765 8.48405 63.7793 10.564 59.688C12.5697 55.5968 16.5067 49.1252 19.2552 45.2571C22.0037 41.389 27.2778 35.215 30.992 31.4957C34.7062 27.7764 40.7974 22.5693 44.5859 19.8914C48.3001 17.2135 54.4656 13.4942 58.2541 11.5602C61.9683 9.62616 68.1338 7.02265 71.7737 5.75808C75.4879 4.5679 80.9849 3.0058 84.0305 2.41071C87.0761 1.74123 92.796 0.922984 96.6587 0.62544C100.521 0.327895 106.761 0.179123 110.401 0.327895ZM234.455 77.2431C236.535 77.1688 241.66 77.5407 245.969 77.9126C250.277 78.3589 256.369 79.4003 259.563 80.2186C262.683 80.9625 267.065 82.4502 269.22 83.4172C271.3 84.3842 274.494 86.2439 276.277 87.5084C277.985 88.773 280.288 91.3765 283.482 96.8811L284.225 187.632L286.156 191.351C287.271 193.36 289.35 196.187 290.836 197.451C292.322 198.79 294.327 200.203 295.367 200.65C296.407 201.096 298.636 201.394 300.419 201.394C302.202 201.394 304.504 200.798 305.99 199.906C307.253 199.088 308.961 197.451 309.704 196.187C310.373 194.996 311.413 193.806 311.933 193.583C312.378 193.36 313.195 193.36 313.567 193.583C314.013 193.806 314.31 194.996 314.31 196.187C314.31 197.749 313.418 199.385 311.19 201.84C309.11 203.997 306.51 205.782 303.91 206.824C300.493 208.163 298.339 208.386 290.539 208.386C282.888 208.311 280.511 208.014 276.797 206.675C274.345 205.782 270.854 204.071 268.997 202.881C267.14 201.765 264.317 199.311 262.757 197.526C260.306 194.848 259.711 194.476 258.671 195.22C258.003 195.74 254.809 197.749 251.54 199.683C248.272 201.617 242.255 204.369 238.169 205.782C232.226 207.791 229.255 208.386 223.312 208.683C218.781 208.907 214.175 208.609 211.427 208.088C208.976 207.568 204.444 205.857 201.399 204.295C197.759 202.509 194.416 200.055 191.667 197.154C189.216 194.699 186.468 190.831 185.131 188.004C183.868 185.326 182.531 181.161 182.085 178.706C181.565 175.656 181.639 172.829 182.159 169.779C182.605 167.325 184.016 163.308 185.279 160.928C186.616 158.473 189.142 155.2 190.999 153.563C192.856 152.001 196.719 149.472 199.542 148.059C202.439 146.571 207.267 144.786 210.313 144.042C213.358 143.298 219.598 142.331 224.055 141.959C228.586 141.513 234.381 140.546 237.055 139.727C239.729 138.835 243.592 137.198 245.597 136.083C247.677 134.892 250.574 132.438 252.06 130.652C253.546 128.867 255.551 125.371 256.369 122.916C257.631 119.494 257.928 116.742 257.928 111.014C257.928 106.923 257.557 102.014 257.111 100.005C256.74 98.0713 255.626 94.947 254.734 93.013C253.769 91.1533 251.689 88.3267 249.98 86.9133C248.346 85.4256 245.672 83.7891 244.037 83.3428C242.477 82.8221 238.838 82.3758 235.941 82.3758C233.118 82.3758 229.478 82.8221 227.844 83.3428C226.284 83.7891 223.832 85.2025 222.347 86.3926C220.935 87.5828 219.004 89.74 218.112 91.2277C217.221 92.7155 215.735 95.9141 214.844 98.3688C213.953 100.824 212.393 103.948 211.353 105.212C210.387 106.551 208.456 108.337 207.193 109.155C205.559 110.147 203.454 110.643 200.879 110.643C198.724 110.643 195.976 110.122 194.713 109.527C193.525 108.932 191.816 107.518 190.999 106.328C190.182 105.212 189.29 103.501 189.068 102.46C188.845 101.419 189.068 99.2614 189.588 97.6249C190.108 95.9884 192.039 93.013 193.896 91.0046C195.753 89.0705 199.467 86.1695 202.141 84.533C204.816 82.9709 209.644 80.9624 212.913 80.0698C216.181 79.2516 221.529 78.2102 224.798 77.9126C228.066 77.6151 232.449 77.3175 234.455 77.2431ZM240.769 145.232C238.54 146.348 233.935 149.1 230.592 151.257C227.175 153.489 222.124 157.506 219.375 160.258C215.958 163.68 213.507 167.027 211.724 170.523C209.496 175.061 209.198 176.4 209.198 181.309C209.198 186.144 209.496 187.632 211.427 191.351C212.987 194.327 214.844 196.633 217.37 198.567C219.45 200.129 222.718 201.691 224.798 202.212C226.878 202.658 230.221 202.881 232.226 202.658C234.306 202.435 237.946 201.468 240.398 200.575C243.369 199.385 246.266 197.525 249.163 194.699C251.614 192.467 254.289 189.269 255.254 187.632C256.22 185.996 257.557 182.648 258.151 180.194C259.117 176.697 259.34 171.639 259.34 156.539C259.34 146.05 259.117 137.422 258.82 137.422C258.448 137.422 255.254 138.76 251.54 140.323C247.9 141.885 242.997 144.042 240.769 145.232ZM411.25 77.6151C415.707 77.8382 421.575 78.4333 424.25 78.954C426.924 79.5491 431.084 80.9624 433.535 82.227C435.986 83.4172 439.552 86.0951 441.409 88.0291C443.266 90.0376 445.346 92.6411 445.94 93.9056C446.609 95.1702 447.723 97.9969 448.466 100.228C449.655 103.948 449.877 108.485 450.249 147.092C450.62 187.855 450.694 190.012 452.106 192.839C452.923 194.476 454.854 197.079 456.34 198.567C457.9 200.129 461.243 202.509 468.448 206.229L451.363 206.452C442.003 206.526 426.924 206.526 401.593 206.229L407.907 203.179C412.661 200.798 415.261 198.939 418.53 195.517C421.947 191.798 422.912 190.236 423.581 187.037C424.175 184.434 424.324 171.788 424.027 147.092C423.73 117.263 423.507 110.122 422.467 105.807C421.798 102.981 420.461 98.8895 419.495 96.8811C418.53 94.7983 416.078 91.7484 414.073 89.9632C412.141 88.2523 408.873 86.2439 406.793 85.5C404.044 84.6074 400.627 84.2354 393.793 84.2354C384.805 84.2354 384.359 84.3098 379.531 86.6158C376.485 88.1035 372.92 90.6326 370.617 93.013C368.463 95.1702 365.64 98.8895 364.303 101.344C363.04 103.799 361.406 107.667 360.663 109.899C359.474 113.544 359.326 117.784 359.029 150.067C358.806 180.64 358.954 186.591 359.92 189.12C360.514 190.756 362.594 193.732 364.6 195.666C366.68 197.749 370.691 200.575 374.331 202.361C377.674 204.071 380.422 205.708 380.422 206.006C380.422 206.377 365.714 206.601 347.737 206.601C329.761 206.601 315.053 206.377 315.053 206.006C315.053 205.708 317.43 203.774 320.327 201.765C323.298 199.683 326.715 196.856 327.904 195.443C329.166 194.029 330.801 191.426 331.544 189.641C332.806 186.74 332.881 183.69 332.509 96.1372L330.875 93.013C329.909 91.2277 328.424 89.2937 327.532 88.6986C326.567 88.1035 324.041 87.2853 321.961 86.839C319.807 86.467 317.875 85.7975 317.653 85.3512C317.43 84.9049 317.355 84.4586 317.504 84.3098C317.578 84.0867 325.452 82.9709 334.961 81.7063C344.395 80.4417 353.086 79.4003 354.274 79.4003C355.537 79.4003 356.651 79.9954 357.32 81.0368C357.84 82.0039 358.509 84.6074 358.657 86.839C358.88 89.0705 359.177 91.3765 359.326 91.8972C359.548 92.4923 360.514 91.9716 362.074 90.4839C363.337 89.2193 366.457 87.0621 368.908 85.7232C371.36 84.3098 376.559 82.1526 380.422 80.8137C385.548 79.1028 389.633 78.2846 395.279 77.9126C399.587 77.5407 406.793 77.4663 411.25 77.6151ZM525.275 78.2102C537.903 78.4333 540.652 78.7309 546.818 80.293C550.68 81.3344 555.88 83.194 558.331 84.4586C560.783 85.6488 564.051 87.8804 565.611 89.3681C567.097 90.8558 568.954 93.1618 569.697 94.5007C570.811 96.6579 570.96 100.898 571.331 142.257C571.703 187.111 571.703 187.707 573.337 190.98C574.228 192.839 576.457 195.74 578.314 197.526C580.394 199.385 582.919 200.947 584.702 201.394C586.683 201.889 588.664 201.889 590.645 201.394C592.799 200.873 594.433 199.683 596.439 197.302C597.925 195.443 599.782 193.955 600.525 193.955C601.193 193.955 601.936 194.253 602.159 194.699C602.382 195.145 601.787 197.005 600.896 198.939C599.559 201.691 598.296 203.03 595.102 204.89C592.873 206.229 589.456 207.642 587.525 208.088C585.519 208.46 581.211 208.832 577.868 208.832C574.451 208.832 569.697 208.311 567.246 207.642C564.794 207.047 560.857 205.41 558.406 204.146C556.029 202.807 552.612 200.203 547.56 194.699L542.212 197.972C539.241 199.831 534.486 202.361 531.589 203.7C528.767 204.964 523.864 206.675 520.818 207.419C517.253 208.311 512.721 208.832 508.19 208.832C504.327 208.832 499.276 208.311 497.047 207.716C494.819 207.121 491.105 205.708 488.876 204.592C486.648 203.476 482.636 200.501 480.111 198.046C476.768 194.922 474.614 192.021 472.831 188.376C471.42 185.475 469.934 181.309 469.563 179.078C469.191 176.549 469.191 173.201 469.637 170.3C470.008 167.771 471.122 163.977 472.162 161.969C473.202 159.886 475.654 156.688 477.585 154.679C479.517 152.745 483.156 150.142 485.534 148.803C487.985 147.538 492.145 145.827 494.819 145.009C497.493 144.191 503.362 143.149 507.819 142.629C512.35 142.182 518.515 141.29 521.561 140.62C524.607 139.951 528.989 138.463 531.218 137.347C533.446 136.231 536.789 133.702 538.572 131.694C540.429 129.76 542.583 126.636 543.326 124.776C544.143 122.916 544.96 119.271 545.258 116.593C545.555 113.916 545.48 108.708 545.183 105.064C544.738 100.303 543.995 97.1042 542.509 93.98C541.395 91.5997 539.315 88.5498 537.903 87.2109C536.492 85.9463 533.446 84.3098 531.218 83.566C528.172 82.5246 525.721 82.227 521.561 82.5246C518.07 82.7477 514.876 83.4172 513.018 84.3842C511.384 85.2025 509.081 87.0621 507.893 88.4011C506.704 89.8144 504.773 93.0874 503.584 95.7653C502.396 98.4432 500.687 102.014 499.796 103.799C498.905 105.584 496.973 107.816 495.562 108.783C494.15 109.75 491.625 110.791 489.991 111.014C487.985 111.386 486.054 111.163 484.048 110.419C482.414 109.75 480.185 108.262 479.071 106.998C477.882 105.733 476.768 103.576 476.545 102.237C476.174 100.526 476.545 98.8151 477.808 96.2116C478.774 94.2032 481.151 91.1533 483.008 89.5169C484.865 87.806 488.653 85.2768 491.55 83.7891C494.373 82.3014 499.053 80.5161 501.876 79.921C504.773 79.2516 507.893 78.5821 508.933 78.3589C509.973 78.2102 517.327 78.1358 525.275 78.2102ZM538.275 140.323C534.635 141.885 529.435 144.265 526.761 145.604C524.087 146.943 519.778 149.398 517.104 151.109C514.43 152.819 510.121 156.241 507.447 158.77C504.773 161.225 501.579 164.87 500.242 166.878C498.905 168.887 497.345 172.011 496.676 173.871C496.008 175.73 495.488 179.375 495.488 182.053C495.488 185.921 495.933 187.781 497.716 191.5C499.35 194.848 500.984 196.856 503.436 198.567C505.293 199.906 507.893 201.394 509.156 201.914C510.493 202.361 513.39 202.807 515.618 202.807C517.847 202.881 521.858 202.212 524.532 201.394C527.207 200.575 530.995 198.641 533.075 197.154C535.081 195.591 537.978 192.616 539.538 190.608C541.098 188.525 543.029 184.731 543.846 182.053C545.258 177.664 545.332 175.433 545.183 157.357L544.96 137.496L538.275 140.323ZM808.296 78.3589C812.976 78.5821 819.216 79.1028 822.038 79.4747C824.861 79.921 829.764 81.1112 832.809 82.0782C835.855 82.9709 840.535 85.2025 843.209 86.9877C845.809 88.773 849.003 91.6741 852.495 96.6579L852.866 142.182C853.237 186.368 853.312 187.707 854.797 190.98C855.615 192.839 857.323 195.443 858.512 196.856C859.7 198.269 861.929 199.98 863.489 200.798C865.049 201.542 867.797 202.137 869.951 202.137C873.071 202.137 874.037 201.766 876.34 199.757C877.751 198.418 879.088 196.707 879.311 196.038C879.46 195.294 880.202 194.55 880.945 194.327C881.614 194.104 882.728 194.401 883.322 194.996C884.288 195.963 884.214 196.484 882.58 199.683C881.317 202.137 879.682 203.923 877.38 205.262C875.523 206.377 871.883 207.865 869.208 208.535C865.643 209.427 862.523 209.65 857.323 209.353C852.198 209.13 848.855 208.46 845.066 206.973C842.244 205.931 838.529 204.071 836.895 202.956C835.261 201.84 832.958 199.683 829.467 195.368L822.41 199.534C818.547 201.84 813.199 204.518 810.524 205.485C807.85 206.526 803.542 207.791 800.868 208.46C798.193 209.055 793.216 209.576 789.725 209.576C786.234 209.576 781.405 209.055 778.954 208.386C776.502 207.791 772.491 206.154 770.114 204.89C767.663 203.551 764.171 201.17 762.314 199.46C760.457 197.823 757.857 194.773 756.52 192.765C755.183 190.756 753.4 187.111 752.583 184.657C751.32 181.161 751.023 178.929 751.246 173.871C751.469 168.738 751.915 166.73 753.697 163.085C754.886 160.63 757.486 157.059 759.417 155.125C761.646 152.894 765.211 150.513 769.148 148.654C772.491 147.092 777.691 145.232 780.662 144.563C783.559 143.893 789.576 143.075 794.033 142.703C798.416 142.257 804.136 141.215 806.81 140.397C809.484 139.504 813.124 137.868 814.907 136.826C816.764 135.711 819.513 133.33 821.073 131.471C822.707 129.611 824.638 126.264 825.53 124.032C826.718 120.908 827.09 118.23 827.164 112.13C827.164 107.816 826.718 102.46 826.198 100.228C825.604 97.9969 824.564 94.8727 823.821 93.3849C823.004 91.8228 821.147 89.3681 819.661 87.9547C818.101 86.467 815.353 84.8305 813.496 84.2354C811.639 83.6404 807.776 83.1196 804.953 83.1196C802.13 83.1196 798.416 83.566 796.856 84.0867C795.296 84.6074 792.622 86.1695 790.988 87.5828C789.279 89.1449 787.199 92.1204 785.862 95.0214C784.674 97.6993 782.817 101.642 781.702 103.873C780.291 106.7 778.805 108.411 776.725 109.601C774.794 110.791 772.566 111.386 770.263 111.386C768.257 111.386 765.509 110.791 764.023 110.122C762.463 109.378 760.68 107.965 760.012 106.923C759.343 105.882 758.526 104.245 758.303 103.204C758.006 102.162 758.229 100.005 758.674 98.3688C759.194 96.3604 760.829 94.0544 763.651 91.3021C765.954 88.9962 770.188 85.9463 773.011 84.4586C775.834 82.9709 780.365 81.1856 783.039 80.5161C785.714 79.8467 790.542 79.0284 793.811 78.6565C797.079 78.2846 803.616 78.2102 808.296 78.3589ZM822.038 140.025C819.587 140.918 814.387 143.298 810.524 145.232C806.662 147.166 800.793 150.513 797.525 152.671C794.256 154.828 789.428 158.919 786.754 161.746C784.079 164.498 780.885 168.812 779.697 171.267C777.691 175.21 777.468 176.549 777.468 182.425C777.468 188.302 777.691 189.566 779.4 192.467C780.44 194.327 782.817 197.079 784.599 198.641C786.605 200.352 789.502 201.914 791.953 202.658C794.776 203.476 797.376 203.7 800.496 203.328C802.947 203.104 806.959 201.914 809.41 200.798C811.862 199.608 815.204 197.526 816.764 196.112C818.398 194.773 820.998 191.575 822.558 189.12C824.118 186.665 825.753 183.02 826.198 180.937C826.644 178.706 826.867 169.333 826.718 157.803L826.495 138.314L822.038 140.025Z" fill="white"/>
<path d="M744.412 68.9866V38.1164V7.24609H774.868V68.9866H744.412Z" fill="white"/>
<path d="M840.089 38.6371C840.015 21.9002 840.238 7.98995 840.609 7.76679C840.981 7.46925 847.889 7.24609 870.694 7.24609V68.9866H840.238L840.089 38.6371Z" fill="white"/>
<path d="M803.096 20.6337L805.102 16.5425C806.142 14.3109 807.405 12.4512 807.85 12.4512C808.296 12.4512 809.559 14.3109 812.753 20.6337L814.759 19.5179C815.947 18.9228 816.987 18.6253 817.21 18.7741C817.433 18.9228 817.21 21.2288 816.69 23.7579C816.17 26.3615 815.724 29.4113 815.724 32.9074L818.844 29.6344C820.701 27.8492 822.41 26.5846 822.93 26.8822C823.45 27.1053 823.896 27.9236 823.896 28.593C823.896 29.7832 824.341 29.8576 827.61 29.3369C829.987 29.0394 831.324 29.1137 831.324 29.5601C831.324 29.932 830.878 31.7916 830.358 33.6513C829.541 36.7011 829.615 37.073 830.878 37.9657C832.141 38.7839 831.695 39.3046 826.198 44.0653C821.296 48.231 820.256 49.5699 820.627 50.7601C820.85 51.5783 821.147 52.6198 821.221 52.9917C821.221 53.3636 820.33 53.7355 819.067 53.6612C817.804 53.6612 815.056 53.2892 809.039 52.2478L810.153 65.2654H806.068V52.6198L802.13 53.1405C800.051 53.438 797.451 53.6612 796.411 53.6612C795.371 53.7355 794.628 53.3636 794.628 52.9917C794.702 52.6198 794.999 51.5783 795.222 50.7601C795.668 49.5699 794.702 48.3797 790.394 44.8092C787.422 42.3545 784.6 40.1229 784.228 39.751C783.708 39.379 783.931 38.7839 784.897 38.1145C786.382 36.9987 786.382 36.9243 785.045 33.2794C784.302 30.9734 784.08 29.4113 784.525 29.1881C784.897 28.965 786.605 28.965 788.239 29.1881C790.691 29.4857 791.359 29.2625 791.954 28.0723C792.325 27.2541 793.068 26.5846 793.439 26.5846C793.811 26.5846 795.519 27.9979 797.153 29.7088C799.233 32.0148 800.125 32.5355 800.125 31.6429C800.125 30.899 799.605 27.9236 799.011 25.0969C798.416 22.1958 798.045 19.5179 798.268 19.146C798.491 18.6997 799.456 18.8485 803.096 20.6337Z" fill="white"/>
</g>
<defs>
<clipPath id="clip0_2354_16">
<rect width="884" height="212" fill="white"/>
</clipPath>
</defs>
</svg>
