<svg width="32" height="32" viewBox="0 0 32 32" fill="none" xmlns="http://www.w3.org/2000/svg">
<path d="M24.35 18H2C1.43333 18 0.958333 17.8083 0.575 17.425C0.191667 17.0417 0 16.5667 0 16C0 15.4333 0.191667 14.9583 0.575 14.575C0.958333 14.1917 1.43333 14 2 14H24.35L14.55 4.20001C14.15 3.8 13.9583 3.33334 13.975 2.80001C13.9917 2.26667 14.2 1.80001 14.6 1.40001C15 1.03334 15.4667 0.841672 16 0.825005C16.5333 0.808338 17 1.00001 17.4 1.40001L30.6 14.6C30.8 14.8 30.9417 15.0167 31.025 15.25C31.1083 15.4833 31.15 15.7333 31.15 16C31.15 16.2667 31.1083 16.5167 31.025 16.75C30.9417 16.9833 30.8 17.2 30.6 17.4L17.4 30.6C17.0333 30.9667 16.575 31.15 16.025 31.15C15.475 31.15 15 30.9667 14.6 30.6C14.2 30.2 14 29.725 14 29.175C14 28.625 14.2 28.15 14.6 27.75L24.35 18Z" fill="#1C1B1F"/>
</svg>
