<svg width="920" height="245" viewBox="0 0 920 245" fill="none" xmlns="http://www.w3.org/2000/svg">
<path d="M4.96398 77.9006H62.7588V202H4.96398V77.9006ZM72.8308 77.9006H130.626V202H72.8308V77.9006ZM151.158 119.385V202H140.698V77.9006H192.465L218.348 129.668L238.914 77.9006H295.645V202H238.914V108.925L202.747 202H187.324L151.158 119.385ZM302.677 77.9006H362.953L404.438 171.684L439.363 77.9006H465.956L506.731 169.557L540.77 77.9006H554.421L507.618 202H453.901L428.194 143.851L406.211 202H357.635L302.677 77.9006Z" fill="white"/>
<rect x="590.248" y="66.9055" width="148" height="48" rx="24" fill="black"/>
<path d="M639.72 102.726C637.971 102.726 636.36 102.448 634.888 101.894C633.437 101.318 632.168 100.518 631.08 99.4935C629.992 98.4482 629.149 97.2215 628.552 95.8135C627.955 94.4055 627.656 92.8695 627.656 91.2055C627.656 89.5415 627.955 88.0055 628.552 86.5975C629.149 85.1895 629.992 83.9735 631.08 82.9495C632.189 81.9042 633.48 81.1042 634.952 80.5495C636.424 79.9735 638.035 79.6855 639.784 79.6855C641.683 79.6855 643.389 79.9948 644.904 80.6135C646.44 81.2322 647.731 82.1389 648.776 83.3335L646.152 85.8935C645.277 85.0188 644.328 84.3788 643.304 83.9735C642.301 83.5469 641.192 83.3335 639.976 83.3335C638.803 83.3335 637.715 83.5255 636.712 83.9095C635.709 84.2935 634.845 84.8375 634.12 85.5415C633.395 86.2455 632.829 87.0775 632.424 88.0375C632.04 88.9975 631.848 90.0535 631.848 91.2055C631.848 92.3362 632.04 93.3815 632.424 94.3415C632.829 95.3015 633.395 96.1442 634.12 96.8695C634.845 97.5735 635.699 98.1175 636.68 98.5015C637.661 98.8855 638.749 99.0775 639.944 99.0775C641.053 99.0775 642.12 98.9069 643.144 98.5655C644.189 98.2029 645.181 97.6055 646.12 96.7735L648.488 99.8775C647.315 100.816 645.949 101.531 644.392 102.022C642.856 102.491 641.299 102.726 639.72 102.726ZM644.552 99.3335V90.9495H648.488V99.8775L644.552 99.3335ZM664.471 102.726C662.721 102.726 661.111 102.438 659.639 101.862C658.167 101.286 656.887 100.486 655.799 99.4615C654.711 98.4162 653.868 97.2002 653.271 95.8135C652.673 94.4055 652.375 92.8695 652.375 91.2055C652.375 89.5415 652.673 88.0162 653.271 86.6295C653.868 85.2215 654.711 84.0055 655.799 82.9815C656.887 81.9362 658.167 81.1255 659.639 80.5495C661.111 79.9735 662.711 79.6855 664.439 79.6855C666.188 79.6855 667.788 79.9735 669.239 80.5495C670.711 81.1255 671.991 81.9362 673.079 82.9815C674.167 84.0055 675.009 85.2215 675.607 86.6295C676.204 88.0162 676.503 89.5415 676.503 91.2055C676.503 92.8695 676.204 94.4055 675.607 95.8135C675.009 97.2215 674.167 98.4375 673.079 99.4615C671.991 100.486 670.711 101.286 669.239 101.862C667.788 102.438 666.199 102.726 664.471 102.726ZM664.439 99.0775C665.569 99.0775 666.615 98.8855 667.575 98.5015C668.535 98.1175 669.367 97.5735 670.071 96.8695C670.775 96.1442 671.319 95.3122 671.703 94.3735C672.108 93.4135 672.311 92.3575 672.311 91.2055C672.311 90.0535 672.108 89.0082 671.703 88.0695C671.319 87.1095 670.775 86.2775 670.071 85.5735C669.367 84.8482 668.535 84.2935 667.575 83.9095C666.615 83.5255 665.569 83.3335 664.439 83.3335C663.308 83.3335 662.263 83.5255 661.303 83.9095C660.364 84.2935 659.532 84.8482 658.807 85.5735C658.103 86.2775 657.548 87.1095 657.143 88.0695C656.759 89.0082 656.567 90.0535 656.567 91.2055C656.567 92.3362 656.759 93.3815 657.143 94.3415C657.548 95.3015 658.103 96.1442 658.807 96.8695C659.511 97.5735 660.343 98.1175 661.303 98.5015C662.263 98.8855 663.308 99.0775 664.439 99.0775ZM677.432 102.406L687.512 80.0055H691.608L701.72 102.406H697.368L688.696 82.2135H690.36L681.72 102.406H677.432ZM682.072 97.2215L683.192 93.9575H695.288L696.408 97.2215H682.072Z" fill="#EAF943"/>
<path d="M654.363 159.023C654.363 165.24 652.529 170.414 648.86 174.545C644.729 179.178 638.686 182.287 630.732 183.87C630.732 185.337 631.389 186.071 632.701 186.071C635.018 186.071 637.856 185.337 641.215 183.87C644.575 182.403 647.181 180.665 649.034 178.657C652.702 182.325 654.536 187.171 654.536 193.195C654.536 199.179 652.818 203.89 649.382 207.326H597.314C594.341 202.886 592.854 197.982 592.854 192.615C592.854 187.21 593.897 182.673 595.982 179.005C603.588 177.538 610.481 174.854 616.658 170.954C622.836 167.054 625.925 162.923 625.925 158.56C625.925 157.402 625.655 156.456 625.114 155.722C624.612 154.988 623.898 154.622 622.971 154.622C621.079 154.622 620.133 155.625 620.133 157.633C620.133 159.602 620.809 161.05 622.161 161.977C620.269 164.796 617.353 167.383 613.415 169.738C609.477 172.093 605.615 173.792 601.832 174.835C594.959 170.279 591.522 164.12 591.522 156.359C591.522 148.598 594.592 142.44 600.731 137.883C606.446 133.636 613.763 131.512 622.682 131.512C631.64 131.512 639.053 133.868 644.922 138.578C651.216 143.675 654.363 150.49 654.363 159.023ZM701.971 183.928C700.812 183.078 699.229 181.611 697.221 179.526C694.828 177.132 692.762 174.757 691.024 172.402C689.325 170.047 687.626 167.305 685.928 164.178C684.229 161.05 683.283 159.1 683.09 158.328C681.893 158.328 681.294 159.023 681.294 160.413C681.294 161.456 681.912 163.213 683.148 165.684C684.383 168.116 686.256 171.07 688.766 174.545C691.314 177.982 693.611 180.607 695.658 182.422C697.781 184.352 699.326 185.318 700.291 185.318C701.256 185.318 701.816 184.854 701.971 183.928ZM714.539 199.044C708.67 205.57 700.619 208.832 690.387 208.832C680.155 208.832 672.124 205.57 666.294 199.044C660.154 192.249 657.085 182.769 657.085 170.607C657.085 158.444 660.193 148.849 666.409 141.822C672.664 134.794 680.657 131.281 690.387 131.281C700.117 131.281 708.091 134.794 714.307 141.822C720.562 148.849 723.69 158.444 723.69 170.607C723.69 182.731 720.639 192.21 714.539 199.044ZM788.499 159.023C788.499 165.24 786.665 170.414 782.997 174.545C778.866 179.178 772.823 182.287 764.869 183.87C764.869 185.337 765.525 186.071 766.838 186.071C769.155 186.071 771.993 185.337 775.352 183.87C778.711 182.403 781.317 180.665 783.171 178.657C786.839 182.325 788.673 187.171 788.673 193.195C788.673 199.179 786.955 203.89 783.518 207.326H731.451C728.478 202.886 726.991 197.982 726.991 192.615C726.991 187.21 728.033 182.673 730.119 179.005C737.725 177.538 744.617 174.854 750.795 170.954C756.973 167.054 760.062 162.923 760.062 158.56C760.062 157.402 759.792 156.456 759.251 155.722C758.749 154.988 758.035 154.622 757.108 154.622C755.216 154.622 754.27 155.625 754.27 157.633C754.27 159.602 754.946 161.05 756.297 161.977C754.405 164.796 751.49 167.383 747.552 169.738C743.613 172.093 739.752 173.792 735.968 174.835C729.095 170.279 725.659 164.12 725.659 156.359C725.659 148.598 728.729 142.44 734.868 137.883C740.582 133.636 747.899 131.512 756.818 131.512C765.776 131.512 773.19 133.868 779.059 138.578C785.352 143.675 788.499 150.49 788.499 159.023ZM797.534 171.244C796.26 170.78 795.256 169.931 794.523 168.695C793.789 167.46 793.422 166.108 793.422 164.641C793.422 164.41 793.499 163.579 793.654 162.151C794.233 154.042 795.102 146.224 796.26 138.694C796.685 135.914 797.341 134.196 798.229 133.54C799.117 132.845 800.913 132.497 803.616 132.497H847.98C849.988 135.856 850.992 140.258 850.992 145.702C850.992 151.146 849.834 155.49 847.517 158.734C845.123 157.266 842.826 156.166 840.625 155.432C837.188 154.351 833.501 153.811 829.563 153.811H823.076L822.728 156.417H828.115C836.107 156.417 842.594 158.483 847.575 162.614C853.019 167.17 855.741 173.58 855.741 181.843C855.741 190.106 852.691 196.689 846.59 201.593C840.49 206.496 832.13 208.948 821.512 208.948C812.052 208.948 804.639 206.921 799.272 202.867C793.905 198.774 791.221 193.639 791.221 187.461C791.221 182.557 792.843 178.715 796.086 175.935C799.368 173.155 803.21 171.765 807.612 171.765C812.014 171.765 815.72 173.02 818.732 175.53C822.13 178.426 823.945 182.287 824.176 187.113C825.952 187.113 826.841 186.283 826.841 184.623C826.841 180.53 825.161 176.939 821.802 173.85C818.443 170.723 813.732 169.159 807.67 169.159C804.002 169.159 800.623 169.854 797.534 171.244Z" fill="#FF7A05"/>
</svg>
