<svg width="552" height="87" viewBox="0 0 552 87" fill="none" xmlns="http://www.w3.org/2000/svg">
<path d="M3.36 1.49999H42.48V85.5H3.36V1.49999ZM49.2975 1.49999H88.4175V85.5H49.2975V1.49999ZM102.315 29.58V85.5H95.235V1.49999H130.275L147.795 36.54L161.715 1.49999H200.115V85.5H161.715V22.5L137.235 85.5H126.795L102.315 29.58ZM204.875 1.49999H245.675L273.755 64.98L297.395 1.49999H315.395L342.995 63.54L366.035 1.49999H375.275L343.595 85.5H307.235L289.835 46.14L274.955 85.5H242.075L204.875 1.49999Z" fill="white"/>
<path d="M409.456 18.748C409.456 12.612 410.964 8.05333 413.98 5.072C415.921 3.13067 418.088 1.848 420.48 1.224C422.872 0.599999 426.009 0.287998 429.892 0.287998C433.497 0.287998 436.392 0.547998 438.576 1.068C440.795 1.55333 442.615 2.61066 444.036 4.24C445.215 5.592 446.133 7.23867 446.792 9.18C447.485 11.0867 447.884 12.9587 447.988 14.796H445.024C444.885 13.236 444.504 11.6413 443.88 10.012C443.291 8.348 442.355 6.92667 441.072 5.748C439.789 4.53467 438.16 3.928 436.184 3.928C434.347 3.928 432.821 4.74266 431.608 6.372C430.568 7.79333 429.823 9.68267 429.372 12.04C428.956 14.12 428.748 16.356 428.748 18.748C428.748 22.6653 429.233 25.9413 430.204 28.576C431.487 31.9387 433.48 33.62 436.184 33.62V19.216H452.096V37C447.104 37 441.453 37.0693 435.144 37.208L429.892 37.26C426.079 37.26 422.976 36.896 420.584 36.168C418.227 35.4053 416.199 34.1747 414.5 32.476C411.137 29.1133 409.456 24.5373 409.456 18.748ZM479.14 37.26C474.494 37.26 470.3 36.5493 466.556 35.128C462.812 33.7067 459.848 31.6093 457.664 28.836C455.514 26.028 454.44 22.6653 454.44 18.748C454.44 14.8653 455.532 11.5373 457.716 8.764C459.9 5.99067 462.846 3.89333 466.556 2.472C470.3 1.016 474.494 0.287998 479.14 0.287998C483.75 0.287998 487.91 1.016 491.62 2.472C495.364 3.89333 498.31 5.99067 500.46 8.764C502.644 11.5373 503.736 14.8653 503.736 18.748C503.736 22.6653 502.644 26.028 500.46 28.836C498.31 31.6093 495.364 33.7067 491.62 35.128C487.91 36.5493 483.75 37.26 479.14 37.26ZM479.14 34.192C480.596 34.192 481.67 33.5333 482.364 32.216C482.953 31.2107 483.352 29.4253 483.56 26.86C483.664 25.508 483.716 22.804 483.716 18.748C483.716 14.6573 483.629 11.7627 483.456 10.064C483.352 7.984 482.97 6.40667 482.312 5.332C481.618 4.01467 480.561 3.356 479.14 3.356C477.684 3.356 476.592 4.01467 475.864 5.332C475.274 6.372 474.893 7.94933 474.72 10.064C474.581 11.8667 474.512 14.7613 474.512 18.748C474.512 23.2547 474.564 25.9587 474.668 26.86C474.806 29.252 475.188 31.0373 475.812 32.216C476.54 33.5333 477.649 34.192 479.14 34.192ZM515.797 0.599998H530.981L547.101 37H527.445L521.985 24.936H510.545L505.865 37H502.069L515.797 0.599998ZM520.529 21.764L515.797 11.208L511.689 21.764H520.529Z" fill="#FE6F00"/>
<path d="M409.456 86L420.844 68.84C424.761 63.12 426.72 59.1507 426.72 56.932C426.72 55.788 426.356 54.8867 425.628 54.228C424.9 53.5347 423.912 53.188 422.664 53.188C420.965 53.188 419.492 53.656 418.244 54.592C416.996 55.528 416.008 56.6547 415.28 57.972C414.587 59.2893 414.153 60.52 413.98 61.664H410.808C411.467 57.8507 413.165 54.8347 415.904 52.616C418.677 50.3973 422.369 49.288 426.98 49.288C429.441 49.288 431.781 49.704 434 50.536C436.219 51.368 438.004 52.6507 439.356 54.384C440.743 56.0827 441.436 58.18 441.436 60.676C441.436 61.7853 441.315 62.8773 441.072 63.952C440.829 64.9227 440.413 66.0147 439.824 67.228C439.235 68.4413 438.611 69.568 437.952 70.608L429.944 82.88H443.1V86H409.456ZM462.226 49.288C465.866 49.288 469.038 50.068 471.742 51.628C474.481 53.188 476.578 55.372 478.034 58.18C479.49 60.9533 480.218 64.1427 480.218 67.748C480.218 71.388 479.49 74.612 478.034 77.42C476.578 80.1933 474.481 82.36 471.742 83.92C469.038 85.48 465.866 86.26 462.226 86.26C458.586 86.26 455.397 85.48 452.658 83.92C449.954 82.36 447.857 80.1933 446.366 77.42C444.91 74.612 444.182 71.388 444.182 67.748C444.182 64.1427 444.91 60.9533 446.366 58.18C447.857 55.372 449.954 53.188 452.658 51.628C455.397 50.068 458.586 49.288 462.226 49.288ZM458.95 54.332C458.361 55.372 457.979 56.9493 457.806 59.064C457.667 60.3813 457.598 63.1373 457.598 67.332L466.386 57.14C466.178 55.996 465.866 55.06 465.45 54.332C464.757 53.0147 463.682 52.356 462.226 52.356C460.77 52.356 459.678 53.0147 458.95 54.332ZM465.45 81.216C466.039 80.176 466.421 78.5987 466.594 76.484C466.767 74.82 466.854 72.0987 466.854 68.32L458.066 78.564C458.274 79.7427 458.569 80.6267 458.95 81.216C459.678 82.5333 460.77 83.192 462.226 83.192C463.682 83.192 464.757 82.5333 465.45 81.216ZM480.905 86L492.293 68.84C496.211 63.12 498.169 59.1507 498.169 56.932C498.169 55.788 497.805 54.8867 497.077 54.228C496.349 53.5347 495.361 53.188 494.113 53.188C492.415 53.188 490.941 53.656 489.693 54.592C488.445 55.528 487.457 56.6547 486.729 57.972C486.036 59.2893 485.603 60.52 485.429 61.664H482.257C482.916 57.8507 484.615 54.8347 487.353 52.616C490.127 50.3973 493.819 49.288 498.429 49.288C500.891 49.288 503.231 49.704 505.449 50.536C507.668 51.368 509.453 52.6507 510.805 54.384C512.192 56.0827 512.885 58.18 512.885 60.676C512.885 61.7853 512.764 62.8773 512.521 63.952C512.279 64.9227 511.863 66.0147 511.273 67.228C510.684 68.4413 510.06 69.568 509.401 70.608L501.393 82.88H514.549V86H480.905ZM532.514 86.26C528.666 86.26 525.408 85.6533 522.738 84.44C520.069 83.2267 518.024 81.5627 516.602 79.448C515.181 77.2987 514.366 74.8547 514.158 72.116H517.33C517.608 74.3 518.301 76.1547 519.41 77.68C520.52 79.1707 521.889 80.2973 523.518 81.06C525.148 81.8227 526.881 82.204 528.718 82.204C531.076 82.204 532.93 81.58 534.282 80.332C535.634 79.084 536.31 77.5067 536.31 75.6C536.31 73.2773 535.496 71.5267 533.866 70.348C532.237 69.1693 530.33 68.424 528.146 68.112C525.962 67.7653 523.154 67.5227 519.722 67.384L516.498 67.228L518.942 49.6H546.502V52.668H533.19L532.514 58.596C538.304 58.7693 542.741 59.9827 545.826 62.236C548.946 64.4547 550.506 67.6613 550.506 71.856C550.506 74.6293 549.796 77.108 548.374 79.292C546.953 81.476 544.873 83.192 542.134 84.44C539.43 85.6533 536.224 86.26 532.514 86.26Z" fill="white"/>
</svg>
