<svg width="400" height="250" viewBox="0 0 400 250" fill="none" xmlns="http://www.w3.org/2000/svg">
<mask id="mask0_2360_12181" style="mask-type:luminance" maskUnits="userSpaceOnUse" x="10" y="55" width="88" height="111">
<path d="M10.7817 55.441H97.0446V165.773H10.7817V55.441Z" fill="white"/>
</mask>
<g mask="url(#mask0_2360_12181)">
<path d="M73.6712 55.7589H76.4633L96.7411 69.569V72.3611L33.8531 165.663H31.061L10.7832 151.854V149.062L73.6712 55.7589Z" fill="#57AEFF"/>
</g>
<path d="M116.717 55.7589H119.496L139.774 69.569V72.3611L76.9029 165.663H74.1108L53.833 151.854V149.062L116.717 55.7589Z" fill="#57AEFF"/>
<path d="M264.818 69.5733V72.3654L201.936 165.663H199.164L178.886 151.854V149.062L223.554 82.7964V72.805L160.939 165.663H158.147L137.874 151.854V149.062L182.537 82.7964V72.805L119.948 165.663H117.156L96.8784 151.854V149.062L159.765 55.7589H162.559L182.686 69.423H191.503L200.762 55.7603H203.554L223.683 69.423H232.5L241.757 55.7603H244.549L264.818 69.5733Z" fill="#57AEFF"/>
<mask id="mask1_2360_12181" style="mask-type:luminance" maskUnits="userSpaceOnUse" x="221" y="55" width="169" height="111">
<path d="M221.306 55.441H389.338V165.773H221.306V55.441Z" fill="white"/>
</mask>
<g mask="url(#mask1_2360_12181)">
<path d="M389.411 69.5733V72.3654L326.548 165.663H323.755L303.627 151.999H294.789L285.532 165.663H282.739L262.611 151.999H253.794L244.536 165.663H241.744L221.47 151.854V149.062L284.354 55.7632H287.129L307.407 69.5733V72.3654L262.756 138.63V148.623L325.345 55.7632H328.137L348.415 69.5733V72.3654L303.747 138.63V148.623L366.336 55.7632H369.129L389.411 69.5733Z" fill="#57AEFF"/>
</g>
<path d="M88.0939 23.909C88.061 23.8846 88.0066 23.909 88.0309 23.9548C89.1148 25.2621 94.6002 30.809 88.6495 36.6595L80.9905 43.813C80.9905 43.813 74.7205 49.4989 81.5962 53.5109L98.8943 65.2692C98.8943 65.2692 98.5335 63.1959 100.429 61.2744L111.953 48.614C111.953 48.614 116.583 44.1252 111.422 40.1246L88.0939 23.909Z" fill="#57AEFF"/>
<path d="M131.114 23.7887C131.081 23.7643 131.027 23.7887 131.052 23.8345C132.135 25.1418 137.62 30.6887 131.671 36.5393L124.011 43.6971C124.011 43.6971 117.741 49.3815 124.616 53.3949L141.903 65.1532C141.903 65.1532 141.542 63.0785 143.438 61.1584L154.961 48.498C154.961 48.498 159.592 44.0092 154.43 40.0086L131.114 23.7887Z" fill="#57AEFF"/>
<path d="M233.7 173.902L238.904 174.579L221.235 198.989L216.029 198.312L233.7 173.902Z" fill="white"/>
<path d="M246.604 193.713L254.552 187.198C255.302 186.582 255.939 186.028 256.462 185.536C256.93 185.106 257.357 184.639 257.742 184.135C258.045 183.739 258.285 183.306 258.461 182.839C258.614 182.391 258.687 181.93 258.681 181.456C258.713 181.022 258.651 180.603 258.496 180.196C258.34 179.791 258.106 179.437 257.792 179.137C257.468 178.866 257.106 178.661 256.707 178.527C256.306 178.391 255.895 178.332 255.474 178.352C255.03 178.345 254.596 178.408 254.174 178.542C253.75 178.677 253.359 178.875 253.001 179.137C252.099 179.844 251.297 180.652 250.595 181.559L246.911 178.593C247.46 177.848 248.057 177.142 248.701 176.478C249.285 175.879 249.933 175.361 250.646 174.924C251.366 174.492 252.133 174.174 252.947 173.969C253.892 173.74 254.851 173.631 255.822 173.644C256.972 173.633 258.093 173.809 259.184 174.172C260.146 174.495 261.011 174.989 261.775 175.656C262.5 176.306 263.054 177.079 263.438 177.974C263.852 178.945 264.051 179.957 264.036 181.011V181.078C264.051 181.992 263.92 182.885 263.645 183.757C263.372 184.562 262.98 185.305 262.47 185.985C261.891 186.748 261.237 187.44 260.508 188.061C259.713 188.754 258.793 189.51 257.746 190.331L253.857 193.335H264.264V197.871H246.608V193.717L246.604 193.713Z" fill="white"/>
<path d="M278.257 198.286C276.735 198.308 275.285 197.994 273.907 197.348C272.61 196.727 271.502 195.862 270.584 194.755C269.623 193.59 268.913 192.288 268.452 190.849C267.937 189.275 267.686 187.66 267.7 186.005V185.935C267.686 184.277 267.942 182.662 268.469 181.09C268.946 179.648 269.668 178.341 270.633 177.168C271.565 176.051 272.685 175.176 273.995 174.542C274.492 174.301 275.006 174.104 275.535 173.949C276.067 173.793 276.605 173.683 277.153 173.617C277.702 173.551 278.253 173.531 278.804 173.557C279.355 173.582 279.902 173.653 280.442 173.769C280.982 173.885 281.509 174.044 282.023 174.247C282.537 174.45 283.03 174.694 283.504 174.979C283.976 175.263 284.423 175.586 284.842 175.945C285.263 176.304 285.65 176.695 286.005 177.118C286.966 178.286 287.682 179.588 288.153 181.024C288.678 182.596 288.935 184.211 288.922 185.868V185.935C288.935 187.592 288.678 189.207 288.153 190.779C287.676 192.221 286.956 193.53 285.989 194.701C285.057 195.818 283.937 196.694 282.627 197.327C281.247 197.991 279.789 198.31 278.257 198.286ZM278.327 193.508C279.095 193.521 279.811 193.333 280.475 192.948C281.14 192.552 281.685 192.03 282.112 191.386C282.597 190.656 282.945 189.867 283.16 189.018C283.408 188.03 283.526 187.028 283.516 186.009V185.942C283.526 184.926 283.402 183.923 283.143 182.94C282.922 182.079 282.563 181.282 282.067 180.546C281.632 179.89 281.078 179.357 280.405 178.95C279.749 178.558 279.038 178.366 278.273 178.373C277.506 178.362 276.79 178.548 276.125 178.933C275.464 179.328 274.924 179.85 274.506 180.495C274.03 181.231 273.684 182.025 273.466 182.872C273.209 183.859 273.084 184.861 273.093 185.881V185.946C273.084 186.972 273.209 187.98 273.466 188.972C273.683 189.83 274.036 190.629 274.526 191.365C274.964 192.015 275.517 192.54 276.188 192.944C276.85 193.33 277.566 193.518 278.332 193.508H278.327Z" fill="white"/>
<path d="M291.738 193.713L299.686 187.198C300.437 186.582 301.074 186.028 301.598 185.536C302.065 185.106 302.491 184.639 302.878 184.135C303.182 183.74 303.422 183.308 303.597 182.839C303.75 182.391 303.823 181.93 303.816 181.456C303.849 181.022 303.787 180.603 303.631 180.196C303.477 179.791 303.242 179.437 302.927 179.137C302.605 178.866 302.242 178.661 301.843 178.527C301.442 178.391 301.031 178.332 300.609 178.352C300.165 178.345 299.732 178.408 299.308 178.542C298.886 178.677 298.495 178.875 298.137 179.137C297.234 179.844 296.432 180.651 295.732 181.559L292.046 178.593C292.596 177.848 293.192 177.142 293.837 176.478C294.42 175.879 295.069 175.361 295.782 174.924C296.501 174.492 297.268 174.174 298.083 173.969C299.025 173.74 299.98 173.633 300.949 173.644C302.099 173.633 303.22 173.809 304.311 174.172C305.274 174.495 306.138 174.989 306.903 175.656C307.627 176.306 308.182 177.079 308.565 177.974C308.979 178.945 309.178 179.957 309.164 181.011V181.078C309.178 181.992 309.048 182.885 308.773 183.757C308.504 184.559 308.117 185.298 307.613 185.977C307.035 186.74 306.382 187.431 305.653 188.054C304.858 188.746 303.936 189.502 302.889 190.322L299.031 193.339H309.417V197.875H291.743V193.72L291.738 193.713Z" fill="white"/>
<path d="M321.386 198.286C319.636 198.326 317.952 198.007 316.339 197.331C314.887 196.685 313.591 195.81 312.45 194.705L315.624 190.921C316.447 191.68 317.358 192.317 318.353 192.831C319.288 193.295 320.276 193.521 321.32 193.512C321.838 193.541 322.348 193.481 322.846 193.335C323.345 193.189 323.806 192.964 324.228 192.662C324.593 192.363 324.871 191.996 325.061 191.564C325.25 191.13 325.332 190.677 325.303 190.206V190.139C325.313 189.907 325.295 189.676 325.246 189.449C325.197 189.221 325.123 189.003 325.02 188.794C324.917 188.587 324.791 188.393 324.639 188.217C324.489 188.04 324.318 187.884 324.128 187.751C323.677 187.448 323.191 187.225 322.669 187.08C322.148 186.934 321.615 186.874 321.074 186.899C320.353 186.896 319.643 186.98 318.943 187.152C318.306 187.312 317.685 187.523 317.082 187.784L314.049 185.773L314.731 174.002H329.426V178.605H319.238L318.963 182.735C319.441 182.619 319.92 182.523 320.396 182.444C320.962 182.358 321.529 182.318 322.1 182.324C323.21 182.317 324.298 182.466 325.366 182.769C326.347 183.046 327.238 183.499 328.037 184.131C328.833 184.774 329.434 185.566 329.841 186.503C330.306 187.61 330.524 188.764 330.492 189.964V190.032C330.512 191.219 330.296 192.361 329.841 193.459C329.418 194.457 328.807 195.322 328.004 196.051C327.16 196.807 326.201 197.361 325.124 197.713C323.91 198.113 322.664 198.303 321.386 198.286Z" fill="white"/>
<path d="M172.556 18.0226H175.16V29.864H172.556V18.0226Z" fill="white"/>
<path d="M177.953 18.0226H180.354L185.905 25.3193V18.0226H188.477V29.864H186.262L180.529 22.3353V29.864H177.957V18.0226H177.953Z" fill="white"/>
<path d="M191.148 18.0226H195.768C196.645 18.0126 197.494 18.1629 198.315 18.4722C199.062 18.7557 199.729 19.171 200.314 19.7179C200.876 20.2506 201.307 20.8734 201.605 21.5879C201.916 22.3325 202.069 23.1085 202.062 23.9147V23.9476C202.068 24.7566 201.916 25.5355 201.605 26.2829C201.307 27.0003 200.876 27.626 200.314 28.1615C199.729 28.7085 199.064 29.1237 198.315 29.4072C197.494 29.7222 196.645 29.874 195.768 29.864H191.148V18.0226ZM193.753 20.3909V27.4957H195.763C196.264 27.5029 196.748 27.4184 197.218 27.2423C197.645 27.0819 198.02 26.8414 198.343 26.5192C198.66 26.1985 198.902 25.829 199.071 25.4109C199.253 24.9499 199.34 24.4717 199.333 23.9777V23.9433C199.337 23.4507 199.25 22.9739 199.071 22.5143C198.905 22.0905 198.663 21.7154 198.343 21.3889C198.02 21.0653 197.645 20.8204 197.218 20.6572C196.75 20.4768 196.266 20.3895 195.763 20.3952H193.753V20.3909Z" fill="white"/>
<path d="M204.326 18.0226H206.932V29.864H204.326V18.0226Z" fill="white"/>
<path d="M213.782 17.9396H216.184L221.26 29.8898H218.54L217.454 27.2337H212.47L211.369 29.8898H208.71L213.782 17.9396ZM216.524 24.9113L214.95 21.0725L213.375 24.9041L216.524 24.9113Z" fill="white"/>
<path d="M227.945 18.0226H230.55V29.864H227.945V18.0226Z" fill="white"/>
<path d="M233.342 18.0226H235.743L241.281 25.3193V18.0226H243.853V29.864H241.638L235.905 22.3353V29.864H233.346V18.0226H233.342Z" fill="white"/>
<path d="M249.291 20.4296H245.688V18.0269H255.502V20.4296H251.9V29.8897H249.295V20.4296H249.291Z" fill="white"/>
<path d="M257.331 18.0226H266.246V20.3336H259.903V22.7348H265.482V25.053H259.898V27.5458H266.326V29.8897H257.327V18.0226H257.331Z" fill="white"/>
<path d="M268.494 18.0226H273.894C275.394 18.0226 276.543 18.4235 277.347 19.2239C277.695 19.5862 277.957 20.0029 278.133 20.4739C278.309 20.945 278.385 21.4304 278.36 21.933V21.9659C278.38 22.3854 278.329 22.795 278.209 23.1973C278.088 23.5996 277.905 23.9705 277.659 24.3098C277.175 24.9298 276.562 25.3723 275.823 25.6386L278.731 29.8683H275.681L273.143 26.0796H271.095V29.8897H268.489V18.0226H268.494ZM273.741 23.7772C274.291 23.8159 274.785 23.6641 275.22 23.3247C275.394 23.1715 275.524 22.9882 275.614 22.7763C275.704 22.5644 275.744 22.3425 275.736 22.112V22.0776C275.749 21.8399 275.709 21.6108 275.613 21.3917C275.518 21.1712 275.379 20.9851 275.195 20.8319C274.742 20.5197 274.241 20.3823 273.691 20.4167H271.102V23.7987L273.741 23.7772Z" fill="white"/>
<path d="M280.559 18.0226H282.96L288.511 25.3193V18.0226H291.083V29.864H288.868L283.134 22.3353V29.864H280.563V18.0226H280.559Z" fill="white"/>
<path d="M297.814 17.9396H300.215L305.291 29.8898H302.57L301.486 27.2337H296.501L295.395 29.8898H292.741L297.814 17.9396ZM300.556 24.9113L298.981 21.0725L297.406 24.9041L300.556 24.9113Z" fill="white"/>
<path d="M309.708 20.4296H306.092V18.0269H315.906V20.4296H312.325V29.8897H309.719V20.4296H309.708Z" fill="white"/>
<path d="M317.859 18.0226H320.464V29.864H317.859V18.0226Z" fill="white"/>
<path d="M329.009 30.0716C328.137 30.0816 327.296 29.9198 326.488 29.5905C325.742 29.2855 325.08 28.8517 324.502 28.2904C323.937 27.7348 323.504 27.0934 323.201 26.3617C322.885 25.6014 322.729 24.8096 322.736 23.9848V23.9519C322.73 23.1286 322.888 22.3382 323.21 21.5794C323.525 20.8362 323.97 20.1819 324.546 19.6149C325.122 19.0493 325.784 18.6154 326.533 18.3147C327.345 17.9926 328.187 17.8322 329.059 17.8322C329.933 17.8322 330.774 17.9926 331.585 18.3147C332.334 18.6197 332.997 19.055 333.575 19.6192C334.139 20.1733 334.573 20.8162 334.875 21.5464C335.193 22.3067 335.348 23.0985 335.341 23.9233V23.9562C335.348 24.781 335.189 25.5728 334.868 26.3331C334.553 27.0762 334.108 27.7306 333.532 28.2961C332.957 28.8617 332.294 29.2941 331.543 29.5948C330.731 29.9227 329.887 30.0816 329.009 30.0716ZM329.043 27.6661C329.542 27.6718 330.021 27.5759 330.481 27.3798C330.912 27.195 331.287 26.9302 331.606 26.5865C331.923 26.24 332.165 25.8491 332.334 25.411C332.511 24.9513 332.599 24.4745 332.594 23.9806V23.9476C332.597 23.4522 332.51 22.9725 332.334 22.51C332.165 22.0662 331.917 21.671 331.591 21.3273C331.263 20.9823 330.882 20.7145 330.447 20.5241C329.986 20.3322 329.506 20.2348 329.006 20.2348C328.505 20.2348 328.025 20.3322 327.564 20.5241C327.136 20.7102 326.762 20.9751 326.446 21.3173C326.13 21.6638 325.888 22.0562 325.719 22.4943C325.541 22.9539 325.454 23.4307 325.458 23.9233V23.9562C325.454 24.4516 325.541 24.9313 325.719 25.3938C325.888 25.8362 326.134 26.23 326.46 26.5751C326.785 26.9187 327.165 27.1865 327.597 27.3798C328.058 27.5816 328.539 27.6776 329.043 27.6661Z" fill="white"/>
<path d="M337.468 18.0226H339.869L345.421 25.3193V18.0226H347.992V29.864H345.777L340.044 22.3353V29.864H337.473V18.0226H337.468Z" fill="white"/>
<path d="M354.722 17.9396H357.124L362.201 29.8898H359.479L358.395 27.2337H353.409L352.304 29.8898H349.649L354.722 17.9396ZM357.464 24.9113L355.891 21.0725L354.316 24.9041L357.464 24.9113Z" fill="white"/>
<path d="M363.842 18.0226H366.446V27.4957H372.351V29.864H363.842V18.0226Z" fill="white"/>
<path d="M216.279 34.8754H219.084L222.191 39.8611L225.299 34.8754H228.103V46.7168H225.531V38.9634L222.208 44.0192H222.141L218.846 39.0292V46.7125H216.274V34.8754H216.279Z" fill="white"/>
<path d="M235.735 46.8872C234.145 46.8872 232.9 46.4462 231.996 45.5656C231.093 44.685 230.636 43.3706 230.625 41.6223V34.8754H233.23V41.5765C233.2 41.9717 233.243 42.3583 233.361 42.7363C233.478 43.1143 233.66 43.4579 233.908 43.7658C234.153 44.0192 234.439 44.2096 234.767 44.3385C235.093 44.4674 235.434 44.5218 235.785 44.5017C236.134 44.5203 236.472 44.4674 236.799 44.3442C237.125 44.2197 237.414 44.0364 237.663 43.7915C237.91 43.4937 238.092 43.1601 238.209 42.7921C238.326 42.4227 238.369 42.0461 238.341 41.6595V34.8754H240.945V41.5221C240.962 42.3282 240.841 43.1114 240.58 43.8746C240.358 44.506 240.012 45.0602 239.541 45.5355C239.071 45.9951 238.524 46.3273 237.9 46.5335C237.198 46.7741 236.476 46.8929 235.735 46.8872Z" fill="white"/>
<path d="M247.626 46.87C246.714 46.87 245.829 46.7154 244.97 46.4047C244.085 46.0868 243.296 45.61 242.603 44.9757L244.144 43.13C244.652 43.5524 245.206 43.9004 245.806 44.1781C246.4 44.443 247.023 44.5733 247.675 44.5676C248.12 44.5905 248.535 44.4917 248.922 44.2726C249.066 44.1853 249.178 44.0679 249.258 43.919C249.338 43.7701 249.376 43.6111 249.37 43.4422V43.4092C249.374 43.2517 249.344 43.1028 249.278 42.9596C249.194 42.805 249.075 42.6847 248.922 42.5988C248.691 42.4599 248.449 42.3482 248.194 42.2623C247.884 42.1506 247.48 42.0289 246.986 41.9044C246.435 41.7726 245.893 41.6094 245.361 41.4147C244.91 41.2586 244.494 41.0352 244.115 40.746C243.773 40.4797 243.512 40.1504 243.329 39.7566C243.127 39.287 243.034 38.7973 243.051 38.2861V38.2532C243.04 37.7578 243.136 37.2824 243.338 36.8299C243.538 36.3775 243.827 35.988 244.202 35.6644C244.589 35.3351 245.024 35.0931 245.507 34.937C246.047 34.7623 246.601 34.6779 247.168 34.6836C247.99 34.6736 248.787 34.8039 249.562 35.0745C250.293 35.3336 250.962 35.7073 251.568 36.1927L250.213 38.1529C249.724 37.815 249.204 37.5301 248.655 37.2967C248.169 37.0919 247.66 36.9889 247.131 36.986C246.717 36.9559 246.336 37.0547 245.988 37.2809C245.869 37.3654 245.776 37.4728 245.709 37.6017C245.641 37.732 245.607 37.8694 245.607 38.0155V38.0498C245.603 38.2245 245.639 38.3906 245.714 38.5481C245.815 38.7157 245.954 38.8417 246.13 38.9261C246.379 39.0636 246.641 39.1695 246.916 39.2454C247.248 39.3457 247.667 39.4659 248.161 39.5991C248.707 39.7394 249.24 39.917 249.761 40.1303C250.192 40.3064 250.587 40.5441 250.945 40.8419C251.261 41.1111 251.503 41.4347 251.672 41.8142C251.847 42.2423 251.929 42.689 251.917 43.1515V43.1844C251.926 43.73 251.82 44.2526 251.598 44.7509C251.389 45.2033 251.092 45.5871 250.709 45.9021C250.301 46.2285 249.847 46.4648 249.346 46.6123C248.786 46.7855 248.212 46.8714 247.626 46.87Z" fill="white"/>
<path d="M254.189 34.8754H256.794V46.7168H254.189V34.8754Z" fill="white"/>
<path d="M265.137 46.9244C264.298 46.9316 263.492 46.7741 262.719 46.4505C261.996 46.1383 261.359 45.7016 260.808 45.1375C260.256 44.5762 259.834 43.9304 259.54 43.2016C259.231 42.437 259.079 41.6409 259.084 40.8162V40.7832C259.078 39.9599 259.231 39.1681 259.54 38.4064C259.837 37.6761 260.259 37.0275 260.808 36.4619C261.367 35.8921 262.016 35.4511 262.752 35.1403C263.551 34.811 264.381 34.6507 265.245 34.6592C265.753 34.655 266.257 34.7008 266.757 34.7967C267.185 34.8783 267.602 35.0029 268.004 35.1704C268.368 35.3236 268.711 35.5141 269.034 35.7432C269.349 35.9665 269.642 36.2142 269.916 36.4877L268.253 38.3978C267.826 38.0069 267.355 37.6804 266.84 37.4184C266.33 37.1721 265.79 37.0519 265.225 37.0605C264.751 37.0519 264.296 37.1421 263.862 37.3311C263.426 37.5201 263.05 37.7893 262.732 38.1401C262.42 38.488 262.184 38.8789 262.022 39.317C261.849 39.7767 261.764 40.2535 261.768 40.746V40.7789C261.764 41.2744 261.849 41.7526 262.022 42.2165C262.181 42.6547 262.416 43.0499 262.723 43.4007C263.038 43.7558 263.415 44.0292 263.85 44.2211C264.286 44.413 264.741 44.5046 265.216 44.4974C265.819 44.5161 266.392 44.3915 266.932 44.1237C267.441 43.846 267.907 43.508 268.328 43.11L269.99 44.7724C269.696 45.0888 269.38 45.3838 269.042 45.6529C268.346 46.2042 267.562 46.5693 266.691 46.7454C266.178 46.8571 265.662 46.9173 265.137 46.9244Z" fill="white"/>
<path d="M275.811 34.8755H278.603L281.054 42.8938L283.709 34.8425H285.944L288.598 42.8938L291.05 34.8755H293.774L289.732 46.8027H287.464L284.793 39.0292L282.121 46.7784H279.853L275.811 34.8755Z" fill="white"/>
<path d="M295.535 34.8754H304.451V37.1936H298.108V39.5948H303.691V41.913H298.108V44.4058H304.534V46.724H295.535V34.8754Z" fill="white"/>
<path d="M306.704 34.8754H315.62V37.1936H309.275V39.5948H314.859V41.913H309.275V44.4058H315.703V46.724H306.704V34.8754Z" fill="white"/>
<path d="M317.867 34.8754H320.473V40.0516L325.275 34.8754H328.424L323.601 39.8611L328.64 46.6781H325.511L321.839 41.6395L320.468 43.0599V46.6781H317.862V34.8754H317.867Z" fill="white"/>
<path d="M35.2083 199.025H30.7238V193.676H20.4546V189.38L30.8211 175.285H35.2083V189.661H38.2266V193.676H35.2083V199.025ZM30.7238 181.007L24.6241 189.661H30.7238V181.007Z" fill="white"/>
<path d="M53.4641 190.715H43.6646V187.141H53.4641V190.715Z" fill="white"/>
<path d="M68.3994 199.46C65.5128 199.46 63.2963 198.445 61.7499 196.413C60.2064 194.379 59.436 191.505 59.436 187.794C59.436 185.095 59.7825 182.781 60.4784 180.852C61.1729 178.925 62.1938 177.443 63.5426 176.408C64.8899 175.369 66.5494 174.85 68.5197 174.85C70.845 174.85 72.7021 175.488 74.0924 176.763C75.4813 178.038 76.3103 179.755 76.5781 181.912H72.5689C72.0678 179.774 70.719 178.704 68.5197 178.704C66.7356 178.704 65.4698 179.354 64.7224 180.652C63.9778 181.946 63.6056 183.693 63.6056 185.892C64.3916 184.835 65.2622 184.14 66.2172 183.807C67.1709 183.475 68.0844 183.309 68.9549 183.309C70.4469 183.309 71.7699 183.627 72.924 184.26C74.0766 184.894 74.9744 185.792 75.6159 186.952C76.2573 188.113 76.5781 189.493 76.5781 191.093C76.5781 192.731 76.2301 194.184 75.5357 195.451C74.8398 196.715 73.8762 197.701 72.6434 198.406C71.4091 199.108 69.9945 199.46 68.3994 199.46ZM68.3364 195.634C69.5577 195.634 70.4899 195.205 71.1313 194.346C71.7757 193.484 72.0993 192.418 72.0993 191.15C72.0993 189.867 71.7728 188.827 71.1199 188.028C70.467 187.227 69.5391 186.826 68.3364 186.826C67.0678 186.826 66.0597 187.227 65.3123 188.028C64.5678 188.827 64.1955 189.867 64.1955 191.15C64.1955 192.46 64.5678 193.535 65.3123 194.374C66.0597 195.215 67.0678 195.634 68.3364 195.634Z" fill="white"/>
<path d="M94.3161 199.025H89.8315V175.285H105.673V179.294H94.3161V185.148H104.488V189.128H94.3161V199.025Z" fill="white"/>
<path d="M114.162 199.369C112.377 199.369 110.817 198.979 109.477 198.2C108.139 197.421 107.103 196.359 106.367 195.01C105.629 193.663 105.261 192.128 105.261 190.405C105.261 189.264 105.436 188.143 105.788 187.043C106.143 185.944 106.683 184.956 107.409 184.077C108.134 183.195 109.047 182.494 110.147 181.975C111.246 181.456 112.544 181.196 114.041 181.196C115.16 181.196 116.242 181.373 117.289 181.728C118.338 182.081 119.278 182.625 120.107 183.361C120.934 184.094 121.593 185.032 122.083 186.173C122.571 187.315 122.816 188.674 122.816 190.251V191.15H109.62C109.661 191.525 109.743 191.893 109.866 192.255C109.992 192.619 110.127 192.935 110.273 193.206C110.688 194.016 111.243 194.644 111.939 195.09C112.634 195.537 113.426 195.76 114.316 195.76C115.313 195.76 116.146 195.501 116.819 194.981C117.495 194.463 117.967 193.85 118.239 193.143H122.535C122.203 194.266 121.673 195.299 120.949 196.241C120.223 197.185 119.299 197.942 118.176 198.515C117.057 199.084 115.719 199.369 114.162 199.369ZM109.809 188.011H118.52C118.497 187.782 118.44 187.523 118.348 187.232C118.257 186.943 118.096 186.662 117.867 186.39C117.473 185.769 116.948 185.302 116.292 184.993C115.639 184.681 114.929 184.523 114.162 184.523C113.394 184.523 112.693 184.681 112.06 184.993C111.43 185.302 110.906 185.769 110.49 186.39C110.261 186.662 110.101 186.943 110.009 187.232C109.918 187.523 109.85 187.782 109.809 188.011Z" fill="white"/>
<path d="M132.641 199.369C131.625 199.369 130.723 199.187 129.932 198.825C129.145 198.462 128.399 197.792 127.693 196.814V199.025H123.495V175.285H127.693V183.779C128.399 182.782 129.145 182.103 129.932 181.74C130.723 181.378 131.625 181.196 132.641 181.196C134.176 181.196 135.518 181.579 136.668 182.347C137.82 183.114 138.718 184.184 139.359 185.554C140.004 186.922 140.327 188.497 140.327 190.279C140.327 192.066 140.004 193.646 139.359 195.016C138.718 196.383 137.82 197.45 136.668 198.217C135.518 198.985 134.176 199.369 132.641 199.369ZM131.679 195.76C133.026 195.76 134.099 195.242 134.898 194.203C135.695 193.164 136.095 191.857 136.095 190.279C136.095 188.684 135.695 187.373 134.898 186.345C134.099 185.318 133.026 184.804 131.679 184.804C130.35 184.804 129.265 185.314 128.426 186.333C127.585 187.35 127.166 188.664 127.166 190.279C127.166 191.899 127.585 193.217 128.426 194.237C129.265 195.254 130.35 195.76 131.679 195.76Z" fill="white"/>
<path d="M145.241 199.025H141.037V181.568H145.241V183.653C145.905 182.741 146.645 182.103 147.463 181.74C148.283 181.377 149.201 181.196 150.218 181.196H150.716V185.239H149.754C149.046 185.239 148.439 185.334 147.932 185.52C147.424 185.707 146.993 185.967 146.638 186.299C146.183 186.754 145.836 187.35 145.596 188.086C145.358 188.823 145.241 189.772 145.241 190.932V199.025Z" fill="white"/>
<path d="M156.873 199.369C154.177 199.369 152.363 198.404 151.432 196.471C151.16 195.891 150.968 195.253 150.853 194.558C150.739 193.863 150.682 192.884 150.682 191.619V181.568H154.886V191.648C154.886 192.542 154.951 193.263 155.086 193.813C155.219 194.363 155.431 194.804 155.722 195.136C156.221 195.656 156.959 195.915 157.933 195.915C159.135 195.915 160.026 195.563 160.607 194.855C160.962 194.44 161.216 193.885 161.369 193.189C161.525 192.494 161.604 191.577 161.604 190.434V181.568H165.808V199.025H161.604V196.814C160.962 197.708 160.272 198.358 159.536 198.762C158.799 199.165 157.911 199.369 156.873 199.369Z" fill="white"/>
<path d="M172.244 199.369C170.602 199.369 169.238 198.928 168.149 198.046C167.061 197.164 166.517 195.892 166.517 194.231C166.517 193.3 166.698 192.507 167.061 191.854C167.423 191.201 167.906 190.667 168.51 190.251C169.067 189.858 169.703 189.546 170.417 189.317C171.135 189.088 171.856 188.902 172.582 188.756L177.783 187.794C177.74 186.714 177.459 185.892 176.941 185.331C176.421 184.774 175.642 184.495 174.604 184.495C173.817 184.495 173.116 184.728 172.502 185.193C171.891 185.66 171.503 186.309 171.34 187.141H167.17C167.376 185.77 167.852 184.649 168.596 183.779C169.344 182.908 170.253 182.261 171.322 181.837C172.391 181.41 173.496 181.196 174.639 181.196C175.654 181.196 176.627 181.342 177.559 181.631C178.494 181.922 179.285 182.368 179.931 182.971C180.614 183.571 181.1 184.26 181.391 185.039C181.68 185.818 181.851 186.628 181.901 187.467C181.954 188.308 181.981 189.132 181.981 189.941V199.025H177.783V196.66C177.348 197.427 176.818 198.008 176.196 198.401C175.654 198.756 175.045 199.006 174.369 199.151C173.696 199.296 172.989 199.369 172.244 199.369ZM173.27 196.07C174.097 196.07 174.845 195.904 175.509 195.571C176.421 195.113 177.038 194.5 177.359 193.733C177.68 192.965 177.852 192.013 177.874 190.875L173.705 191.711C173.101 191.814 172.607 191.95 172.222 192.118C171.839 192.282 171.524 192.479 171.277 192.708C171.112 192.877 170.976 193.074 170.87 193.303C170.767 193.53 170.715 193.787 170.715 194.077C170.715 194.722 170.959 195.216 171.448 195.56C171.937 195.901 172.544 196.07 173.27 196.07Z" fill="white"/>
<path d="M187.362 199.025H183.158V181.568H187.362V183.653C188.026 182.741 188.766 182.103 189.584 181.74C190.404 181.377 191.322 181.196 192.339 181.196H192.837V185.239H191.875C191.167 185.239 190.56 185.334 190.053 185.52C189.545 185.707 189.114 185.967 188.759 186.299C188.304 186.754 187.957 187.35 187.717 188.086C187.479 188.823 187.362 189.772 187.362 190.932V199.025Z" fill="white"/>
<path d="M196.073 205.308H193.175V201.763H195.076C195.614 201.763 196.058 201.684 196.411 201.528C196.766 201.375 197.066 200.975 197.315 200.331L197.779 199.088L191.342 181.568H195.884L199.961 194.386L203.633 181.568H208.146L201.359 201.081C200.821 202.635 200.162 203.727 199.383 204.357C198.604 204.99 197.5 205.308 196.073 205.308Z" fill="white"/>
<path d="M161.648 228.35C160.476 228.35 159.46 228.156 158.601 227.766C157.742 227.374 157.029 226.833 156.465 226.145C155.904 225.458 155.487 224.682 155.216 223.814C154.949 222.944 154.815 222.032 154.815 221.077C154.815 220.119 154.949 219.207 155.216 218.339C155.487 217.468 155.904 216.694 156.465 216.014C157.029 215.335 157.742 214.798 158.601 214.404C159.46 214.012 160.476 213.814 161.648 213.814C163.461 213.814 164.904 214.244 165.978 215.103C167.051 215.962 167.726 217.083 168.006 218.465H165.108C164.874 217.743 164.469 217.185 163.893 216.787C163.316 216.386 162.562 216.185 161.631 216.185C160.738 216.185 159.99 216.402 159.392 216.833C158.792 217.261 158.338 217.844 158.028 218.579C157.722 219.313 157.57 220.137 157.57 221.054C157.57 221.997 157.728 222.841 158.046 223.585C158.366 224.327 158.845 224.911 159.483 225.338C160.12 225.766 160.917 225.979 161.872 225.979C162.974 225.979 163.85 225.701 164.5 225.143C165.149 224.586 165.486 223.756 165.508 222.652H162.404V220.47H168.137V228.093H165.732V226.512C165.239 227.211 164.622 227.692 163.882 227.955C163.14 228.219 162.396 228.35 161.648 228.35Z" fill="white"/>
<path d="M175.118 228.293C174.087 228.293 173.172 228.068 172.374 227.617C171.58 227.163 170.96 226.529 170.513 225.716C170.066 224.9 169.843 223.952 169.843 222.875C169.843 221.833 170.066 220.915 170.513 220.12C170.96 219.323 171.578 218.698 172.369 218.247C173.159 217.793 174.075 217.566 175.118 217.566C176.156 217.566 177.072 217.793 177.867 218.247C178.664 218.698 179.287 219.323 179.734 220.12C180.181 220.915 180.404 221.833 180.404 222.875C180.404 223.94 180.184 224.882 179.745 225.699C179.306 226.512 178.687 227.148 177.89 227.606C177.091 228.064 176.167 228.293 175.118 228.293ZM175.118 226.163C175.922 226.163 176.575 225.858 177.076 225.246C177.58 224.632 177.832 223.842 177.832 222.875C177.832 222.265 177.719 221.721 177.495 221.243C177.268 220.762 176.953 220.384 176.55 220.109C176.144 219.834 175.668 219.696 175.118 219.696C174.591 219.696 174.118 219.832 173.703 220.103C173.286 220.371 172.961 220.743 172.729 221.22C172.496 221.698 172.38 222.249 172.38 222.875C172.38 223.857 172.635 224.651 173.147 225.258C173.663 225.862 174.319 226.163 175.118 226.163Z" fill="white"/>
<path d="M185.216 228.293C184.25 228.293 183.443 228.034 182.799 227.514C182.158 226.996 181.837 226.246 181.837 225.263C181.837 224.714 181.943 224.247 182.158 223.86C182.371 223.475 182.656 223.159 183.011 222.909C183.343 222.677 183.718 222.494 184.139 222.36C184.563 222.226 184.99 222.116 185.422 222.027L188.486 221.46C188.463 220.823 188.299 220.338 187.994 220.006C187.687 219.678 187.228 219.513 186.614 219.513C186.147 219.513 185.733 219.651 185.371 219.925C185.011 220.2 184.782 220.584 184.683 221.077H182.221C182.347 220.268 182.629 219.605 183.068 219.089C183.511 218.574 184.048 218.193 184.678 217.944C185.308 217.692 185.958 217.566 186.631 217.566C187.234 217.566 187.811 217.652 188.36 217.823C188.91 217.995 189.376 218.259 189.758 218.614C190.162 218.969 190.448 219.376 190.617 219.834C190.789 220.292 190.889 220.77 190.921 221.266C190.951 221.762 190.966 222.249 190.966 222.726V228.093H188.486V226.695C188.23 227.151 187.919 227.494 187.553 227.726C187.232 227.932 186.873 228.078 186.476 228.161C186.078 228.249 185.659 228.293 185.216 228.293ZM185.823 226.346C186.316 226.346 186.757 226.248 187.146 226.054C187.685 225.783 188.048 225.422 188.24 224.971C188.431 224.517 188.532 223.955 188.544 223.282L186.081 223.774C185.726 223.836 185.434 223.916 185.205 224.015C184.978 224.111 184.794 224.227 184.649 224.364C184.549 224.46 184.469 224.576 184.409 224.714C184.347 224.848 184.317 225 184.317 225.172C184.317 225.55 184.46 225.84 184.746 226.042C185.036 226.246 185.395 226.346 185.823 226.346Z" fill="white"/>
<path d="M192.859 231.214V229.948C194.074 229.875 194.746 229.354 194.881 228.385C194.893 228.227 194.893 228.058 194.881 227.875C194.698 228.153 194.397 228.293 193.982 228.293C193.673 228.293 193.389 228.164 193.134 227.909C192.878 227.655 192.75 227.311 192.75 226.878C192.75 226.429 192.894 226.062 193.18 225.779C193.469 225.497 193.859 225.355 194.348 225.355C194.958 225.355 195.427 225.587 195.752 226.048C196.075 226.506 196.238 227.09 196.238 227.801C196.238 228.327 196.131 228.84 195.918 229.341C195.703 229.845 195.348 230.271 194.852 230.618C194.356 230.969 193.691 231.168 192.859 231.214Z" fill="white"/>
<path d="M205.829 228.093H203.183V214.072H205.829V228.093Z" fill="white"/>
<path d="M210.68 228.093H208.2V217.783H210.68V219.089C211.095 218.514 211.529 218.116 211.98 217.898C212.434 217.677 212.938 217.566 213.492 217.566C214.434 217.566 215.147 217.735 215.628 218.07C216.112 218.406 216.471 218.813 216.705 219.29C216.914 219.745 217.037 220.209 217.071 220.681C217.109 221.151 217.129 221.644 217.129 222.159V228.093H214.666V222.119C214.666 221.592 214.622 221.167 214.534 220.842C214.45 220.518 214.322 220.258 214.15 220.063C213.855 219.758 213.42 219.605 212.845 219.605C212.146 219.605 211.626 219.814 211.287 220.229C211.076 220.474 210.922 220.799 210.823 221.203C210.727 221.608 210.68 222.153 210.68 222.841V228.093Z" fill="white"/>
<path d="M223.466 228.293C222.572 228.293 221.782 228.068 221.095 227.617C220.407 227.163 219.872 226.532 219.491 225.722C219.113 224.913 218.924 223.983 218.924 222.932C218.924 221.878 219.113 220.948 219.491 220.137C219.872 219.328 220.407 218.698 221.095 218.247C221.782 217.793 222.572 217.566 223.466 217.566C224.076 217.566 224.611 217.673 225.069 217.886C225.53 218.101 225.97 218.502 226.387 219.089V214.072H228.867V228.093H226.387V226.787C225.97 227.364 225.53 227.759 225.069 227.972C224.611 228.186 224.076 228.293 223.466 228.293ZM224.033 226.163C224.83 226.163 225.473 225.863 225.963 225.263C226.451 224.665 226.696 223.887 226.696 222.932C226.696 221.974 226.451 221.195 225.963 220.596C225.473 219.997 224.83 219.696 224.033 219.696C223.249 219.696 222.619 220 222.143 220.607C221.664 221.214 221.427 221.99 221.427 222.932C221.427 223.86 221.664 224.632 222.143 225.246C222.619 225.858 223.249 226.163 224.033 226.163Z" fill="white"/>
<path d="M232.374 216.644C231.957 216.644 231.598 216.516 231.297 216.26C230.999 216.005 230.85 215.661 230.85 215.229C230.85 214.814 230.999 214.473 231.297 214.21C231.598 213.946 231.957 213.814 232.374 213.814C232.789 213.814 233.147 213.946 233.445 214.21C233.745 214.473 233.897 214.814 233.897 215.229C233.897 215.661 233.745 216.005 233.445 216.26C233.147 216.516 232.789 216.644 232.374 216.644ZM233.605 228.093H231.125V217.783H233.605V228.093Z" fill="white"/>
<path d="M238.837 228.293C237.871 228.293 237.065 228.034 236.42 227.514C235.779 226.996 235.458 226.246 235.458 225.263C235.458 224.714 235.564 224.247 235.779 223.86C235.992 223.475 236.277 223.159 236.632 222.909C236.964 222.677 237.339 222.494 237.76 222.36C238.184 222.226 238.611 222.116 239.043 222.027L242.107 221.46C242.085 220.823 241.92 220.338 241.615 220.006C241.309 219.678 240.849 219.513 240.235 219.513C239.768 219.513 239.354 219.651 238.992 219.925C238.632 220.2 238.403 220.584 238.305 221.077H235.842C235.968 220.268 236.25 219.605 236.689 219.089C237.132 218.574 237.669 218.193 238.299 217.944C238.929 217.692 239.579 217.566 240.252 217.566C240.855 217.566 241.432 217.652 241.981 217.823C242.531 217.995 242.997 218.259 243.379 218.614C243.783 218.969 244.069 219.376 244.238 219.834C244.41 220.292 244.51 220.77 244.542 221.266C244.572 221.762 244.587 222.249 244.587 222.726V228.093H242.107V226.695C241.851 227.151 241.54 227.494 241.174 227.726C240.853 227.932 240.494 228.078 240.097 228.161C239.699 228.249 239.28 228.293 238.837 228.293ZM239.444 226.346C239.937 226.346 240.378 226.248 240.767 226.054C241.306 225.783 241.669 225.422 241.861 224.971C242.052 224.517 242.153 223.955 242.165 223.282L239.702 223.774C239.347 223.836 239.055 223.916 238.826 224.015C238.599 224.111 238.415 224.227 238.27 224.364C238.17 224.46 238.09 224.576 238.03 224.714C237.968 224.848 237.938 225 237.938 225.172C237.938 225.55 238.081 225.84 238.368 226.042C238.657 226.246 239.016 226.346 239.444 226.346Z" fill="white"/>
</svg>
