<svg width="500" height="312" viewBox="0 0 500 312" fill="none" xmlns="http://www.w3.org/2000/svg">
<mask id="mask0_2410_6293" style="mask-type:luminance" maskUnits="userSpaceOnUse" x="13" y="69" width="109" height="139">
<path d="M13.4773 69.3013H121.306V207.217H13.4773V69.3013Z" fill="white"/>
</mask>
<g mask="url(#mask0_2410_6293)">
<path d="M92.089 69.6985H95.5792L120.926 86.9612V90.4513L42.3163 207.079H38.8262L13.479 189.818V186.328L92.089 69.6985Z" fill="#57AEFF"/>
</g>
<path d="M145.896 69.6987H149.37L174.717 86.9614V90.4515L96.1288 207.079H92.6387L67.2915 189.818V186.328L145.896 69.6987Z" fill="#57AEFF"/>
<path d="M331.023 86.9668V90.4569L252.42 207.079H248.955L223.608 189.818V186.328L279.442 103.496V91.0064L201.174 207.079H197.684L172.342 189.818V186.328L228.172 103.496V91.0064L149.936 207.079H146.446L121.098 189.818V186.328L199.707 69.6987H203.199L228.358 86.7788H239.379L250.952 69.7005H254.442L279.604 86.7788H290.625L302.196 69.7005H305.686L331.023 86.9668Z" fill="#57AEFF"/>
<mask id="mask1_2410_6293" style="mask-type:luminance" maskUnits="userSpaceOnUse" x="276" y="69" width="211" height="139">
<path d="M276.632 69.3013H486.673V207.217H276.632V69.3013Z" fill="white"/>
</mask>
<g mask="url(#mask1_2410_6293)">
<path d="M486.764 86.9665V90.4567L408.185 207.079H404.695L379.534 189.998H368.487L356.916 207.079H353.424L328.265 189.998H317.243L305.67 207.079H302.18L276.838 189.818V186.328L355.443 69.7039H358.911L384.259 86.9665V90.4567L328.445 173.287V185.778L406.681 69.7039H410.171L435.519 86.9665V90.4567L379.684 173.287V185.778L457.92 69.7039H461.412L486.764 86.9665Z" fill="#57AEFF"/>
</g>
<path d="M110.118 29.8863C110.076 29.8558 110.008 29.8863 110.039 29.9435C111.394 31.5776 118.251 38.5113 110.812 45.8245L101.238 54.7664C101.238 54.7664 93.4009 61.8737 101.996 66.8887L123.618 81.5866C123.618 81.5866 123.167 78.995 125.537 76.593L139.941 60.7676C139.941 60.7676 145.729 55.1565 139.277 50.1558L110.118 29.8863Z" fill="#57AEFF"/>
<path d="M163.893 29.7359C163.851 29.7055 163.783 29.7359 163.816 29.7932C165.169 31.4272 172.025 38.361 164.589 45.6741L155.013 54.6213C155.013 54.6213 147.176 61.7269 155.77 66.7437L177.379 81.4416C177.379 81.4416 176.928 78.8481 179.297 76.448L193.702 60.6226C193.702 60.6226 199.49 55.0115 193.038 50.0108L163.893 29.7359Z" fill="#57AEFF"/>
<path d="M292.125 217.377L298.631 218.224L276.545 248.736L270.037 247.89L292.125 217.377Z" fill="white"/>
<path d="M308.255 242.141L318.19 233.997C319.128 233.228 319.924 232.535 320.577 231.919C321.163 231.382 321.696 230.799 322.178 230.169C322.557 229.673 322.856 229.133 323.076 228.549C323.268 227.989 323.359 227.413 323.352 226.82C323.391 226.278 323.314 225.753 323.121 225.245C322.926 224.739 322.632 224.297 322.24 223.921C321.836 223.582 321.383 223.326 320.884 223.158C320.382 222.988 319.869 222.915 319.342 222.94C318.788 222.931 318.245 223.01 317.717 223.178C317.188 223.346 316.699 223.593 316.251 223.921C315.124 224.805 314.122 225.814 313.245 226.949L308.639 223.241C309.325 222.31 310.071 221.427 310.877 220.597C311.607 219.849 312.416 219.201 313.307 218.655C314.208 218.115 315.167 217.717 316.183 217.461C317.365 217.175 318.564 217.039 319.777 217.055C321.215 217.041 322.616 217.261 323.98 217.715C325.183 218.118 326.264 218.736 327.219 219.57C328.125 220.382 328.818 221.349 329.297 222.467C329.815 223.681 330.063 224.946 330.046 226.264V226.348C330.063 227.49 329.901 228.606 329.557 229.696C329.215 230.702 328.725 231.631 328.087 232.481C327.364 233.435 326.546 234.3 325.635 235.077C324.642 235.943 323.491 236.888 322.183 237.913L317.322 241.668H330.33V247.338H308.26V242.146L308.255 242.141Z" fill="white"/>
<path d="M347.822 247.858C345.919 247.885 344.106 247.493 342.384 246.685C340.763 245.909 339.378 244.828 338.23 243.444C337.029 241.987 336.142 240.36 335.565 238.561C334.921 236.594 334.608 234.576 334.626 232.507V232.419C334.608 230.346 334.928 228.327 335.587 226.362C336.183 224.56 337.085 222.926 338.291 221.46C339.456 220.064 340.856 218.97 342.494 218.177C343.115 217.877 343.757 217.63 344.419 217.436C345.083 217.241 345.756 217.103 346.442 217.021C347.127 216.939 347.816 216.914 348.506 216.946C349.195 216.978 349.878 217.066 350.553 217.211C351.228 217.356 351.886 217.554 352.529 217.809C353.172 218.063 353.787 218.367 354.38 218.723C354.97 219.079 355.529 219.482 356.053 219.931C356.579 220.381 357.063 220.869 357.506 221.397C358.707 222.858 359.602 224.485 360.191 226.28C360.848 228.245 361.168 230.264 361.152 232.335V232.419C361.168 234.49 360.848 236.509 360.191 238.474C359.595 240.276 358.695 241.912 357.487 243.376C356.322 244.772 354.922 245.867 353.284 246.659C351.559 247.489 349.737 247.888 347.822 247.858ZM347.91 241.885C348.869 241.901 349.764 241.667 350.594 241.185C351.425 240.69 352.107 240.038 352.64 239.233C353.247 238.32 353.682 237.334 353.95 236.272C354.26 235.037 354.408 233.784 354.396 232.512V232.428C354.408 231.157 354.253 229.904 353.929 228.675C353.653 227.599 353.204 226.602 352.585 225.682C352.04 224.862 351.348 224.196 350.507 223.688C349.687 223.198 348.797 222.958 347.842 222.967C346.882 222.953 345.987 223.185 345.157 223.667C344.33 224.161 343.655 224.812 343.133 225.619C342.538 226.539 342.105 227.531 341.833 228.59C341.511 229.824 341.355 231.076 341.366 232.351V232.433C341.355 233.715 341.511 234.975 341.833 236.215C342.103 237.287 342.545 238.286 343.158 239.206C343.705 240.018 344.396 240.675 345.236 241.18C346.062 241.663 346.957 241.898 347.915 241.885H347.91Z" fill="white"/>
<path d="M364.673 242.141L374.608 233.997C375.546 233.228 376.342 232.535 376.997 231.919C377.581 231.382 378.114 230.799 378.598 230.169C378.977 229.675 379.278 229.134 379.496 228.549C379.688 227.989 379.779 227.413 379.77 226.82C379.811 226.278 379.734 225.753 379.539 225.245C379.346 224.739 379.052 224.297 378.658 223.921C378.256 223.582 377.803 223.326 377.304 223.158C376.802 222.988 376.289 222.915 375.761 222.94C375.206 222.931 374.665 223.01 374.136 223.178C373.608 223.346 373.119 223.593 372.671 223.921C371.542 224.805 370.54 225.814 369.665 226.949L365.058 223.241C365.745 222.31 366.49 221.427 367.297 220.597C368.025 219.849 368.836 219.201 369.727 218.655C370.626 218.115 371.585 217.717 372.603 217.461C373.781 217.175 374.975 217.041 376.187 217.055C377.624 217.041 379.025 217.261 380.389 217.715C381.592 218.118 382.673 218.736 383.629 219.57C384.534 220.382 385.227 221.349 385.707 222.467C386.224 223.681 386.473 224.946 386.455 226.264V226.348C386.473 227.49 386.31 228.606 385.966 229.696C385.63 230.699 385.146 231.622 384.516 232.471C383.793 233.425 382.977 234.289 382.066 235.068C381.073 235.932 379.92 236.877 378.612 237.903L373.788 241.674H386.772V247.344H364.678V242.15L364.673 242.141Z" fill="white"/>
<path d="M401.733 247.858C399.546 247.908 397.441 247.509 395.424 246.664C393.609 245.857 391.989 244.763 390.562 243.381L394.53 238.651C395.56 239.599 396.698 240.396 397.942 241.038C399.111 241.618 400.346 241.901 401.65 241.89C402.298 241.926 402.935 241.851 403.558 241.668C404.181 241.486 404.757 241.205 405.285 240.827C405.742 240.453 406.089 239.995 406.327 239.454C406.563 238.912 406.665 238.347 406.63 237.758V237.674C406.642 237.384 406.619 237.095 406.558 236.811C406.497 236.526 406.404 236.254 406.275 235.993C406.146 235.733 405.989 235.492 405.799 235.272C405.611 235.05 405.398 234.855 405.16 234.688C404.596 234.311 403.99 234.031 403.336 233.851C402.685 233.668 402.019 233.593 401.342 233.623C400.442 233.62 399.554 233.725 398.679 233.94C397.883 234.14 397.106 234.404 396.353 234.729L392.562 232.216L393.414 217.502H411.782V223.257H399.048L398.704 228.418C399.302 228.273 399.9 228.154 400.496 228.055C401.203 227.948 401.912 227.898 402.626 227.905C404.013 227.896 405.373 228.082 406.708 228.461C407.934 228.807 409.048 229.374 410.046 230.164C411.041 230.967 411.793 231.957 412.301 233.129C412.883 234.513 413.155 235.955 413.116 237.455V237.539C413.141 239.023 412.871 240.451 412.301 241.824C411.773 243.072 411.009 244.153 410.005 245.064C408.951 246.009 407.752 246.701 406.406 247.142C404.888 247.641 403.331 247.879 401.733 247.858Z" fill="white"/>
<path d="M215.695 22.5283H218.95V37.33H215.695V22.5283Z" fill="white"/>
<path d="M222.441 22.5283H225.442L232.381 31.6492V22.5283H235.596V37.33H232.827L225.661 27.9192V37.33H222.446V22.5283H222.441Z" fill="white"/>
<path d="M238.936 22.5284H244.709C245.807 22.5159 246.868 22.7038 247.894 23.0904C248.828 23.4448 249.662 23.9638 250.392 24.6475C251.095 25.3134 251.634 26.0919 252.006 26.985C252.395 27.9157 252.586 28.8858 252.577 29.8935V29.9346C252.585 30.9459 252.395 31.9195 252.006 32.8538C251.634 33.7505 251.095 34.5326 250.392 35.202C249.662 35.8857 248.83 36.4048 247.894 36.7592C246.868 37.1529 245.807 37.3426 244.709 37.3301H238.936V22.5284ZM242.191 25.4888V34.3698H244.704C245.331 34.3787 245.935 34.2731 246.523 34.053C247.056 33.8525 247.525 33.5518 247.929 33.1491C248.325 32.7482 248.627 32.2864 248.839 31.7638C249.066 31.1875 249.175 30.5897 249.166 29.9722V29.9293C249.171 29.3136 249.062 28.7176 248.839 28.143C248.631 27.6133 248.328 27.1443 247.929 26.7363C247.525 26.3318 247.056 26.0257 246.523 25.8217C245.937 25.5961 245.332 25.487 244.704 25.4941H242.191V25.4888Z" fill="white"/>
<path d="M255.407 22.5283H258.664V37.33H255.407V22.5283Z" fill="white"/>
<path d="M267.227 22.4246H270.23L276.575 37.3623H273.174L271.818 34.0422H265.587L264.211 37.3623H260.887L267.227 22.4246ZM270.654 31.1391L268.687 26.3407L266.719 31.1302L270.654 31.1391Z" fill="white"/>
<path d="M284.932 22.5283H288.187V37.33H284.932V22.5283Z" fill="white"/>
<path d="M291.677 22.5283H294.679L301.602 31.6492V22.5283H304.816V37.33H302.048L294.881 27.9192V37.33H291.683V22.5283H291.677Z" fill="white"/>
<path d="M311.614 25.537H307.111V22.5337H319.378V25.537H314.875V37.3622H311.62V25.537H311.614Z" fill="white"/>
<path d="M321.664 22.5283H332.807V25.4171H324.878V28.4186H331.853V31.3163H324.873V34.4323H332.907V37.3622H321.658V22.5283H321.664Z" fill="white"/>
<path d="M335.617 22.5283H342.368C344.242 22.5283 345.68 23.0295 346.684 24.03C347.119 24.4828 347.446 25.0036 347.666 25.5925C347.886 26.1813 347.981 26.7881 347.951 27.4163V27.4574C347.976 27.9819 347.911 28.4937 347.761 28.9967C347.611 29.4996 347.382 29.9632 347.074 30.3874C346.469 31.1623 345.703 31.7154 344.779 32.0483L348.414 37.3354H344.602L341.429 32.5996H338.869V37.3622H335.612V22.5283H335.617ZM342.177 29.7215C342.864 29.7699 343.482 29.5802 344.026 29.156C344.242 28.9645 344.405 28.7354 344.518 28.4705C344.631 28.2056 344.681 27.9282 344.67 27.64V27.597C344.686 27.2999 344.636 27.0136 344.516 26.7397C344.398 26.4641 344.224 26.2314 343.994 26.0399C343.428 25.6497 342.802 25.4779 342.114 25.5209H338.878V29.7484L342.177 29.7215Z" fill="white"/>
<path d="M350.698 22.5283H353.7L360.639 31.6492V22.5283H363.853V37.33H361.084L353.918 27.9192V37.33H350.703V22.5283H350.698Z" fill="white"/>
<path d="M372.267 22.4246H375.269L381.613 37.3623H378.213L376.858 34.0422H370.626L369.244 37.3623H365.926L372.267 22.4246ZM375.695 31.1391L373.726 26.3407L371.757 31.1302L375.695 31.1391Z" fill="white"/>
<path d="M387.135 25.537H382.616V22.5337H394.883V25.537H390.407V37.3622H387.149V25.537H387.135Z" fill="white"/>
<path d="M397.324 22.5283H400.58V37.33H397.324V22.5283Z" fill="white"/>
<path d="M411.261 37.5895C410.171 37.6021 409.121 37.3998 408.11 36.9882C407.177 36.6069 406.35 36.0646 405.627 35.363C404.922 34.6686 404.38 33.8667 404.002 32.9522C403.606 32.0018 403.411 31.012 403.42 29.9811V29.9399C403.413 28.9108 403.61 27.9228 404.013 26.9742C404.407 26.0453 404.963 25.2274 405.683 24.5186C406.402 23.8116 407.231 23.2693 408.167 22.8934C409.182 22.4907 410.234 22.2903 411.324 22.2903C412.416 22.2903 413.468 22.4907 414.481 22.8934C415.417 23.2747 416.246 23.8188 416.969 24.524C417.674 25.2166 418.217 26.0202 418.594 26.933C418.992 27.8834 419.185 28.8732 419.176 29.9041V29.9453C419.185 30.9762 418.986 31.966 418.585 32.9164C418.192 33.8453 417.635 34.6632 416.915 35.3702C416.196 36.0772 415.367 36.6177 414.429 36.9935C413.415 37.4034 412.359 37.6021 411.261 37.5895ZM411.304 34.5827C411.927 34.5898 412.527 34.4699 413.101 34.2247C413.64 33.9938 414.109 33.6627 414.508 33.2332C414.904 32.8 415.206 32.3114 415.417 31.7637C415.639 31.1892 415.749 30.5932 415.743 29.9757V29.9345C415.747 29.3153 415.638 28.7157 415.417 28.1376C415.206 27.5827 414.897 27.0888 414.488 26.6592C414.079 26.2279 413.603 25.8932 413.058 25.6551C412.482 25.4153 411.883 25.2936 411.258 25.2936C410.631 25.2936 410.032 25.4153 409.456 25.6551C408.92 25.8878 408.453 26.2189 408.058 26.6467C407.662 27.0798 407.36 27.5702 407.149 28.1179C406.927 28.6924 406.817 29.2884 406.823 29.9041V29.9453C406.817 30.5646 406.927 31.1641 407.149 31.7422C407.36 32.2953 407.668 32.7875 408.076 33.2188C408.482 33.6484 408.956 33.9831 409.497 34.2247C410.073 34.4771 410.674 34.597 411.304 34.5827Z" fill="white"/>
<path d="M421.836 22.5283H424.837L431.776 31.6492V22.5283H434.991V37.33H432.222L425.055 27.9192V37.33H421.841V22.5283H421.836Z" fill="white"/>
<path d="M443.403 22.4246H446.404L452.751 37.3623H449.349L447.994 34.0422H441.762L440.38 37.3623H437.062L443.403 22.4246ZM446.83 31.1391L444.863 26.3407L442.894 31.1302L446.83 31.1391Z" fill="white"/>
<path d="M454.802 22.5283H458.058V34.3697H465.439V37.33H454.802V22.5283Z" fill="white"/>
<path d="M270.348 43.5942H273.855L277.738 49.8263L281.624 43.5942H285.129V58.3959H281.914V48.7041L277.76 55.0239H277.676L273.558 48.7865V58.3906H270.343V43.5942H270.348Z" fill="white"/>
<path d="M294.668 58.6089C292.682 58.6089 291.125 58.0577 289.995 56.9569C288.866 55.8562 288.295 54.2132 288.281 52.0278V43.5942H291.538V51.9705C291.5 52.4645 291.554 52.9478 291.701 53.4203C291.848 53.8928 292.075 54.3223 292.385 54.7071C292.691 55.0239 293.049 55.262 293.458 55.4231C293.866 55.5841 294.292 55.6522 294.731 55.6271C295.168 55.6504 295.59 55.5841 295.998 55.4302C296.406 55.2745 296.768 55.0454 297.079 54.7394C297.387 54.3671 297.614 53.9501 297.761 53.4901C297.908 53.0283 297.962 52.5576 297.926 52.0743V43.5942H301.181V51.9025C301.203 52.9102 301.051 53.8892 300.725 54.8432C300.448 55.6325 300.014 56.3251 299.426 56.9193C298.839 57.4939 298.155 57.9091 297.375 58.1668C296.498 58.4675 295.595 58.6161 294.668 58.6089Z" fill="white"/>
<path d="M309.533 58.5875C308.392 58.5875 307.286 58.3942 306.212 58.0058C305.106 57.6084 304.12 57.0124 303.254 56.2196L305.18 53.9125C305.815 54.4405 306.508 54.8754 307.258 55.2226C308 55.5537 308.779 55.7166 309.593 55.7095C310.15 55.7381 310.669 55.6146 311.152 55.3408C311.333 55.2316 311.473 55.0848 311.573 54.8987C311.673 54.7125 311.72 54.5139 311.713 54.3027V54.2615C311.718 54.0646 311.68 53.8785 311.598 53.6995C311.492 53.5062 311.344 53.3559 311.152 53.2485C310.864 53.0749 310.562 52.9353 310.243 52.8279C309.855 52.6883 309.35 52.5361 308.733 52.3804C308.043 52.2158 307.367 52.0117 306.701 51.7683C306.137 51.5732 305.618 51.294 305.144 50.9325C304.716 50.5996 304.39 50.1879 304.161 49.6957C303.909 49.1087 303.793 48.4965 303.814 47.8576V47.8164C303.8 47.1971 303.92 46.6029 304.172 46.0373C304.423 45.4718 304.784 44.9849 305.253 44.5804C305.736 44.1688 306.28 43.8663 306.884 43.6712C307.558 43.4529 308.251 43.3473 308.96 43.3544C309.987 43.3419 310.984 43.5048 311.952 43.843C312.867 44.167 313.703 44.6341 314.46 45.2409L312.767 47.6911C312.155 47.2687 311.505 46.9126 310.819 46.6208C310.211 46.3649 309.575 46.236 308.913 46.2324C308.396 46.1949 307.92 46.3183 307.485 46.6011C307.336 46.7067 307.22 46.841 307.136 47.0021C307.052 47.1649 307.009 47.3367 307.009 47.5193V47.5623C307.004 47.7806 307.048 47.9882 307.143 48.1851C307.268 48.3945 307.442 48.552 307.662 48.6576C307.974 48.8294 308.301 48.9619 308.645 49.0568C309.06 49.182 309.584 49.3324 310.202 49.4988C310.884 49.6742 311.55 49.8962 312.201 50.1629C312.74 50.383 313.234 50.6801 313.681 51.0524C314.077 51.3889 314.379 51.7934 314.591 52.2677C314.809 52.8028 314.911 53.3612 314.897 53.9393V53.9805C314.907 54.6624 314.775 55.3157 314.497 55.9386C314.236 56.5041 313.866 56.9838 313.386 57.3776C312.876 57.7856 312.309 58.0809 311.682 58.2653C310.982 58.4819 310.265 58.5893 309.533 58.5875Z" fill="white"/>
<path d="M317.737 43.5942H320.993V58.3959H317.737V43.5942Z" fill="white"/>
<path d="M331.422 58.6556C330.373 58.6646 329.365 58.4677 328.399 58.0632C327.495 57.673 326.699 57.1271 326.009 56.4219C325.32 55.7203 324.792 54.9131 324.426 54.0021C324.039 53.0464 323.849 52.0512 323.855 51.0203V50.9791C323.847 49.95 324.039 48.9602 324.426 48.0081C324.796 47.0953 325.324 46.2845 326.009 45.5775C326.709 44.8652 327.52 44.3139 328.44 43.9255C329.439 43.5139 330.477 43.3134 331.556 43.3241C332.191 43.3188 332.821 43.376 333.446 43.496C333.981 43.598 334.502 43.7537 335.005 43.9631C335.46 44.1546 335.889 44.3927 336.292 44.679C336.686 44.9582 337.053 45.2679 337.394 45.6097L335.316 47.9973C334.783 47.5087 334.194 47.1006 333.55 46.7731C332.913 46.4652 332.238 46.3149 331.531 46.3256C330.939 46.3149 330.369 46.4277 329.827 46.6639C329.283 46.9002 328.812 47.2367 328.415 47.6752C328.025 48.1101 327.729 48.5987 327.527 49.1464C327.311 49.7209 327.205 50.3169 327.21 50.9326V50.9738C327.205 51.593 327.311 52.1908 327.527 52.7707C327.726 53.3184 328.019 53.8124 328.404 54.2509C328.798 54.6948 329.269 55.0366 329.813 55.2765C330.357 55.5163 330.926 55.6308 331.52 55.6219C332.274 55.6452 332.99 55.4894 333.664 55.1548C334.302 54.8075 334.883 54.3851 335.41 53.8876L337.488 55.9655C337.121 56.3611 336.725 56.7298 336.303 57.0663C335.433 57.7553 334.452 58.2117 333.364 58.4319C332.723 58.5715 332.077 58.6467 331.422 58.6556Z" fill="white"/>
<path d="M344.763 43.5944H348.253L351.317 53.6173L354.636 43.5532H357.43L360.748 53.6173L363.812 43.5944H367.218L362.165 58.5035H359.33L355.991 48.7866L352.651 58.473H349.816L344.763 43.5944Z" fill="white"/>
<path d="M369.419 43.5942H380.565V46.4919H372.636V49.4934H379.614V52.3911H372.636V55.5072H380.668V58.4049H369.419V43.5942Z" fill="white"/>
<path d="M383.38 43.5942H394.525V46.4919H386.594V49.4934H393.575V52.3911H386.594V55.5072H394.629V58.4049H383.38V43.5942Z" fill="white"/>
<path d="M397.333 43.5942H400.591V50.0644L406.594 43.5942H410.529L404.501 49.8263L410.8 58.3476H406.889L402.298 52.0493L400.585 53.8248V58.3476H397.328V43.5942H397.333Z" fill="white"/>
<path d="M44.0103 248.781H38.4046V242.094H25.5681V236.725L38.5263 219.106H44.0103V237.076H47.7832V242.094H44.0103V248.781ZM38.4046 226.258L30.78 237.076H38.4046V226.258Z" fill="white"/>
<path d="M66.8302 238.393H54.5808V233.926H66.8302V238.393Z" fill="white"/>
<path d="M85.4993 249.325C81.8911 249.325 79.1205 248.056 77.1875 245.517C75.2581 242.973 74.2952 239.381 74.2952 234.742C74.2952 231.368 74.7283 228.476 75.5981 226.065C76.4662 223.656 77.7423 221.804 79.4283 220.51C81.1125 219.212 83.1869 218.562 85.6497 218.562C88.5563 218.562 90.8777 219.361 92.6156 220.953C94.3517 222.548 95.388 224.694 95.7227 227.39H90.7113C90.0848 224.717 88.3988 223.38 85.6497 223.38C83.4196 223.38 81.8374 224.193 80.9031 225.815C79.9724 227.433 79.5071 229.616 79.5071 232.365C80.4897 231.044 81.5779 230.175 82.7717 229.759C83.9637 229.344 85.1056 229.136 86.1938 229.136C88.0588 229.136 89.7125 229.534 91.1551 230.325C92.5959 231.118 93.7181 232.24 94.52 233.69C95.3218 235.141 95.7227 236.867 95.7227 238.866C95.7227 240.913 95.2878 242.73 94.4197 244.314C93.5499 245.894 92.3454 247.126 90.8043 248.008C89.2615 248.885 87.4932 249.325 85.4993 249.325ZM85.4206 244.543C86.9473 244.543 88.1125 244.006 88.9143 242.932C89.7197 241.855 90.1242 240.523 90.1242 238.937C90.1242 237.334 89.7161 236.034 88.9 235.036C88.0838 234.033 86.924 233.532 85.4206 233.532C83.8348 233.532 82.5748 234.033 81.6405 235.036C80.7098 236.034 80.2445 237.334 80.2445 238.937C80.2445 240.575 80.7098 241.919 81.6405 242.968C82.5748 244.019 83.8348 244.543 85.4206 244.543Z" fill="white"/>
<path d="M117.895 248.781H112.289V219.106H132.092V224.118H117.895V231.434H130.61V236.41H117.895V248.781Z" fill="white"/>
<path d="M142.702 249.211C140.472 249.211 138.521 248.724 136.846 247.75C135.174 246.777 133.878 245.449 132.958 243.763C132.036 242.078 131.576 240.16 131.576 238.007C131.576 236.58 131.795 235.179 132.235 233.804C132.679 232.43 133.354 231.195 134.261 230.096C135.167 228.993 136.309 228.118 137.683 227.468C139.058 226.82 140.679 226.495 142.552 226.495C143.949 226.495 145.302 226.717 146.611 227.16C147.923 227.601 149.097 228.281 150.133 229.201C151.168 230.117 151.991 231.29 152.603 232.716C153.213 234.144 153.519 235.843 153.519 237.813V238.937H137.025C137.076 239.406 137.179 239.866 137.332 240.319C137.49 240.774 137.658 241.169 137.841 241.508C138.36 242.521 139.054 243.304 139.924 243.863C140.792 244.421 141.782 244.701 142.895 244.701C144.141 244.701 145.183 244.377 146.024 243.727C146.869 243.079 147.459 242.313 147.799 241.429H153.169C152.753 242.832 152.091 244.124 151.186 245.302C150.278 246.481 149.124 247.428 147.72 248.144C146.321 248.855 144.649 249.211 142.702 249.211ZM137.261 235.014H148.15C148.121 234.728 148.05 234.404 147.935 234.04C147.821 233.679 147.62 233.328 147.334 232.988C146.842 232.211 146.185 231.628 145.365 231.241C144.549 230.851 143.661 230.654 142.702 230.654C141.743 230.654 140.866 230.851 140.074 231.241C139.287 231.628 138.632 232.211 138.113 232.988C137.826 233.328 137.626 233.679 137.511 234.04C137.397 234.404 137.313 234.728 137.261 235.014Z" fill="white"/>
<path d="M165.801 249.211C164.531 249.211 163.403 248.983 162.415 248.531C161.431 248.078 160.498 247.24 159.616 246.018V248.781H154.368V219.106H159.616V229.723C160.498 228.478 161.431 227.629 162.415 227.175C163.403 226.722 164.531 226.495 165.801 226.495C167.72 226.495 169.397 226.974 170.834 227.934C172.275 228.893 173.397 230.23 174.199 231.943C175.005 233.652 175.409 235.621 175.409 237.849C175.409 240.083 175.005 242.057 174.199 243.77C173.397 245.479 172.275 246.812 170.834 247.772C169.397 248.731 167.72 249.211 165.801 249.211ZM164.599 244.7C166.283 244.7 167.623 244.053 168.622 242.753C169.619 241.456 170.118 239.821 170.118 237.849C170.118 235.855 169.619 234.216 168.622 232.931C167.623 231.647 166.283 231.005 164.599 231.005C162.938 231.005 161.581 231.642 160.532 232.916C159.482 234.187 158.957 235.83 158.957 237.849C158.957 239.873 159.482 241.522 160.532 242.796C161.581 244.067 162.938 244.7 164.599 244.7Z" fill="white"/>
<path d="M181.551 248.781H176.296V226.96H181.551V229.566C182.381 228.426 183.307 227.629 184.329 227.175C185.354 226.722 186.501 226.495 187.772 226.495H188.395V231.549H187.192C186.308 231.549 185.549 231.667 184.916 231.9C184.28 232.134 183.741 232.458 183.298 232.873C182.728 233.443 182.295 234.187 181.995 235.107C181.698 236.029 181.551 237.216 181.551 238.665V248.781Z" fill="white"/>
<path d="M196.091 249.211C192.721 249.211 190.454 248.004 189.29 245.588C188.95 244.863 188.71 244.067 188.567 243.197C188.424 242.329 188.352 241.105 188.352 239.524V226.96H193.607V239.56C193.607 240.677 193.689 241.579 193.858 242.266C194.024 242.954 194.289 243.505 194.652 243.92C195.277 244.57 196.199 244.894 197.416 244.894C198.919 244.894 200.033 244.454 200.759 243.569C201.203 243.05 201.52 242.356 201.711 241.486C201.906 240.618 202.005 239.471 202.005 238.042V226.96H207.26V248.781H202.005V246.018C201.203 247.135 200.34 247.947 199.42 248.452C198.499 248.957 197.389 249.211 196.091 249.211Z" fill="white"/>
<path d="M215.306 249.211C213.253 249.211 211.547 248.66 210.187 247.557C208.827 246.455 208.147 244.865 208.147 242.789C208.147 241.626 208.372 240.634 208.827 239.818C209.28 239.002 209.883 238.334 210.638 237.813C211.334 237.323 212.129 236.933 213.022 236.646C213.919 236.36 214.821 236.127 215.728 235.945L222.229 234.742C222.175 233.393 221.824 232.365 221.177 231.664C220.527 230.967 219.553 230.618 218.256 230.618C217.271 230.618 216.396 230.91 215.628 231.492C214.864 232.075 214.379 232.886 214.175 233.926H208.963C209.221 232.213 209.815 230.812 210.746 229.723C211.68 228.635 212.816 227.826 214.153 227.296C215.489 226.763 216.87 226.495 218.299 226.495C219.567 226.495 220.785 226.677 221.95 227.039C223.118 227.402 224.106 227.96 224.914 228.714C225.767 229.464 226.376 230.325 226.739 231.298C227.101 232.272 227.314 233.285 227.376 234.334C227.443 235.385 227.477 236.416 227.477 237.427V248.781H222.229V245.825C221.685 246.784 221.023 247.511 220.246 248.001C219.567 248.445 218.807 248.758 217.962 248.939C217.121 249.12 216.237 249.211 215.306 249.211ZM216.587 245.087C217.622 245.087 218.556 244.88 219.387 244.464C220.527 243.892 221.298 243.126 221.699 242.166C222.1 241.207 222.315 240.017 222.343 238.594L217.132 239.639C216.376 239.768 215.759 239.938 215.277 240.147C214.799 240.353 214.406 240.598 214.096 240.885C213.89 241.096 213.72 241.343 213.588 241.629C213.459 241.912 213.394 242.234 213.394 242.596C213.394 243.403 213.699 244.02 214.311 244.45C214.921 244.876 215.68 245.087 216.587 245.087Z" fill="white"/>
<path d="M234.202 248.781H228.947V226.96H234.202V229.566C235.032 228.426 235.958 227.629 236.98 227.175C238.005 226.722 239.152 226.495 240.423 226.495H241.046V231.549H239.843C238.959 231.549 238.2 231.667 237.567 231.9C236.931 232.134 236.393 232.458 235.949 232.873C235.38 233.443 234.946 234.187 234.646 235.107C234.349 236.029 234.202 237.216 234.202 238.665V248.781Z" fill="white"/>
<path d="M245.091 256.635H241.469V252.203H243.846C244.519 252.203 245.073 252.105 245.514 251.91C245.958 251.718 246.333 251.219 246.645 250.414L247.225 248.86L239.178 226.96H244.855L249.952 242.982L254.541 226.96H260.183L251.699 251.351C251.026 253.293 250.203 254.659 249.229 255.447C248.256 256.238 246.876 256.635 245.091 256.635Z" fill="white"/>
<path d="M202.06 285.438C200.594 285.438 199.325 285.195 198.252 284.708C197.178 284.217 196.286 283.541 195.581 282.682C194.88 281.823 194.359 280.852 194.02 279.768C193.686 278.68 193.519 277.54 193.519 276.346C193.519 275.148 193.686 274.008 194.02 272.924C194.359 271.835 194.88 270.867 195.581 270.017C196.286 269.169 197.178 268.497 198.252 268.005C199.325 267.515 200.594 267.268 202.06 267.268C204.326 267.268 206.13 267.805 207.473 268.879C208.813 269.953 209.658 271.354 210.007 273.081H206.384C206.093 272.179 205.586 271.481 204.867 270.983C204.145 270.482 203.202 270.232 202.039 270.232C200.922 270.232 199.988 270.502 199.24 271.041C198.49 271.576 197.922 272.304 197.536 273.224C197.153 274.141 196.963 275.172 196.963 276.317C196.963 277.497 197.16 278.551 197.557 279.481C197.958 280.409 198.556 281.139 199.354 281.672C200.151 282.207 201.146 282.474 202.339 282.474C203.718 282.474 204.813 282.127 205.626 281.429C206.436 280.733 206.857 279.694 206.886 278.314H203.005V275.587H210.172V285.116H207.165V283.14C206.549 284.013 205.778 284.615 204.852 284.944C203.925 285.273 202.995 285.438 202.06 285.438Z" fill="white"/>
<path d="M218.897 285.366C217.609 285.366 216.465 285.085 215.468 284.522C214.475 283.954 213.7 283.161 213.141 282.145C212.583 281.125 212.304 279.94 212.304 278.594C212.304 277.291 212.583 276.144 213.141 275.15C213.7 274.153 214.473 273.373 215.461 272.809C216.449 272.242 217.594 271.957 218.897 271.957C220.195 271.957 221.34 272.242 222.334 272.809C223.331 273.373 224.109 274.153 224.668 275.15C225.226 276.144 225.505 277.291 225.505 278.594C225.505 279.925 225.23 281.103 224.682 282.123C224.133 283.14 223.359 283.935 222.362 284.507C221.364 285.08 220.209 285.366 218.897 285.366ZM218.897 282.703C219.903 282.703 220.719 282.322 221.346 281.558C221.976 280.79 222.291 279.802 222.291 278.594C222.291 277.831 222.149 277.151 221.868 276.553C221.586 275.952 221.192 275.48 220.687 275.136C220.181 274.792 219.585 274.621 218.897 274.621C218.239 274.621 217.648 274.791 217.129 275.129C216.608 275.464 216.202 275.929 215.912 276.525C215.62 277.123 215.475 277.812 215.475 278.594C215.475 279.822 215.794 280.813 216.435 281.572C217.079 282.327 217.899 282.703 218.897 282.703Z" fill="white"/>
<path d="M231.52 285.366C230.312 285.366 229.305 285.043 228.499 284.393C227.697 283.745 227.296 282.807 227.296 281.579C227.296 280.892 227.429 280.309 227.697 279.825C227.964 279.344 228.32 278.948 228.764 278.637C229.179 278.347 229.648 278.118 230.174 277.95C230.704 277.783 231.238 277.645 231.778 277.534L235.608 276.826C235.58 276.029 235.374 275.422 234.993 275.007C234.61 274.597 234.035 274.391 233.267 274.391C232.684 274.391 232.166 274.563 231.714 274.907C231.264 275.251 230.978 275.73 230.855 276.346H227.776C227.934 275.335 228.286 274.506 228.836 273.862C229.389 273.217 230.06 272.741 230.847 272.43C231.635 272.115 232.447 271.957 233.289 271.957C234.042 271.957 234.763 272.065 235.451 272.279C236.138 272.494 236.72 272.824 237.198 273.267C237.702 273.711 238.06 274.22 238.271 274.792C238.486 275.365 238.612 275.963 238.651 276.582C238.688 277.203 238.708 277.812 238.708 278.408V285.116H235.608V283.369C235.288 283.938 234.899 284.368 234.441 284.658C234.04 284.915 233.591 285.098 233.095 285.202C232.598 285.311 232.073 285.366 231.52 285.366ZM232.279 282.932C232.895 282.932 233.446 282.811 233.933 282.567C234.606 282.229 235.061 281.778 235.3 281.214C235.538 280.647 235.666 279.943 235.68 279.102L232.601 279.718C232.157 279.795 231.792 279.895 231.506 280.019C231.223 280.138 230.992 280.283 230.812 280.455C230.686 280.575 230.586 280.72 230.511 280.892C230.434 281.06 230.396 281.25 230.396 281.465C230.396 281.937 230.575 282.301 230.933 282.553C231.295 282.807 231.744 282.932 232.279 282.932Z" fill="white"/>
<path d="M241.075 289.018V287.436C242.592 287.344 243.433 286.693 243.602 285.481C243.616 285.284 243.616 285.073 243.602 284.844C243.373 285.191 242.997 285.367 242.478 285.367C242.091 285.367 241.737 285.205 241.418 284.887C241.098 284.568 240.938 284.139 240.938 283.598C240.938 283.036 241.117 282.578 241.475 282.224C241.837 281.871 242.324 281.694 242.936 281.694C243.698 281.694 244.284 281.984 244.69 282.56C245.094 283.133 245.298 283.863 245.298 284.751C245.298 285.409 245.164 286.05 244.898 286.677C244.629 287.307 244.185 287.838 243.566 288.273C242.945 288.712 242.114 288.96 241.075 289.018Z" fill="white"/>
<path d="M257.286 285.116H253.978V267.59H257.286V285.116Z" fill="white"/>
<path d="M263.35 285.116H260.25V272.229H263.35V273.862C263.869 273.142 264.411 272.645 264.975 272.373C265.542 272.097 266.172 271.957 266.865 271.957C268.043 271.957 268.934 272.168 269.536 272.587C270.14 273.008 270.59 273.516 270.881 274.112C271.143 274.681 271.297 275.261 271.34 275.852C271.386 276.439 271.411 277.055 271.411 277.699V285.116H268.333V277.649C268.333 276.99 268.277 276.459 268.168 276.052C268.063 275.648 267.903 275.322 267.688 275.079C267.32 274.697 266.776 274.506 266.056 274.506C265.183 274.506 264.533 274.767 264.109 275.286C263.846 275.592 263.652 275.999 263.529 276.503C263.409 277.01 263.35 277.692 263.35 278.551V285.116Z" fill="white"/>
<path d="M279.333 285.366C278.216 285.366 277.228 285.085 276.369 284.522C275.51 283.954 274.84 283.165 274.364 282.152C273.892 281.141 273.655 279.979 273.655 278.665C273.655 277.348 273.892 276.185 274.364 275.172C274.84 274.16 275.51 273.373 276.369 272.809C277.228 272.242 278.216 271.957 279.333 271.957C280.095 271.957 280.764 272.091 281.337 272.358C281.913 272.627 282.463 273.128 282.984 273.862V267.59H286.084V285.116H282.984V283.484C282.463 284.205 281.913 284.699 281.337 284.966C280.764 285.232 280.095 285.366 279.333 285.366ZM280.041 282.703C281.038 282.703 281.842 282.329 282.454 281.579C283.064 280.831 283.37 279.859 283.37 278.665C283.37 277.468 283.064 276.494 282.454 275.744C281.842 274.996 281.038 274.62 280.041 274.62C279.062 274.62 278.275 275 277.679 275.759C277.081 276.518 276.784 277.488 276.784 278.665C276.784 279.825 277.081 280.79 277.679 281.558C278.275 282.322 279.062 282.703 280.041 282.703Z" fill="white"/>
<path d="M290.467 270.804C289.947 270.804 289.497 270.645 289.121 270.325C288.749 270.006 288.563 269.577 288.563 269.036C288.563 268.517 288.749 268.091 289.121 267.762C289.497 267.432 289.947 267.268 290.467 267.268C290.986 267.268 291.434 267.432 291.806 267.762C292.182 268.091 292.372 268.517 292.372 269.036C292.372 269.577 292.182 270.006 291.806 270.325C291.434 270.645 290.986 270.804 290.467 270.804ZM292.007 285.116H288.907V272.229H292.007V285.116Z" fill="white"/>
<path d="M298.546 285.366C297.338 285.366 296.331 285.043 295.525 284.393C294.723 283.745 294.323 282.807 294.323 281.579C294.323 280.892 294.455 280.309 294.723 279.825C294.99 279.344 295.346 278.948 295.79 278.637C296.205 278.347 296.674 278.118 297.201 277.95C297.73 277.783 298.264 277.645 298.804 277.534L302.634 276.826C302.606 276.029 302.4 275.422 302.019 275.007C301.636 274.597 301.061 274.391 300.293 274.391C299.71 274.391 299.193 274.563 298.74 274.907C298.291 275.251 298.004 275.73 297.881 276.346H294.802C294.96 275.335 295.312 274.506 295.862 273.862C296.415 273.217 297.086 272.741 297.873 272.43C298.661 272.115 299.474 271.957 300.315 271.957C301.068 271.957 301.79 272.065 302.477 272.279C303.164 272.494 303.746 272.824 304.224 273.267C304.728 273.711 305.086 274.22 305.298 274.792C305.512 275.365 305.638 275.963 305.677 276.582C305.715 277.203 305.734 277.812 305.734 278.408V285.116H302.634V283.369C302.314 283.938 301.926 284.368 301.467 284.658C301.066 284.915 300.617 285.098 300.121 285.202C299.624 285.311 299.1 285.366 298.546 285.366ZM299.305 282.932C299.921 282.932 300.472 282.811 300.959 282.567C301.632 282.229 302.087 281.778 302.327 281.214C302.565 280.647 302.692 279.943 302.706 279.102L299.627 279.718C299.184 279.795 298.819 279.895 298.532 280.019C298.249 280.138 298.018 280.283 297.838 280.455C297.712 280.575 297.612 280.72 297.537 280.892C297.46 281.06 297.422 281.25 297.422 281.465C297.422 281.937 297.601 282.301 297.959 282.553C298.321 282.807 298.77 282.932 299.305 282.932Z" fill="white"/>
</svg>
