<svg width="48" height="48" viewBox="0 0 48 48" fill="none" xmlns="http://www.w3.org/2000/svg">
<mask id="mask0_2472_47" style="mask-type:alpha" maskUnits="userSpaceOnUse" x="0" y="0" width="48" height="48">
<rect width="48" height="48" fill="#D9D9D9"/>
</mask>
<g mask="url(#mask0_2472_47)">
<path d="M23.9999 26.8L14.1999 36.6C13.8332 36.9667 13.3665 37.15 12.7999 37.15C12.2332 37.15 11.7665 36.9667 11.3999 36.6C11.0332 36.2334 10.8499 35.7667 10.8499 35.2C10.8499 34.6334 11.0332 34.1667 11.3999 33.8L21.1999 24L11.3999 14.2C11.0332 13.8334 10.8499 13.3667 10.8499 12.8C10.8499 12.2334 11.0332 11.7667 11.3999 11.4C11.7665 11.0334 12.2332 10.85 12.7999 10.85C13.3665 10.85 13.8332 11.0334 14.1999 11.4L23.9999 21.2L33.7999 11.4C34.1665 11.0334 34.6332 10.85 35.1999 10.85C35.7665 10.85 36.2332 11.0334 36.5999 11.4C36.9665 11.7667 37.1499 12.2334 37.1499 12.8C37.1499 13.3667 36.9665 13.8334 36.5999 14.2L26.7999 24L36.5999 33.8C36.9665 34.1667 37.1499 34.6334 37.1499 35.2C37.1499 35.7667 36.9665 36.2334 36.5999 36.6C36.2332 36.9667 35.7665 37.15 35.1999 37.15C34.6332 37.15 34.1665 36.9667 33.7999 36.6L23.9999 26.8Z" fill="#1C1B1F"/>
</g>
</svg>
