<svg width="231" height="86" viewBox="0 0 231 86" fill="none" xmlns="http://www.w3.org/2000/svg">
<path d="M74.7487 1.86511C74.5109 1.32453 74.1433 0.697468 73.9487 0.481239C73.6676 0.156894 73.6676 0.113648 73.9055 0.243386C74.0784 0.351501 75.6352 1.41103 77.3649 2.60029C79.0947 3.78955 81.5595 5.49777 82.8784 6.40593C84.1757 7.31409 85.9271 8.5466 86.7703 9.15205C87.5919 9.75749 88.4136 10.4927 88.5433 10.817C88.6946 11.1197 88.8244 11.7252 88.8244 12.136C88.8244 12.5469 88.6514 13.2172 88.4568 13.6064C88.2622 13.974 86.3379 16.2228 84.1973 18.558C81.7974 21.1744 80.1541 23.1637 79.9811 23.6394C79.8082 24.0935 79.6352 24.4827 79.5919 24.526C79.5487 24.5476 79.073 24.2449 78.4893 23.8557C77.9271 23.4448 75.3974 21.715 72.846 20.0068C69.9271 18.0607 68.046 16.6552 67.8082 16.2444C67.592 15.8768 67.419 15.2713 67.419 14.9038C67.419 14.5145 67.592 13.8226 67.8298 13.3901C68.046 12.9361 69.5163 11.3576 71.0947 9.8656C72.6947 8.37362 74.2514 6.73027 74.5974 6.1897C75.073 5.41127 75.2028 4.97881 75.2028 4.0274C75.2028 3.31385 75.0298 2.44893 74.7487 1.86511Z" fill="#FDFEFE"/>
<path d="M22.7271 42.1919C28.0893 34.2131 33.7542 25.7801 35.3542 23.4448L38.2514 19.1635H39.0947C39.8514 19.1635 40.6947 19.6608 52.2839 27.4883V28.4181C52.2839 29.2614 51.6352 30.2777 43.1596 42.7757C38.1433 50.1924 29.5163 62.9067 13.992 85.8703L13.192 85.9352C12.4785 85.9784 11.7866 85.5676 6.22986 81.8268C0.110949 77.6752 0.0677056 77.632 0.00284081 76.8319C-0.0404024 76.1183 0.370408 75.4264 4.00284 70.0423C6.22986 66.734 9.14878 62.3878 10.5109 60.3552C11.8731 58.3227 17.3866 50.1708 22.7271 42.1919Z" fill="#FDFEFE"/>
<path d="M49.6677 41.1108C51.7649 38.0187 55.9595 31.8129 58.9866 27.337L64.5001 19.1851H65.3001C66.0136 19.1851 66.9649 19.7473 78.4244 27.5099L78.446 28.4181C78.446 29.2614 78.1217 29.8236 74.9217 34.5806C72.9757 37.4565 69.2568 42.992 66.6622 46.8625C64.0676 50.7114 58.9649 58.2578 55.3325 63.6203C51.7217 68.9612 47.9163 74.5615 46.9001 76.0535C45.8839 77.5238 43.9812 80.3565 42.6623 82.3241C40.3271 85.8054 40.2623 85.8919 39.4623 85.9352C38.7487 85.9784 38.0569 85.5676 26.3379 77.6752V76.7454C26.3379 75.9237 26.6407 75.3832 29.2136 71.5559C30.8136 69.199 35.2028 62.6689 38.9866 57.0253C42.7704 51.3601 47.592 44.2029 49.6677 41.1108Z" fill="#FDFEFE"/>
<path d="M74.6838 43.0352C77.0406 39.5539 81.646 32.7643 84.8892 27.9424L90.8136 19.1635H91.5919C92.1757 19.1635 92.7379 19.4013 93.6892 20.0716C94.4027 20.569 97.1919 22.4718 104.824 27.5964H110.122L112.932 23.4448C115.614 19.4878 115.786 19.2716 116.5 19.2067C117.17 19.1419 117.754 19.4662 121.365 21.9096L121.944 22.2995C124.093 23.7458 126.728 25.5187 129.797 27.6181L135.159 27.4883L140.716 19.1635H141.516C142.23 19.1635 143.181 19.7473 154.662 27.5099L154.705 28.3749C154.77 29.1533 154.511 29.6074 152.046 33.2184C150.554 35.4239 146.77 41.0243 143.635 45.6516C140.522 50.3005 134.943 58.5605 131.246 64.0311C127.549 69.5017 122.684 76.6805 120.457 79.9889L120.447 80.0033C116.435 85.9353 116.391 86 115.635 86C115.008 86 113.819 85.2649 102.554 77.632L102.489 76.7887C102.446 76.0102 102.705 75.5562 105.105 72.0316C106.554 69.8909 110.576 63.9662 114.035 58.8416C117.495 53.7386 121.646 47.5977 123.246 45.2191C124.846 42.8406 126.943 39.7053 129.689 35.5969L129.581 29.4993L126.965 33.3698C125.516 35.4888 122.814 39.5107 120.932 42.3C119.051 45.111 116.522 48.8518 115.311 50.6249L115.004 51.0796C113.402 53.4542 108.739 60.3665 104.132 67.1664C99.2027 74.4966 94.3379 81.6971 93.3433 83.1674C91.5919 85.7838 91.5055 85.8919 90.7055 85.9352C89.9919 85.9784 89.3 85.5892 77.5595 77.6536L77.5811 76.6805C77.6028 75.794 77.9703 75.1886 82.9649 67.8151C85.9054 63.4905 89.646 57.9767 91.246 55.5982C92.846 53.2196 95.1811 49.7816 96.4352 47.922C97.6676 46.0841 100.068 42.5379 104.824 35.4888V32.6346C104.824 30.8615 104.738 29.7587 104.608 29.7587C104.478 29.7587 102.987 31.8345 101.3 34.3644C99.5919 36.8943 96.3487 41.673 94.1217 45.0029C91.873 48.3329 86.5974 56.182 82.3811 62.4094C78.1865 68.6584 74.1001 74.6912 73.3217 75.8156C72.5649 76.9616 70.6839 79.7078 69.192 81.9349L69.1919 81.935C66.446 85.9784 66.446 85.9784 65.6244 85.9784C64.9541 85.9784 64.3055 85.6325 61.8406 83.9675C60.219 82.8431 57.473 80.9619 52.6082 77.632V76.6805C52.6082 75.7724 53.1055 74.9723 61.4947 62.5175C66.3811 55.2738 72.3271 46.4949 74.6838 43.0352Z" fill="#FDFEFE"/>
<path d="M47.8313 0.827154C47.5286 0.437941 47.3124 0.0703512 47.3124 0.00548228C47.3124 -0.0593866 48.1124 0.459564 49.0854 1.12988C50.0584 1.82181 52.48 3.48678 54.4259 4.84902C56.3935 6.21127 58.7286 7.83299 59.6151 8.46006C60.5232 9.0655 61.561 9.93042 61.9502 10.3629C62.4908 10.9683 62.6421 11.3359 62.6421 12.0062C62.6421 12.4819 62.5124 13.1955 62.3178 13.5847C62.1448 13.9739 60.1989 16.2876 57.9935 18.7093C55.2259 21.7798 53.907 23.4015 53.7124 23.9637C53.5827 24.4178 53.4097 24.7638 53.3448 24.7205C53.28 24.6989 50.707 22.9691 47.6367 20.8716C44.5665 18.7958 41.8638 16.8065 41.6043 16.4389C41.3232 16.0497 41.1719 15.4659 41.1719 14.9253C41.1719 14.4496 41.3232 13.7793 41.4962 13.4117C41.6908 13.0657 43.2043 11.4656 44.8908 9.84393C47.0746 7.78975 48.1124 6.62211 48.5016 5.84368C48.7827 5.25986 49.0421 4.48143 49.0421 4.11384C49.0421 3.76788 48.8908 3.0327 48.6962 2.49212C48.5016 1.97317 48.1124 1.21637 47.8313 0.827154Z" fill="#FDFEFE"/>
<path d="M165.02 21.7366C165.366 21.2176 165.928 20.4176 166.274 19.9635C166.772 19.3364 167.053 19.1418 167.593 19.1418C168.134 19.1418 169.626 20.0716 180.61 27.4883L180.653 28.3532C180.718 29.1532 180.285 29.8452 173.496 39.8998C169.518 45.8029 163.377 54.8629 153.474 69.5233V75.6858L153.929 75.1453C154.166 74.8642 158.837 67.9881 164.285 59.9011C169.734 51.8141 175.55 43.2082 177.193 40.7648L177.856 39.7882C179.751 36.9961 183.187 31.9328 186.015 27.7477C191.701 19.358 191.874 19.1418 192.545 19.1418C193.02 19.1418 193.777 19.4878 194.815 20.2013C195.68 20.7635 198.512 22.6663 201.085 24.4178C205.712 27.5315 205.799 27.5964 205.799 28.3316C205.799 28.9586 205.064 30.1695 201.626 35.2509C199.334 38.6241 196.112 43.4244 194.447 45.8894C192.783 48.3544 188.523 54.6683 178.534 69.4152V75.6858L179.593 74.1722C180.156 73.3506 184.61 66.7772 189.474 59.5767C194.339 52.3979 199.983 44.0514 201.993 41.0675C204.026 38.0619 207.918 32.2886 210.664 28.2234C213.388 24.1583 215.896 20.4608 216.22 19.9851C216.718 19.2932 216.934 19.1418 217.582 19.1418C218.166 19.1418 218.923 19.5526 221.193 21.1095C222.772 22.1906 225.539 24.0718 230.664 27.4666V28.3964C230.664 29.1965 230.404 29.6938 228.631 32.2886C227.528 33.9319 223.161 40.3755 218.945 46.603C215.203 52.1484 210.406 59.2434 207.575 63.4303L206.599 64.8744C204.047 68.68 199.81 74.9723 197.193 78.8212C192.501 85.7838 192.437 85.8702 191.658 85.9135C191.031 85.9567 190.555 85.7621 189.41 85.0053C188.61 84.4864 185.82 82.5836 178.447 77.5454L173.042 77.6319L167.42 85.9567H166.599C165.928 85.9567 165.237 85.5891 162.491 83.7296C160.674 82.4971 157.885 80.5942 153.366 77.5238H148.177L142.447 85.9567L141.626 85.9784C140.934 85.9784 139.961 85.3945 134.664 81.8051C128.545 77.6535 128.502 77.6103 128.437 76.8318C128.393 76.0967 129.085 74.9939 136.307 64.2905C140.674 57.8469 148.783 45.8462 154.318 37.6294C159.853 29.4343 164.674 22.2771 165.02 21.7366Z" fill="#FDFEFE"/>
</svg>
