<svg width="377" height="592" viewBox="0 0 377 592" fill="none" xmlns="http://www.w3.org/2000/svg">
<g clip-path="url(#clip0_53_4968)">
<rect x="283.994" y="114.425" width="315.485" height="159.25" fill="#FF7A05"/>
<path d="M284.108 273.79H330.745C330.745 211.95 380.041 161.835 440.843 161.835V273.79H440.944V114.31C354.333 114.31 284.108 185.706 284.108 273.79Z" fill="#5A3EE5"/>
<rect x="286.487" y="-44.1343" width="312.992" height="159.25" fill="#FFC803"/>
<path d="M286.036 114.491V115.001H207.788H129.54L207.788 -44.1343L285.635 114.491H286.036Z" fill="#FF7A05"/>
<path d="M284.563 33.8675V111.485H284.169L207.731 -44.2495H284.563V33.8675Z" fill="#FFC803"/>
<path d="M129.538 114.425H286.147C242.898 114.425 207.843 150.222 207.843 194.385C207.843 238.549 242.898 274.346 286.147 274.346H207.843H129.538V114.425Z" fill="#5E50FF"/>
<path d="M443.663 512.54V592.155C400.414 592.155 365.358 556.513 365.358 512.54C365.358 468.567 400.414 432.925 443.663 432.925V512.54Z" fill="#5A3EE5"/>
<path d="M286.147 432.925H443.663C400.164 432.925 364.905 468.572 364.905 512.55C364.905 556.529 400.164 592.175 443.663 592.175H364.905H286.147V432.925Z" fill="#FFC803"/>
<rect x="284.107" y="273.674" width="315.371" height="159.25" fill="#5E50FF"/>
<path d="M216.455 506.778V586.393C173.206 586.393 138.15 550.751 138.15 506.778C138.15 462.805 173.206 427.163 216.455 427.163V506.778Z" fill="#5A3EE5"/>
<path d="M131.352 512.54V592.155H286.147V432.925H131.352V512.54Z" fill="#FF7A05"/>
<path d="M-45.6289 353.332C-2.37973 353.332 32.6756 388.974 32.6756 432.946C-10.5735 432.946 -45.6289 397.304 -45.6289 353.332Z" fill="#5A3EE5"/>
<path d="M32.6756 273.716C75.9248 273.716 110.98 309.358 110.98 353.331C110.98 397.304 75.9248 432.946 32.6756 432.946C32.6756 388.973 -2.37973 353.331 -45.6289 353.331C-45.6289 309.358 -10.5735 273.716 32.6756 273.716Z" fill="#FF7A05"/>
<path d="M132.404 592.134L129.991 592.121L130.385 273.674L132.798 273.687L132.404 592.134Z" fill="#5A3EE5"/>
<path d="M147.537 592.134L145.124 592.121L145.505 273.674L147.931 273.687L147.537 592.134Z" fill="#5A3EE5"/>
<path d="M162.669 592.134L160.256 592.121L160.638 273.674L163.063 273.687L162.669 592.134Z" fill="#5A3EE5"/>
<path d="M177.8 592.134L175.387 592.121L175.769 273.674L178.194 273.687L177.8 592.134Z" fill="#5A3EE5"/>
<path d="M192.933 592.134L190.52 592.121L190.901 273.674L193.314 273.687L192.933 592.134Z" fill="#5A3EE5"/>
<path d="M208.065 592.134L205.652 592.121L206.034 273.674L208.447 273.687L208.065 592.134Z" fill="#5A3EE5"/>
<path d="M223.198 592.134L220.772 592.121L221.166 273.674L223.579 273.687L223.198 592.134Z" fill="#5A3EE5"/>
<path d="M238.329 592.134L235.903 592.121L236.297 273.674L238.711 273.687L238.329 592.134Z" fill="#5A3EE5"/>
<path d="M253.461 592.134L251.035 592.121L251.429 273.674L253.842 273.687L253.461 592.134Z" fill="#5A3EE5"/>
<path d="M268.594 592.134L266.168 592.121L266.562 273.674L268.976 273.687L268.594 592.134Z" fill="#5A3EE5"/>
<path d="M283.725 592.134L281.3 592.121L281.694 273.674L284.107 273.687L283.725 592.134Z" fill="#5A3EE5"/>
<path d="M286.494 115.116L283.994 115.103L284.402 -204.546L286.902 -204.534L286.494 115.116Z" fill="#5A3EE5"/>
<path d="M302.171 115.116L299.671 115.103L300.066 -204.546L302.579 -204.534L302.171 115.116Z" fill="#5A3EE5"/>
<path d="M317.849 115.116L315.349 115.103L315.745 -204.546L318.258 -204.534L317.849 115.116Z" fill="#5A3EE5"/>
<path d="M333.526 115.116L331.026 115.103L331.421 -204.546L333.934 -204.534L333.526 115.116Z" fill="#5A3EE5"/>
<path d="M349.203 115.116L346.703 115.103L347.099 -204.546L349.599 -204.534L349.203 115.116Z" fill="#5A3EE5"/>
<path d="M364.881 115.116L362.38 115.103L362.776 -204.546L365.276 -204.534L364.881 115.116Z" fill="#5A3EE5"/>
<path d="M303.475 353.299L303.5 432.924L225.205 432.949C225.192 388.971 260.232 353.313 303.475 353.299Z" fill="#5A3EE5"/>
<path d="M225.205 432.95L303.5 432.925L303.524 512.55C260.28 512.564 225.219 476.929 225.205 432.95Z" fill="#5A3EE5"/>
<path d="M130.219 512.54V592.155C86.9694 592.155 51.9141 556.513 51.9141 512.54C51.9141 468.567 86.9694 432.925 130.219 432.925V512.54Z" fill="#5A3EE5"/>
<path d="M129.785 35.0875V114.424C86.6869 114.424 51.7539 78.9069 51.7539 35.0875C51.7539 -8.73193 86.6869 -44.2495 129.785 -44.2495V35.0875Z" fill="#5A3EE5"/>
<path d="M-26.2773 -44.2495H129.785C86.6869 -44.2495 51.7539 -8.73193 51.7539 35.0875C51.7539 78.9069 86.6869 114.424 129.785 114.424H51.7539H-26.2773V-44.2495Z" fill="#5E50FF"/>
</g>
<defs>
<clipPath id="clip0_53_4968">
<rect width="634" height="1114" fill="white" transform="translate(0 -522)"/>
</clipPath>
</defs>
</svg>
