<svg width="380" height="49" viewBox="0 0 380 49" fill="none" xmlns="http://www.w3.org/2000/svg">
<g clip-path="url(#clip0_276_186)">
<path d="M20.0288 3.76923L20.33 1.58308C20.4053 1.20615 20.2547 0.904615 20.0288 0.603077C19.8029 0.376923 19.5018 0.226154 19.1253 0.226154H6.09915C5.49678 0.226154 5.04501 0.678462 4.96971 1.20615L1.35552 23.5954C1.28023 23.9723 1.43082 24.2738 1.65671 24.5754C1.88259 24.8015 2.18378 25.0277 2.56025 25.0277H5.57208C6.17444 25.0277 6.62621 24.5754 6.70151 24.0477L8.05683 15.3785H15.5864C16.1888 15.3785 16.6405 14.9262 16.7158 14.3985L17.017 12.5138C17.0923 12.1369 16.9417 11.8354 16.7158 11.5338C16.4899 11.2323 16.1888 11.0815 15.8123 11.0815H8.73449L9.63804 4.82462H18.7488C19.5018 4.74923 19.9535 4.37231 20.0288 3.76923ZM89.0749 11.2323H88.9996C88.1713 11.0062 87.2678 10.8554 86.2136 10.8554C84.5571 10.8554 83.2018 11.5338 82.3736 12.8908C81.5453 14.2477 81.0935 15.7554 81.0935 17.3385C81.0935 18.3938 81.2441 19.2231 81.6206 19.9015C81.9971 20.58 82.5242 20.9569 83.2018 20.9569C83.9548 20.9569 84.783 20.5046 85.7619 19.5246C86.6654 18.62 87.569 17.4892 88.3219 16.2831L89.0749 11.2323ZM94.5714 8.66923L92.162 24.0477C92.0867 24.6508 91.5596 25.0277 91.0326 25.0277H89.2255C88.9243 25.0277 88.6231 24.8769 88.3972 24.6508C88.1713 24.4246 88.0207 24.1231 88.096 23.8215L88.1713 21.9369L87.9454 22.1631C87.9454 22.1631 87.2678 22.9169 86.4395 23.52C85.2348 24.4246 83.9548 24.9523 83.8042 25.0277C83.0512 25.3292 82.2983 25.4046 81.47 25.4046C79.6629 25.4046 78.3076 24.7262 77.3288 23.4446C76.3499 22.1631 75.8981 20.3538 75.8981 18.2431C75.8981 17.1123 75.9734 16.0569 76.1993 15.0015C76.4252 13.9462 76.8017 12.8908 77.3288 11.9108C77.8558 10.8554 78.5335 9.95077 79.3617 9.19692C80.19 8.44308 81.2441 7.76462 82.5242 7.31231C83.8042 6.86 85.3101 6.55846 86.8913 6.55846C88.849 6.55846 91.1079 6.78462 93.6679 7.31231C94.2703 7.46308 94.6467 8.06615 94.5714 8.66923ZM107.447 6.78462C106.242 7.08615 105.038 7.84 104.285 8.36769C103.381 9.04615 102.101 10.4031 102.101 10.4031L101.875 10.6292L101.95 8.21692C101.95 7.91538 101.875 7.61385 101.649 7.31231C101.423 7.08615 101.122 6.93538 100.821 6.93538H99.0139C98.4115 6.93538 97.9598 7.31231 97.8845 7.91538L95.3997 23.5954C95.3244 23.9723 95.475 24.2738 95.7009 24.5754C95.9268 24.8015 96.228 24.9523 96.6044 24.9523H99.3904C99.9927 24.9523 100.445 24.5 100.52 23.9723L101.8 15.6046C102.553 14.5492 103.532 13.6446 104.661 12.8908C105.565 12.3631 106.393 11.9862 107.296 11.8354C107.748 11.76 108.2 11.3831 108.275 10.8554L108.802 7.99077C108.878 7.61385 108.727 7.23692 108.426 6.93538C108.2 6.78462 107.823 6.70923 107.447 6.78462ZM51.4271 14.6246C51.4271 13.5692 51.2765 12.74 50.9 12.0615C50.5235 11.3831 49.9965 11.0062 49.3188 11.0062C48.5659 11.0062 47.7376 11.4585 46.7588 12.4385C45.7799 13.3431 44.9517 14.4738 44.1987 15.68L43.3705 20.7308H43.4458C44.274 20.9569 45.1776 21.1077 46.2317 21.1077C47.9635 21.1077 49.2435 20.4292 50.0718 19.0723C50.9753 17.7908 51.4271 16.2831 51.4271 14.6246ZM55.1919 8.59385C56.1707 9.87538 56.6225 11.6846 56.6225 13.72C56.6225 15.0769 56.3966 16.5092 56.0201 17.7908C55.6436 19.0723 55.0413 20.3538 54.213 21.56C53.3848 22.7662 52.2553 23.6708 50.8247 24.4246C49.3188 25.1785 47.587 25.48 45.6293 25.48C44.8764 25.48 43.8975 25.4046 42.6928 25.2538H42.5422L42.3163 27.3646V27.44L41.714 31.2092C41.6387 31.8123 41.1116 32.1892 40.5845 32.1892H37.7986C37.4221 32.1892 37.1209 32.0385 36.895 31.8123C36.6692 31.5862 36.5939 31.2092 36.5939 30.8323L40.208 8.06615C40.2833 7.46308 40.8104 7.08615 41.3375 7.08615H43.1446C43.4458 7.08615 43.7469 7.23692 43.9728 7.46308C44.1987 7.68923 44.3493 7.99077 44.274 8.29231L44.4246 10.1015L44.6505 9.8C44.6505 9.8 46.3823 7.68923 49.0176 6.86C49.7706 6.63385 50.4482 6.48308 51.1259 6.48308C52.8577 6.63385 54.213 7.23692 55.1919 8.59385ZM119.795 6.93538H117.612L118.064 3.84462C118.139 3.46769 117.988 3.16615 117.762 2.86462C117.537 2.63846 117.235 2.48769 116.859 2.48769H114.675C114.148 2.48769 113.697 2.86462 113.546 3.31692L112.492 6.93538H111.287C110.685 6.93538 110.233 7.31231 110.158 7.91538L109.856 9.57385C109.781 9.95077 109.856 10.2523 110.158 10.5538C110.384 10.78 110.685 10.9308 111.061 10.9308H111.814L110.534 19.2985C110.459 19.8262 110.384 20.3538 110.384 20.9569C110.384 22.4646 110.76 23.52 111.588 24.2738C112.417 25.0277 113.621 25.4046 115.202 25.4046C116.181 25.4046 117.537 25.0277 117.687 24.9523C117.838 24.8769 118.064 24.8015 118.064 24.8015C118.139 24.8015 118.139 24.7262 118.214 24.7262C118.591 24.5754 118.741 24.1985 118.817 23.8215L119.043 22.0877C119.043 21.7108 118.967 21.3338 118.666 21.1077C118.591 21.0323 118.515 20.9569 118.44 20.8815C118.365 20.8815 118.29 20.8062 118.29 20.8062C118.214 20.8062 118.139 20.8062 117.687 20.8062C117.612 20.8062 117.461 20.8062 117.386 20.8062C117.16 20.8062 117.085 20.8062 117.01 20.8062C116.859 20.8062 116.407 20.6554 116.257 20.5046C116.181 20.4292 115.88 20.1277 115.88 19.1477C115.88 19.0723 115.88 18.9215 115.88 18.6954L117.085 11.0062H119.57C120.097 11.0062 120.624 10.6292 120.699 10.0262L121 8.36769C121.075 7.99077 121 7.68923 120.774 7.38769C120.473 7.16154 120.172 6.93538 119.795 6.93538ZM75.4464 7.46308C75.2205 7.16154 74.844 7.01077 74.4675 7.01077H71.531C71.0039 7.01077 70.5522 7.38769 70.4016 7.84C70.1757 8.66923 69.7239 9.64923 68.971 10.78C67.9921 12.2877 67.2392 13.2677 66.5615 13.72L66.4862 13.7954C66.2603 13.9462 65.8838 14.0969 64.6038 14.3231H64.4532L66.4862 1.65846C66.5615 1.28154 66.4109 0.98 66.185 0.678462C65.9591 0.452308 65.6579 0.226154 65.2815 0.226154H62.4955C61.8932 0.226154 61.4414 0.678462 61.3661 1.20615L57.8272 23.5954C57.7519 23.9723 57.9025 24.2738 58.0531 24.5754C58.279 24.8015 58.5802 25.0277 58.9566 25.0277H61.7426C62.3449 25.0277 62.7967 24.5754 62.872 24.0477L63.7756 18.1677H65.5074L67.9168 24.2738C68.0674 24.7262 68.5192 25.0277 68.971 25.0277H71.9828C72.6604 25.0277 73.1875 24.5 73.1875 23.8215C73.1875 23.6708 73.1875 23.52 73.1122 23.3692L70.3263 16.2831L70.4016 16.2077C71.531 15.1523 72.7357 13.72 73.8652 11.9108C74.6181 10.7046 75.1452 9.57385 75.4464 8.51846C75.6723 8.14154 75.597 7.76462 75.4464 7.46308ZM35.0126 5.42769C36.1421 5.42769 37.0456 5.12615 37.5727 4.52308C38.1751 3.92 38.4009 3.16615 38.4009 2.18615C38.4009 1.43231 38.1751 0.904615 37.7986 0.527692C37.3468 0.150769 36.7444 0 35.9162 0C34.7868 0 33.8832 0.301538 33.3561 0.904615C32.7538 1.50769 32.4526 2.26154 32.4526 3.24154C32.4526 3.99538 32.6785 4.52308 33.055 4.9C33.5067 5.27692 34.1091 5.42769 35.0126 5.42769ZM35.9162 6.93538H33.1303C32.5279 6.93538 32.0761 7.31231 32.0008 7.91538L29.5161 23.5954C29.4408 23.9723 29.5914 24.2738 29.8173 24.5754C30.0431 24.8015 30.3443 24.9523 30.7208 24.9523H33.5067C34.1091 24.9523 34.5609 24.5 34.6362 23.9723L37.1209 8.29231C37.1962 7.91538 37.0456 7.61385 36.8197 7.31231C36.5939 7.16154 36.2927 6.93538 35.9162 6.93538ZM27.9349 0.678462C28.1607 0.904615 28.236 1.28154 28.236 1.65846L25.5254 19.0723C25.5254 19.3738 25.5254 19.5246 25.5254 19.6754C25.5254 20.2785 25.676 20.6554 25.8266 20.8815C26.0525 21.1077 26.5042 21.1831 26.5795 21.1831C26.8054 21.1831 27.0313 21.3338 27.2572 21.56C27.4831 21.7862 27.6337 22.1631 27.5584 22.4646L27.4078 24.0477C27.4078 24.3492 27.2572 24.6508 27.0313 24.8015C26.8054 24.9523 26.5795 25.0277 26.2784 25.1785C25.9772 25.3292 25.1489 25.5554 24.5466 25.5554C23.1159 25.5554 21.9112 25.1785 21.1583 24.5754C20.4053 23.8969 20.0288 22.9169 20.0288 21.7108C20.0288 21.3338 20.0288 21.0323 20.1041 20.58C20.1041 20.4292 23.0407 1.65846 23.1159 1.43231C23.1912 0.829231 23.7183 0.452308 24.2454 0.452308H27.0313C27.4078 0.226154 27.709 0.376923 27.9349 0.678462Z" fill="white"/>
<path d="M108.35 37.4661C108.35 37.4661 110.082 38.3707 110.985 38.6723C111.814 39.0492 111.889 40.4061 110.985 40.8584C110.082 41.3107 109.781 41.3861 109.781 41.3861C109.781 41.3861 109.931 41.0092 109.931 40.6323C109.856 39.9538 107.974 39.4261 106.694 39.1246C106.694 39.1246 105.715 36.0338 105.263 35.2046C104.811 34.3753 103.908 33.9984 103.908 33.9984H106.016C106.016 33.9984 106.769 33.9984 107.07 34.7523C107.371 35.5815 108.35 37.4661 108.35 37.4661Z" fill="white"/>
<path d="M108.2 44.1754C108.2 44.1754 107.371 45.9093 106.995 46.8139C106.618 47.6431 105.263 47.7185 104.811 46.8139C104.359 45.9093 104.284 45.6831 104.284 45.6831C104.284 45.6831 104.585 45.7585 104.962 45.6831C105.639 45.6077 106.167 43.7231 106.468 42.4416C106.468 42.4416 109.48 41.4616 110.383 41.0093C111.211 40.557 111.588 39.6523 111.588 39.6523V42.0647C111.588 42.0647 111.588 42.517 110.835 42.8185C110.082 43.2708 108.2 44.1754 108.2 44.1754Z" fill="white"/>
<path d="M101.423 44.0246C101.423 44.0246 99.6915 43.1954 98.7879 42.8185C97.9597 42.4415 97.8844 41.0846 98.7879 40.6323C99.6915 40.18 100.068 40.1046 100.068 40.1046C100.068 40.1046 99.8421 40.4815 99.9173 40.9338C99.9926 41.6123 101.8 42.0646 103.08 42.3662C103.08 42.3662 104.059 45.3815 104.51 46.2862C105.037 47.3415 105.79 47.4923 105.79 47.4923H103.381C103.381 47.4923 102.929 47.4923 102.628 46.7385C102.402 45.9092 101.423 44.0246 101.423 44.0246Z" fill="white"/>
<path d="M101.574 37.3153C101.574 37.3153 102.402 35.5815 102.779 34.6769C103.155 33.8476 104.51 33.7723 104.962 34.6769C105.414 35.5815 105.489 35.8076 105.489 35.8076C105.489 35.8076 105.113 35.8076 104.812 35.8076C104.134 35.883 103.607 37.6923 103.306 38.9738C103.306 38.9738 100.294 39.9538 99.3903 40.4061C98.1856 41.0092 98.1855 41.6876 98.1855 41.6876L98.2608 39.2753C98.2608 39.2753 98.2608 38.823 99.0138 38.5215C99.7668 38.2199 101.574 37.3153 101.574 37.3153Z" fill="white"/>
<path d="M7.98133 45.7584H0L1.7318 34.6769H9.78843L9.48724 36.863H3.99067L3.61419 39.2H8.35781L8.05663 41.2353H3.31301L2.93653 43.6477H8.35781L7.98133 45.7584Z" fill="white"/>
<path d="M17.3932 45.7585H14.6072L13.4778 43.4216L11.5201 45.7585H8.88477L12.4237 41.6123L10.3154 37.4662H13.1013L14.2308 39.8785L16.2637 37.4662H18.8238L15.2849 41.537L17.3932 45.7585Z" fill="white"/>
<path d="M24.5464 37.3154C25.3747 37.3154 25.977 37.617 26.4288 38.22C26.8806 38.8231 27.1065 39.6524 27.1065 40.557C27.1065 41.16 27.0312 41.8385 26.8053 42.4416C26.6547 43.0447 26.3535 43.5724 25.977 44.1754C25.6006 44.7031 25.0735 45.1554 24.3958 45.5324C23.7182 45.8339 22.8899 45.9847 21.9864 45.9847C21.6099 45.9847 21.1581 45.9847 20.6311 45.9093L20.5558 46.8139L20.3299 49H17.9204L19.7275 37.5416H21.6099L21.5346 39.2754C22.3629 37.9939 23.3417 37.3154 24.5464 37.3154ZM23.7935 39.4262C23.4923 39.4262 23.1158 39.6524 22.664 40.0293C22.2123 40.4816 21.8358 40.9339 21.5346 41.537L21.1581 43.7231C21.5346 43.8739 21.9111 43.8739 22.4381 43.8739C23.1911 43.8739 23.7182 43.5724 24.0946 42.9693C24.4711 42.3662 24.697 41.6877 24.697 40.9339C24.697 40.4816 24.6217 40.1047 24.4711 39.8031C24.3205 39.577 24.0946 39.4262 23.7935 39.4262Z" fill="white"/>
<path d="M32.2266 43.7985L32.0007 45.6831C31.4736 45.8339 30.8713 45.9847 30.2689 45.9847C29.5913 45.9847 29.0642 45.8339 28.6877 45.5324C28.3112 45.2308 28.1606 44.7785 28.1606 44.1754C28.1606 44.0247 28.1606 43.8739 28.2359 43.6477L29.6666 34.3H32.1513L30.796 42.9693C30.796 43.12 30.796 43.1954 30.796 43.2708C30.796 43.497 30.8713 43.7231 30.9466 43.7985C31.0219 43.8739 31.2478 43.9493 31.4736 43.9493C31.6242 43.8739 31.9254 43.8739 32.2266 43.7985Z" fill="white"/>
<path d="M36.8949 45.9846C35.7655 45.9846 34.862 45.6831 34.2596 45.08C33.6572 44.4769 33.2808 43.6477 33.2808 42.5923C33.2808 41.0092 33.7325 39.8031 34.6361 38.8231C35.5396 37.8431 36.7444 37.3907 38.175 37.3907C39.3797 37.3907 40.2832 37.6923 40.8856 38.2954C41.5633 38.8984 41.8645 39.7277 41.8645 40.7831C41.8645 42.3661 41.4127 43.6477 40.5091 44.6277C39.6809 45.4569 38.4762 45.9846 36.8949 45.9846ZM37.1208 43.8738C37.7985 43.8738 38.3256 43.6477 38.7773 43.12C39.1538 42.5923 39.3797 41.9138 39.3797 41.0092C39.3797 39.9538 38.9279 39.3507 37.9491 39.3507C37.2714 39.3507 36.7444 39.5769 36.2926 40.1046C35.8408 40.6323 35.6902 41.3107 35.6902 42.2907C35.6902 42.8184 35.8408 43.2707 36.0667 43.4969C36.2926 43.7984 36.6691 43.8738 37.1208 43.8738Z" fill="white"/>
<path d="M42.6172 45.7585L43.8972 37.4661H45.8549L45.7796 39.4261C46.6079 37.9938 47.662 37.24 48.942 37.24H49.0926L48.6408 39.7277C48.1138 39.7277 47.5867 39.8785 47.0596 40.2554C46.5326 40.5569 46.0808 41.0092 45.7796 41.4615L45.1019 45.6831H42.6172V45.7585Z" fill="white"/>
<path d="M57.1493 39.8031C57.074 41.7631 55.6434 42.6677 52.8574 42.6677C52.481 42.6677 52.1045 42.6677 51.728 42.5923C51.8033 43.0446 51.9539 43.4215 52.2551 43.6477C52.5563 43.8738 53.008 43.9492 53.761 43.9492C54.5892 43.9492 55.4175 43.7984 56.321 43.4969L55.9446 45.4569C54.9657 45.8338 54.0622 45.9846 53.0833 45.9846C51.6527 45.9846 50.6739 45.6831 50.0715 45.08C49.4691 44.4769 49.168 43.6477 49.168 42.5169C49.168 41.0846 49.6197 39.8784 50.448 38.8984C51.3515 37.9184 52.481 37.3907 53.9116 37.3907C55.041 37.3907 55.794 37.6169 56.321 38.0692C56.9234 38.5215 57.1493 39.0492 57.1493 39.8031ZM51.8033 41.16C51.8786 41.16 52.1045 41.16 52.3304 41.16C53.9116 41.16 54.7398 40.7831 54.7398 40.0292C54.7398 39.8031 54.6645 39.5769 54.514 39.4261C54.3634 39.2754 54.1375 39.2 53.8363 39.2C53.3092 39.2 52.9327 39.3507 52.5563 39.7277C52.1798 40.1046 51.9539 40.5569 51.8033 41.16Z" fill="white"/>
<path d="M64.0767 45.7584H61.5166L63.2484 34.6769H67.7661C69.1215 34.6769 70.1003 34.903 70.7027 35.4307C71.305 35.9584 71.5309 36.6369 71.5309 37.6169C71.5309 38.0692 71.4556 38.5215 71.3803 38.9738C71.305 39.3507 71.1544 39.803 70.9285 40.18C70.7027 40.5569 70.4015 40.9338 70.025 41.2353C69.6485 41.5369 69.1968 41.763 68.5944 41.9138C67.992 42.0646 67.3144 42.2153 66.5614 42.2153H64.6037L64.0767 45.7584ZM64.9802 40.18H66.7873C68.2932 40.18 69.0462 39.5015 69.0462 38.0692C69.0462 37.6169 68.8956 37.3153 68.6697 37.0892C68.4438 36.863 67.992 36.7123 67.3897 36.7123H65.5073L64.9802 40.18Z" fill="white"/>
<path d="M75.9732 43.7984L75.8226 45.6831C75.2202 45.9092 74.6179 46.06 74.0155 46.06C73.3378 46.06 72.8108 45.9092 72.4343 45.6077C72.0578 45.3061 71.9072 44.8538 71.9072 44.2508C71.9072 44.1 71.9072 43.9492 71.9825 43.7231L73.4131 34.3754H75.8979L74.5426 43.0446C74.5426 43.1954 74.5426 43.2708 74.5426 43.3461C74.5426 43.5723 74.6179 43.7984 74.6932 43.8738C74.7685 43.9492 74.9943 44.0246 75.2202 44.0246C75.3708 43.8738 75.672 43.8738 75.9732 43.7984Z" fill="white"/>
<path d="M85.7615 37.5415L84.4062 45.8338H82.5238L82.5991 44.1C81.6956 45.3815 80.6414 46.06 79.2861 46.06C78.5332 46.06 78.0061 45.8338 77.6296 45.4569C77.2531 45.08 77.1025 44.4769 77.1025 43.7984C77.1025 43.4969 77.1025 43.2707 77.1778 43.0446L78.0814 37.6169H80.4908L79.7379 42.4415C79.7379 42.5923 79.6626 42.743 79.6626 42.9692C79.6626 43.5723 79.8885 43.8738 80.3402 43.8738C80.7167 43.8738 81.0932 43.6477 81.4697 43.2707C81.9215 42.8938 82.2979 42.3661 82.6744 41.8384L83.3521 37.6169H85.7615V37.5415Z" fill="white"/>
<path d="M86.1382 45.5324L86.59 43.497C86.6653 43.5724 86.9664 43.7231 87.5688 43.7985C88.1712 43.9493 88.6982 43.9493 89.2253 43.9493C90.2794 43.9493 90.8065 43.7231 90.8065 43.1954C90.8065 42.9693 90.6559 42.8185 90.43 42.7431C90.2041 42.5924 89.8277 42.517 89.4512 42.4416C89.0747 42.3662 88.6982 42.2154 88.3218 42.14C87.9453 41.9893 87.6441 41.7631 87.3429 41.4616C87.117 41.16 86.9664 40.7077 86.9664 40.2554C86.9664 39.2754 87.3429 38.597 88.0206 38.0693C88.6982 37.5416 89.7524 37.3154 91.1077 37.3154C91.5595 37.3154 92.0112 37.3154 92.463 37.3908C92.9148 37.4662 93.216 37.4662 93.4419 37.5416C93.6677 37.617 93.8183 37.6924 93.8936 37.6924L93.5171 39.6524C93.3666 39.5016 92.9901 39.4262 92.5383 39.3508C92.0865 39.2754 91.6348 39.2 91.183 39.2C90.1288 39.2 89.5265 39.4262 89.5265 39.9539C89.5265 40.1047 89.6771 40.2554 89.903 40.4062C90.2041 40.4816 90.5053 40.6324 90.8818 40.7077C91.2583 40.7831 91.6348 40.8585 92.0112 41.0093C92.3877 41.16 92.6889 41.3862 92.9901 41.6877C93.2913 41.9893 93.3666 42.4416 93.3666 42.8939C93.3666 43.8739 92.9901 44.6277 92.2371 45.1554C91.4842 45.6077 90.5053 45.9093 89.2253 45.9093C88.7735 45.9093 88.2465 45.9093 87.7947 45.8339C87.2676 45.7585 86.9664 45.6831 86.6653 45.6831C86.2888 45.6077 86.2135 45.6077 86.1382 45.5324Z" fill="white"/>
</g>
<g clip-path="url(#clip1_276_186)">
<path d="M358.11 24.34L369.135 45.06H380L358.11 4.02002L336.3 44.98H347.085L358.11 24.34Z" fill="white"/>
<path d="M322.24 35.3799V3.93994H312.733V44.9799H331.187L336.3 35.3799H322.24Z" fill="white"/>
<path d="M285.89 2.5C281.576 2.5 277.342 3.78 273.747 6.18C270.152 8.58 267.355 12.02 265.678 16.02C264 20.1 263.601 24.5 264.399 28.74C265.278 33.06 267.355 36.98 270.391 40.02C273.427 43.06 277.342 45.22 281.576 46.02C285.81 46.9 290.204 46.42 294.198 44.74C298.193 43.06 301.628 40.26 304.025 36.66C306.422 33.06 307.7 28.82 307.7 24.42C307.7 18.58 305.383 12.98 301.309 8.9C297.234 4.82 291.642 2.5 285.89 2.5ZM285.89 36.34C283.573 36.34 281.256 35.62 279.339 34.34C277.422 33.06 275.904 31.22 275.025 29.06C274.146 26.9 273.906 24.5 274.306 22.18C274.785 19.86 275.904 17.78 277.501 16.1C279.179 14.42 281.256 13.3 283.493 12.82C285.81 12.34 288.127 12.58 290.284 13.46C292.441 14.34 294.278 15.86 295.556 17.86C296.835 19.78 297.554 22.1 297.554 24.42C297.554 27.54 296.276 30.58 294.118 32.82C291.961 35.14 288.926 36.34 285.89 36.34Z" fill="white"/>
</g>
<defs>
<clipPath id="clip0_276_186">
<rect width="121" height="49" fill="white"/>
</clipPath>
<clipPath id="clip1_276_186">
<rect width="116" height="44" fill="white" transform="translate(264 2.5)"/>
</clipPath>
</defs>
</svg>
