<svg width="203" height="1078" viewBox="0 0 203 1078" fill="none" xmlns="http://www.w3.org/2000/svg">
<g clip-path="url(#clip0_24_4175)">
<path d="M56.8748 64.0426V142.085H-88.6018V-14H56.8748V64.0426Z" fill="#FF7A05"/>
<path d="M-86.2975 142.085H-88.6018C-88.6018 56.0136 -23.3468 -14 56.8748 -14V-11.5276C-22.0666 -11.5276 -86.2975 57.3871 -86.2975 142.085Z" fill="#EAF943"/>
<path d="M-72.7977 142.085H-75.102C-75.1137 64.0051 -15.8989 0.472168 56.8744 0.472168V2.94456C-14.6303 2.95704 -72.7977 65.3662 -72.7977 142.085Z" fill="#EAF943"/>
<path d="M-59.3087 142.085H-61.613C-61.6247 71.9843 -8.4617 14.9446 56.8747 14.9446V17.417C-7.19315 17.4295 -59.3087 73.3454 -59.3087 142.085Z" fill="#EAF943"/>
<path d="M-45.8199 142.085H-48.1243C-48.1243 79.9636 -1.02475 29.4294 56.8749 29.4294V31.9018C0.243801 31.9018 -45.8199 81.3246 -45.8199 142.085Z" fill="#EAF943"/>
<path d="M-32.3309 142.085H-34.6353C-34.6353 87.9426 6.41243 43.9016 56.8754 43.9016V46.374C7.69263 46.374 -32.3309 89.3162 -32.3309 142.085Z" fill="#EAF943"/>
<path d="M-18.8421 142.085H-21.1465C-21.1465 95.9216 13.8494 58.3738 56.8755 58.3738V60.8462C15.1296 60.8462 -18.8421 97.2952 -18.8421 142.085Z" fill="#EAF943"/>
<path d="M-5.34189 142.085H-7.64624C-7.64624 103.913 21.2978 72.8457 56.8872 72.8457V75.3181C22.5663 75.3306 -5.34189 105.274 -5.34189 142.085Z" fill="#EAF943"/>
<path d="M8.14663 142.086H5.84229C5.84229 111.892 28.7345 87.3184 56.8871 87.3184V89.7908C30.003 89.8032 8.14663 113.253 8.14663 142.086Z" fill="#EAF943"/>
<path d="M21.6352 142.085H19.3308C19.3308 119.871 36.1712 101.803 56.8754 101.803V104.275C37.4397 104.275 21.6352 121.232 21.6352 142.085Z" fill="#EAF943"/>
<path d="M35.1229 142.085H32.8186C32.8186 127.85 43.6071 116.275 56.8746 116.275V118.747C44.8757 118.747 35.1229 129.224 35.1229 142.085Z" fill="#EAF943"/>
<path d="M48.6117 142.085H46.3074C46.3074 135.829 51.0441 130.747 56.8748 130.747V133.22C52.3243 133.22 48.6117 137.203 48.6117 142.085Z" fill="#EAF943"/>
<path d="M74.7192 844.044C34.6283 844.044 2.13274 878.983 2.13274 922.087C42.2237 922.087 74.7192 887.149 74.7192 844.044Z" fill="#5A3EE5"/>
<path d="M2.13274 766.001C-37.9582 766.001 -70.4538 800.94 -70.4538 844.044C-70.4538 887.149 -37.9582 922.087 2.13274 922.087C2.13274 878.982 34.6283 844.044 74.7192 844.044C74.7192 800.94 42.2237 766.001 2.13274 766.001Z" fill="#FF7A05"/>
<path d="M56.8862 922.066H-88.2868C-48.1958 922.066 -15.7003 957.005 -15.7003 1000.11C-15.7003 1043.21 -48.1958 1078.15 -88.2868 1078.15H-15.7003H56.8862V922.066Z" fill="#5E50FF"/>
<path d="M56.7812 454.316H-87.885C-47.934 454.316 -15.5519 489.132 -15.5519 532.086C-15.5519 575.04 -47.934 609.856 -87.885 609.856H-15.5519H56.7812V454.316Z" fill="#5E50FF"/>
<path d="M56.8859 220.148V298.191H129.472C129.472 255.086 96.9769 220.148 56.8859 220.148Z" fill="#FF7A05"/>
<path d="M56.8859 142.105V220.148C96.9769 220.148 129.472 185.21 129.472 142.105H56.8859Z" fill="#FF7A05"/>
<path d="M202.059 142.105H129.473C129.473 185.21 161.968 220.148 202.059 220.148V142.105Z" fill="#FF7A05"/>
<path d="M129.473 298.191H202.059V220.148C161.968 220.148 129.473 255.086 129.473 298.191Z" fill="#FF7A05"/>
<path d="M-88.4838 376.253V454.296H-15.8973H56.6892V453.796V376.253V298.21H-15.8973H-88.4838V376.253Z" fill="#FF7A05"/>
<path d="M38.6407 360.832L56.8047 391.674H20.4766L38.6407 360.832Z" fill="#EBE9FF"/>
<path d="M2.32413 360.832L20.4766 391.674H-15.8399L2.32413 360.832Z" fill="#EBE9FF"/>
<path d="M38.6407 329.053L56.8047 359.883H20.4766L38.6407 329.053Z" fill="#EBE9FF"/>
<path d="M2.32413 329.053L20.4766 359.883H-15.8399L2.32413 329.053Z" fill="#EBE9FF"/>
<path d="M38.6407 423.453L56.8047 454.296H20.4766L38.6407 423.453Z" fill="#EBE9FF"/>
<path d="M2.32413 423.453L20.4766 454.296H-15.8399L2.32413 423.453Z" fill="#EBE9FF"/>
<path d="M38.6411 391.674L56.8052 422.504H20.4771L38.6411 391.674Z" fill="#EBE9FF"/>
<path d="M2.32413 391.674L20.4766 422.504H-15.8399L2.32413 391.674Z" fill="#EBE9FF"/>
<path d="M38.7224 298.211L56.8865 329.053H20.5584L38.7224 298.211Z" fill="#EBE9FF"/>
<path d="M2.40542 298.21L20.5579 329.053H-15.7586L2.40542 298.21Z" fill="#EBE9FF"/>
<path d="M129.263 766.619C89.1747 766.619 56.6766 731.679 56.6766 688.577C56.6766 645.475 89.1747 610.534 129.263 610.534C169.352 610.534 201.85 645.475 201.85 688.577C201.85 731.679 169.352 766.619 129.263 766.619Z" fill="#FFC803"/>
<rect x="98" y="369" width="149" height="61" rx="30.5" transform="rotate(-90 98 369)" fill="white"/>
<path d="M140 330.5L137.78 331.24V338.44L140 339.18V344.9L123.2 338.72V330.96L140 324.78V330.5ZM133.68 337.08V332.6L128.4 334.36V335.32L133.68 337.08ZM140 306.52V311.96L135.66 314.24V318.44H140V323.98H123.2V314.36C123.2 309.7 125.2 307.08 129.62 307.08C131.88 307.08 133.48 308.1 134.48 309.52L140 306.52ZM127.8 318.44H131.52V314.74C131.52 313.34 130.84 312.62 129.66 312.62C128.48 312.62 127.8 313.34 127.8 314.74V318.44ZM123.2 288.296H127.82V294.336H140V299.876H127.82V305.916H123.2V288.296ZM140 286.995H123.2V281.455H140V286.995ZM140.56 272.058C140.54 277.858 138.74 280.598 134.38 280.458V275.478C135.52 275.418 136.22 274.458 136.24 272.058C136.26 269.938 135.66 268.958 134.88 268.958C134.34 268.958 133.78 269.258 133.54 270.898L133.2 273.058C132.68 276.238 132.3 280.058 128 280.058C124.68 280.058 122.64 277.358 122.64 272.018C122.64 267.198 123.98 263.838 128.78 263.938V268.878C127.66 269.078 126.96 270.018 126.96 272.138C126.96 273.978 127.52 274.738 128.28 274.738C128.76 274.738 129.34 274.438 129.54 273.158L129.84 271.378C130.4 268.038 130.5 263.458 135.1 263.458C138.76 263.458 140.58 266.298 140.56 272.058ZM123.2 245.499H127.82V251.539H140V257.079H127.82V263.119H123.2V245.499Z" fill="#5A3EE5"/>
<rect x="98" y="632" width="192" height="61" rx="30.5" transform="rotate(-90 98 632)" fill="white"/>
<path d="M140.56 599.3C140.54 605.1 138.74 607.84 134.38 607.7V602.72C135.52 602.66 136.22 601.7 136.24 599.3C136.26 597.18 135.66 596.2 134.88 596.2C134.34 596.2 133.78 596.5 133.54 598.14L133.2 600.3C132.68 603.48 132.3 607.3 128 607.3C124.68 607.3 122.64 604.6 122.64 599.26C122.64 594.44 123.98 591.08 128.78 591.18V596.12C127.66 596.32 126.96 597.26 126.96 599.38C126.96 601.22 127.52 601.98 128.28 601.98C128.76 601.98 129.34 601.68 129.54 600.4L129.84 598.62C130.4 595.28 130.5 590.7 135.1 590.7C138.76 590.7 140.58 593.54 140.56 599.3ZM140 589.652H123.2V580.112C123.2 575.532 125.24 572.812 129.76 572.812C134.28 572.812 136.32 575.532 136.32 580.092V584.112H140V589.652ZM131.72 584.112V580.592C131.72 579.252 131.06 578.392 129.76 578.392C128.46 578.392 127.8 579.252 127.8 580.572V584.112H131.72ZM140 571.605H123.2V556.465H127.64V566.065H129.78V556.825H133.42V566.065H135.56V556.465H140V571.605ZM140 541.562L137.78 542.303V549.502L140 550.242V555.962L123.2 549.782V542.022L140 535.842V541.562ZM133.68 548.142V543.663L128.4 545.422V546.382L133.68 548.142ZM140 516.722V522.382L134.02 526.862V527.222L136.48 529.522H140V535.042H123.2V529.522H129.86V529.162L123.2 523.102V516.942L130.68 523.762L140 516.722ZM140 516.222H123.2V501.082H127.64V510.682H129.78V501.442H133.42V510.682H135.56V501.082H140V516.222ZM140 482.215V487.655L135.66 489.935V494.135H140V499.675H123.2V490.055C123.2 485.395 125.2 482.775 129.62 482.775C131.88 482.775 133.48 483.795 134.48 485.215L140 482.215ZM127.8 494.135H131.52V490.435C131.52 489.035 130.84 488.315 129.66 488.315C128.48 488.315 127.8 489.035 127.8 490.435V494.135ZM140.56 473.722C140.54 479.522 138.74 482.262 134.38 482.122V477.142C135.52 477.082 136.22 476.122 136.24 473.722C136.26 471.602 135.66 470.622 134.88 470.622C134.34 470.622 133.78 470.922 133.54 472.562L133.2 474.722C132.68 477.902 132.3 481.722 128 481.722C124.68 481.722 122.64 479.022 122.64 473.682C122.64 468.862 123.98 465.502 128.78 465.602V470.542C127.66 470.742 126.96 471.682 126.96 473.802C126.96 475.642 127.52 476.402 128.28 476.402C128.76 476.402 129.34 476.102 129.54 474.822L129.84 473.042C130.4 469.702 130.5 465.122 135.1 465.122C138.76 465.122 140.58 467.962 140.56 473.722Z" fill="#5A3EE5"/>
</g>
<defs>
<clipPath id="clip0_24_4175">
<rect width="418.059" height="1092" fill="white" transform="matrix(-1 0 0 1 202.059 -14)"/>
</clipPath>
</defs>
</svg>
