<svg width="14" height="26" viewBox="0 0 14 26" fill="none" xmlns="http://www.w3.org/2000/svg">
<path d="M10.2995 13L0.499496 3.19998C0.166163 2.86665 0.00505152 2.4722 0.0161626 2.01665C0.0272737 1.56109 0.199496 1.16665 0.532829 0.833313C0.866163 0.49998 1.26061 0.333313 1.71616 0.333313C2.17172 0.333313 2.56616 0.49998 2.8995 0.833313L13.1328 11.1C13.3995 11.3666 13.5995 11.6666 13.7328 12C13.8662 12.3333 13.9328 12.6666 13.9328 13C13.9328 13.3333 13.8662 13.6666 13.7328 14C13.5995 14.3333 13.3995 14.6333 13.1328 14.9L2.86616 25.1666C2.53283 25.5 2.14394 25.6611 1.6995 25.65C1.25505 25.6389 0.866163 25.4666 0.532829 25.1333C0.199496 24.8 0.0328293 24.4055 0.0328293 23.95C0.0328293 23.4944 0.199496 23.1 0.532829 22.7666L10.2995 13Z" fill="#001B37"/>
</svg>
