<svg width="85" height="32" viewBox="0 0 85 32" fill="none" xmlns="http://www.w3.org/2000/svg">
<path d="M27.5452 0.687402C27.4576 0.488198 27.3221 0.257121 27.2504 0.17744C27.1469 0.0579172 27.1469 0.0419809 27.2345 0.0897898C27.2982 0.129631 27.8719 0.52007 28.5093 0.958319C29.1467 1.39657 30.055 2.02605 30.5411 2.36071C31.0191 2.69538 31.6645 3.14956 31.9753 3.37267C32.278 3.59578 32.5808 3.8667 32.6286 3.98622C32.6844 4.09777 32.7322 4.32088 32.7322 4.47228C32.7322 4.62367 32.6684 4.87068 32.5967 5.01411C32.525 5.14957 31.8159 5.97826 31.0271 6.83882C30.1427 7.80297 29.5372 8.53604 29.4734 8.71134C29.4097 8.87867 29.3459 9.02209 29.33 9.03803C29.3141 9.046 29.1388 8.93444 28.9236 8.79102C28.7165 8.63962 27.7843 8.00217 26.8441 7.37269C25.7684 6.65555 25.0753 6.13762 24.9876 5.98623C24.9079 5.85077 24.8442 5.62766 24.8442 5.4922C24.8442 5.34877 24.9079 5.09379 24.9956 4.93443C25.0753 4.7671 25.6171 4.18542 26.1987 3.63562C26.7883 3.08582 27.362 2.48024 27.4895 2.28103C27.6648 1.99418 27.7126 1.83482 27.7126 1.48422C27.7126 1.22127 27.6488 0.902542 27.5452 0.687402Z" fill="black"/>
<path d="M8.37505 15.548C10.351 12.6078 12.4386 9.50018 13.0282 8.63962L14.0958 7.06193H14.4066C14.6854 7.06193 14.9962 7.2452 19.2668 10.1297V10.4723C19.2668 10.7831 19.0278 11.1576 15.9045 15.7632C14.056 18.4962 10.8769 23.1815 5.15612 31.6437L4.86132 31.6676C4.59838 31.6835 4.34342 31.5321 2.29573 30.1536C0.0408852 28.6238 0.0249498 28.6078 0.00104685 28.313C-0.0148885 28.0501 0.136497 27.7951 1.47506 25.811C2.29573 24.5919 3.37137 22.9903 3.87333 22.2413C4.37529 21.4923 6.40704 18.4883 8.37505 15.548Z" fill="black"/>
<path d="M18.3028 15.1496C19.0756 14.0102 20.6213 11.7233 21.7368 10.0739L23.7686 7.0699H24.0634C24.3263 7.0699 24.6769 7.27707 28.8997 10.1376L28.9077 10.4723C28.9077 10.7831 28.7882 10.9902 27.609 12.7432C26.8919 13.803 25.5215 15.8428 24.5653 17.2691C23.6092 18.6875 21.7288 21.4684 20.3903 23.4445C19.0597 25.4126 17.6574 27.4763 17.2829 28.0261C16.9084 28.568 16.2073 29.6118 15.7212 30.3369C14.8607 31.6198 14.8368 31.6517 14.542 31.6676C14.2791 31.6835 14.0241 31.5321 9.70565 28.6238V28.2811C9.70565 27.9783 9.8172 27.7791 10.7654 26.3688C11.355 25.5002 12.9724 23.0939 14.3667 21.0142C15.7611 18.9265 17.5379 16.2891 18.3028 15.1496Z" fill="black"/>
<path d="M27.5213 15.8588C28.3898 14.5759 30.0869 12.0739 31.2821 10.297L33.4652 7.06193H33.752C33.9672 7.06193 34.1743 7.14958 34.5249 7.39659C34.7878 7.57986 35.8157 8.28106 38.6282 10.1695H40.5803L41.6161 8.63962C42.6041 7.18145 42.6678 7.10177 42.9308 7.07786C43.1778 7.05396 43.3929 7.17348 44.7235 8.07388L44.9367 8.21737C45.7287 8.75038 46.6996 9.40375 47.8309 10.1775L49.8069 10.1297L51.8545 7.06193H52.1494C52.4123 7.06193 52.7629 7.27707 56.9937 10.1376L57.0096 10.4564C57.0335 10.7432 56.9379 10.9105 56.0296 12.2412C55.4798 13.054 54.0855 15.1177 52.9302 16.8229C51.7828 18.5361 49.7272 21.5799 48.3647 23.5959C47.0023 25.6118 45.2095 28.2572 44.3889 29.4764L44.3852 29.4817C42.9069 31.6676 42.8907 31.6915 42.6121 31.6915C42.381 31.6915 41.9428 31.4206 37.7916 28.6078L37.7677 28.2971C37.7518 28.0102 37.8474 27.8429 38.7318 26.5441C39.2657 25.7552 40.7476 23.5719 42.0225 21.6835C43.2973 19.803 44.8271 17.5401 45.4167 16.6636C46.0063 15.7871 46.7792 14.6317 47.791 13.1177L47.7512 10.8707L46.7871 12.297C46.2533 13.0779 45.2573 14.56 44.5641 15.5879C43.871 16.6237 42.9387 18.0022 42.4926 18.6556L42.3809 18.8211C41.7919 19.6943 40.0722 22.2435 38.3733 24.7512C36.5567 27.4524 34.7639 30.1058 34.3974 30.6477C33.752 31.6118 33.7202 31.6517 33.4254 31.6676C33.1624 31.6835 32.9075 31.5401 28.581 28.6158L28.589 28.2572C28.597 27.9305 28.7324 27.7074 30.5729 24.9903C31.6565 23.3966 33.035 21.3648 33.6246 20.4883C34.2142 19.6118 35.0747 18.3448 35.5368 17.6596C35.991 16.9823 36.8754 15.6755 38.6282 13.0779V12.0261C38.6282 11.3727 38.5964 10.9663 38.5486 10.9663C38.5008 10.9663 37.951 11.7313 37.3295 12.6635C36.7001 13.5958 35.5049 15.3568 34.6843 16.5839C33.8556 17.811 31.9115 20.7034 30.3578 22.9982C28.8121 25.301 27.3062 27.5242 27.0194 27.9385C26.7405 28.3608 26.0473 29.3728 25.4975 30.1935L25.4975 30.1935C24.4857 31.6835 24.4857 31.6835 24.1829 31.6835C23.9359 31.6835 23.6969 31.556 22.7885 30.9425C22.191 30.5282 21.1791 29.8349 19.3864 28.6078V28.2572C19.3864 27.9226 19.5696 27.6277 22.6611 23.0381C24.4618 20.3687 26.6529 17.1337 27.5213 15.8588Z" fill="black"/>
<path d="M17.6257 0.30481C17.5141 0.161383 17.4344 0.0259247 17.4344 0.00202025C17.4344 -0.0218842 17.7292 0.169351 18.0878 0.416364C18.4463 0.671345 19.3387 1.28489 20.0558 1.78689C20.7809 2.28888 21.6414 2.88649 21.968 3.11757C22.3027 3.34068 22.6851 3.6594 22.8285 3.81877C23.0277 4.04188 23.0835 4.17733 23.0835 4.42435C23.0835 4.59965 23.0357 4.8626 22.964 5.00602C22.9003 5.14945 22.1832 6.00204 21.3705 6.89448C20.3506 8.02595 19.8646 8.62357 19.7929 8.83074C19.7451 8.99807 19.6813 9.12556 19.6574 9.10962C19.6335 9.10166 18.6854 8.4642 17.554 7.69129C16.4226 6.92635 15.4266 6.19328 15.331 6.05782C15.2274 5.91439 15.1716 5.69925 15.1716 5.50005C15.1716 5.32475 15.2274 5.07774 15.2911 4.94228C15.3629 4.81479 15.9206 4.22514 16.5421 3.62753C17.3468 2.87056 17.7292 2.44028 17.8727 2.15342C17.9762 1.93828 18.0719 1.65143 18.0719 1.51597C18.0719 1.38848 18.0161 1.11756 17.9444 0.918358C17.8727 0.727123 17.7292 0.448237 17.6257 0.30481Z" fill="black"/>
<path d="M60.8104 8.01002C60.9378 7.81878 61.145 7.52396 61.2725 7.35663C61.4557 7.12555 61.5593 7.05384 61.7585 7.05384C61.9577 7.05384 62.5075 7.39647 66.555 10.1295L66.571 10.4483C66.5949 10.7431 66.4355 10.9981 63.9337 14.7033C62.4676 16.8786 60.2048 20.2172 56.5556 25.6196V27.8906L56.723 27.6914C56.8106 27.5878 58.5316 25.0539 60.5395 22.0738C62.5473 19.0937 64.6906 15.9224 65.2961 15.022C65.9017 14.1296 67.3677 11.9702 68.547 10.2252C70.6424 7.13352 70.7062 7.05384 70.9532 7.05384C71.1285 7.05384 71.4073 7.18133 71.7898 7.44428C72.1085 7.65145 73.1523 8.35265 74.1004 8.99807C75.8055 10.1455 75.8374 10.1694 75.8374 10.4403C75.8374 10.6714 75.5665 11.1176 74.2996 12.9901C73.455 14.2331 72.2678 16.0021 71.6543 16.9104C71.0408 17.8188 69.4712 20.1455 65.7901 25.5798V27.8906L66.1806 27.3328C66.3877 27.03 68.0291 24.6077 69.8218 21.9543C71.6145 19.3089 73.6941 16.2332 74.4351 15.1335C75.184 14.026 76.6182 11.8985 77.6301 10.4005C78.634 8.90245 79.5583 7.5399 79.6778 7.3646C79.861 7.10962 79.9407 7.05384 80.1797 7.05384C80.3949 7.05384 80.6737 7.20523 81.5103 7.77894C82.092 8.17735 83.1118 8.87058 85.0002 10.1216V10.4642C85.0002 10.759 84.9045 10.9423 84.2512 11.8985C83.8448 12.5041 82.2354 14.8786 80.6817 17.1734C79.3054 19.2132 77.5416 21.8219 76.4977 23.3659L76.1322 23.9065C75.192 25.3089 73.6303 27.6276 72.6662 29.046C70.9372 31.6117 70.9133 31.6436 70.6265 31.6595C70.3954 31.6754 70.2202 31.6037 69.7979 31.3248C69.5031 31.1336 68.4752 30.4324 65.7583 28.5758L63.7664 28.6077L61.6948 31.6754H61.392C61.145 31.6754 60.89 31.54 59.8781 30.8547C59.2089 30.4005 58.181 29.6993 56.5158 28.5679H54.6036L52.4921 31.6754L52.1894 31.6834C51.9344 31.6834 51.5758 31.4683 49.6238 30.1456C47.3689 28.6157 47.353 28.5997 47.3291 28.3129C47.3132 28.042 47.5681 27.6356 50.2293 23.6913C51.8388 21.3168 54.8266 16.8945 56.8664 13.8666C58.9061 10.8467 60.6829 8.20922 60.8104 8.01002Z" fill="black"/>
</svg>
