<svg width="144" height="81" viewBox="0 0 144 81" fill="none" xmlns="http://www.w3.org/2000/svg">
<mask id="mask0_2326_6105" style="mask-type:luminance" maskUnits="userSpaceOnUse" x="0" y="20" width="34" height="43">
<path d="M0.397461 20.6113H33.083V62.4169H0.397461V20.6113Z" fill="white"/>
</mask>
<g mask="url(#mask0_2326_6105)">
<path d="M24.2271 20.7324H25.285L32.9684 25.9652V27.0231L9.13976 62.3758H8.08181L0.398438 57.1436V56.0856L24.2271 20.7324Z" fill="#57AEFF"/>
</g>
<path d="M40.537 20.7324H41.5901L49.2734 25.9652V27.0231L25.4513 62.3758H24.3933L16.71 57.1436V56.0856L40.537 20.7324Z" fill="#57AEFF"/>
<path d="M96.6539 25.9668V27.0247L72.8274 62.3758H71.777L64.0936 57.1436V56.0856L81.0186 30.9771V27.1913L57.2935 62.3758H56.2356L48.5538 57.1436V56.0856L65.4771 30.9771V27.1913L41.7618 62.3758H40.7039L33.0205 57.1436V56.0856L56.8486 20.7324H57.9071L65.5335 25.9098H68.8745L72.3825 20.733H73.4404L81.0674 25.9098H84.4083L87.9158 20.733H88.9737L96.6539 25.9668Z" fill="#57AEFF"/>
<mask id="mask1_2326_6105" style="mask-type:luminance" maskUnits="userSpaceOnUse" x="80" y="20" width="64" height="43">
<path d="M80.167 20.6113H143.836V62.4169H80.167V20.6113Z" fill="white"/>
</mask>
<g mask="url(#mask1_2326_6105)">
<path d="M143.863 25.9652V27.0231L120.044 62.3741H118.986L111.359 57.1967H108.011L104.503 62.3741H103.445L95.8181 57.1967H92.4772L88.9692 62.3741H87.9112L80.2295 57.1419V56.084L104.057 20.7324H105.108L112.791 25.9652V27.0231L95.8729 52.1311V55.9174L119.588 20.7324H120.646L128.33 25.9652V27.0231L111.405 52.1311V55.9174L135.12 20.7324H136.178L143.863 25.9652Z" fill="#57AEFF"/>
</g>
<path d="M29.6923 8.6638C29.6798 8.65457 29.6592 8.6638 29.6685 8.68116C30.0792 9.17649 32.1576 11.2783 29.9028 13.4951L27.0008 16.2056C27.0008 16.2056 24.6251 18.36 27.2303 19.8802L33.7847 24.3355C33.7847 24.3355 33.6479 23.5499 34.3663 22.8218L38.7326 18.0247C38.7326 18.0247 40.4871 16.3238 38.5313 14.808L29.6923 8.6638Z" fill="#57AEFF"/>
<path d="M45.9921 8.61692C45.9797 8.6077 45.959 8.61692 45.9688 8.63428C46.379 9.12962 48.4574 11.2314 46.2032 13.4482L43.3006 16.1603C43.3006 16.1603 40.9249 18.3142 43.5301 19.8349L50.0801 24.2902C50.0801 24.2902 49.9434 23.5041 50.6617 22.7765L55.028 17.9794C55.028 17.9794 56.7826 16.2786 54.8268 14.7628L45.9921 8.61692Z" fill="#57AEFF"/>
<path d="M84.8624 65.4961L86.8345 65.7527L80.1396 75.0018L78.167 74.7452L84.8624 65.4961Z" fill="white"/>
<path d="M89.752 73.003L92.7636 70.5345C93.0479 70.3012 93.2893 70.0912 93.4873 69.9046C93.6647 69.7418 93.8264 69.5649 93.9723 69.374C94.0873 69.2237 94.178 69.0598 94.2447 68.883C94.3027 68.7132 94.3304 68.5385 94.3282 68.3589C94.3402 68.1945 94.3168 68.0355 94.2582 67.8815C94.1991 67.7279 94.1101 67.5939 93.9913 67.48C93.8687 67.3774 93.7314 67.2999 93.5801 67.2489C93.4282 67.1973 93.2725 67.1751 93.113 67.1827C92.9448 67.18 92.7804 67.2038 92.6203 67.2548C92.4597 67.3058 92.3116 67.3807 92.176 67.48C91.8342 67.748 91.5304 68.054 91.2645 68.398L89.8686 67.2738C90.0764 66.9917 90.3026 66.7242 90.5468 66.4725C90.7681 66.2457 91.0133 66.0493 91.2835 65.8839C91.5564 65.72 91.8472 65.5996 92.1554 65.522C92.5135 65.4352 92.877 65.3939 93.2448 65.3988C93.6804 65.3945 94.1053 65.4612 94.5187 65.599C94.8832 65.7211 95.2109 65.9083 95.5007 66.1611C95.7752 66.4074 95.9851 66.7004 96.1305 67.0395C96.2873 67.4073 96.3627 67.7909 96.3573 68.1902V68.2157C96.3627 68.5618 96.3134 68.9003 96.2092 69.2307C96.1056 69.5357 95.9569 69.8172 95.7638 70.0749C95.5446 70.3641 95.2967 70.6261 95.0205 70.8616C94.7194 71.1242 94.3706 71.4107 93.974 71.7215L92.5004 72.8598H96.4436V74.5785H89.7536V73.0046L89.752 73.003Z" fill="white"/>
<path d="M101.746 74.7356C101.17 74.7437 100.62 74.6249 100.098 74.3802C99.6067 74.1447 99.1867 73.8171 98.839 73.3977C98.4749 72.9561 98.2058 72.4629 98.0311 71.9176C97.8358 71.3214 97.7409 70.7094 97.7463 70.0822V70.0557C97.7409 69.4274 97.838 68.8154 98.0377 68.2197C98.2183 67.6734 98.4918 67.1781 98.8574 66.7337C99.2106 66.3105 99.6349 65.9791 100.131 65.7387C100.32 65.6476 100.514 65.5727 100.715 65.5141C100.916 65.455 101.12 65.4132 101.328 65.3882C101.536 65.3633 101.745 65.3557 101.954 65.3654C102.163 65.3752 102.37 65.4018 102.574 65.4457C102.779 65.4897 102.979 65.5499 103.173 65.6269C103.368 65.704 103.555 65.7962 103.734 65.9042C103.913 66.0121 104.083 66.1342 104.242 66.2704C104.401 66.4066 104.548 66.5547 104.682 66.7147C105.046 67.1574 105.317 67.6506 105.496 68.1948C105.695 68.7905 105.792 69.4024 105.787 70.0302V70.0557C105.792 70.6834 105.695 71.2954 105.496 71.8911C105.315 72.4374 105.042 72.9333 104.676 73.3771C104.323 73.8002 103.899 74.1323 103.402 74.3721C102.879 74.6238 102.327 74.7448 101.746 74.7356ZM101.773 72.9251C102.064 72.93 102.335 72.8589 102.587 72.713C102.839 72.5627 103.045 72.3652 103.207 72.1211C103.391 71.8444 103.523 71.5455 103.604 71.2237C103.698 70.8494 103.743 70.4696 103.739 70.0839V70.0584C103.743 69.6732 103.696 69.2934 103.598 68.9207C103.514 68.5946 103.378 68.2924 103.19 68.0136C103.025 67.7651 102.815 67.5633 102.56 67.4092C102.312 67.2605 102.042 67.1878 101.752 67.1905C101.462 67.1862 101.19 67.2567 100.939 67.4027C100.688 67.5524 100.483 67.7499 100.325 67.9946C100.145 68.2734 100.014 68.574 99.9311 68.8952C99.8334 69.269 99.7862 69.6488 99.7895 70.035V70.06C99.7862 70.4485 99.8334 70.8304 99.9311 71.2064C100.013 71.5314 100.147 71.8341 100.333 72.113C100.499 72.3593 100.708 72.5584 100.962 72.7114C101.213 72.8579 101.484 72.9289 101.775 72.9251H101.773Z" fill="white"/>
<path d="M106.854 73.0029L109.865 70.5344C110.149 70.3011 110.391 70.0911 110.589 69.9045C110.766 69.7417 110.928 69.5649 111.074 69.3739C111.189 69.2242 111.281 69.0603 111.347 68.8829C111.405 68.7131 111.433 68.5384 111.43 68.3588C111.442 68.1944 111.419 68.0355 111.36 67.8814C111.301 67.7279 111.212 67.5938 111.093 67.4799C110.971 67.3774 110.834 67.2998 110.682 67.2488C110.53 67.1973 110.375 67.175 110.215 67.1826C110.046 67.1799 109.882 67.2038 109.722 67.2548C109.562 67.3058 109.414 67.3806 109.278 67.4799C108.936 67.7479 108.632 68.0539 108.367 68.3979L106.97 67.2738C107.178 66.9916 107.404 66.7242 107.649 66.4724C107.87 66.2456 108.115 66.0493 108.386 65.8838C108.658 65.7199 108.949 65.5995 109.257 65.5219C109.614 65.4351 109.976 65.3944 110.344 65.3988C110.779 65.3944 111.204 65.4611 111.618 65.5989C111.982 65.721 112.31 65.9082 112.6 66.161C112.874 66.4073 113.084 66.7003 113.229 67.0394C113.386 67.4072 113.462 67.7908 113.456 68.1901V68.2156C113.462 68.5617 113.412 68.9003 113.308 69.2307C113.206 69.5345 113.06 69.8144 112.869 70.0716C112.649 70.3608 112.402 70.6228 112.126 70.8588C111.825 71.1209 111.475 71.4073 111.079 71.7182L109.617 72.8613H113.552V74.5801H106.855V73.0056L106.854 73.0029Z" fill="white"/>
<path d="M118.088 74.7365C117.425 74.7517 116.787 74.6308 116.176 74.3747C115.626 74.13 115.135 73.7985 114.702 73.3797L115.905 71.9457C116.217 72.2333 116.562 72.4747 116.939 72.6695C117.293 72.8453 117.668 72.931 118.063 72.9277C118.26 72.9386 118.453 72.9158 118.641 72.8605C118.83 72.8051 119.005 72.7199 119.165 72.6055C119.303 72.4921 119.409 72.3532 119.481 72.1893C119.552 72.025 119.583 71.8535 119.572 71.675V71.6495C119.576 71.5616 119.569 71.4743 119.551 71.388C119.532 71.3018 119.504 71.2193 119.465 71.1401C119.426 71.0614 119.378 70.9882 119.321 70.9214C119.264 70.8542 119.199 70.795 119.127 70.7446C118.956 70.6301 118.772 70.5455 118.574 70.4907C118.377 70.4353 118.175 70.4125 117.97 70.4218C117.697 70.4207 117.428 70.4527 117.163 70.5178C116.921 70.5786 116.686 70.6583 116.457 70.7571L115.308 69.9953L115.566 65.5352H121.134V67.2794H117.274L117.17 68.8441C117.351 68.8001 117.533 68.7638 117.713 68.7339C117.928 68.7014 118.142 68.6862 118.359 68.6884C118.779 68.6857 119.192 68.7421 119.596 68.8571C119.968 68.9618 120.305 69.1338 120.608 69.373C120.91 69.6166 121.138 69.9167 121.292 70.272C121.468 70.6914 121.551 71.1287 121.539 71.5833V71.6088C121.546 72.0586 121.464 72.4915 121.292 72.9077C121.132 73.2858 120.9 73.6135 120.596 73.8896C120.276 74.1761 119.913 74.3861 119.505 74.5195C119.045 74.6709 118.573 74.7431 118.088 74.7365Z" fill="white"/>
<path d="M61.6953 6.43359H62.6822V10.9204H61.6953V6.43359Z" fill="white"/>
<path d="M63.7402 6.43359H64.6501L66.7535 9.19835V6.43359H67.7279V10.9204H66.8886L64.7163 8.06771V10.9204H63.7419V6.43359H63.7402Z" fill="white"/>
<path d="M68.7402 6.43377H70.4905C70.823 6.42997 71.1447 6.48694 71.4556 6.60413C71.7388 6.71155 71.9916 6.86888 72.213 7.07613C72.4262 7.27796 72.5895 7.51396 72.7024 7.78468C72.8201 8.0668 72.8781 8.36086 72.8754 8.6663V8.67878C72.8776 8.98531 72.8201 9.28045 72.7024 9.56365C72.5895 9.83546 72.4262 10.0726 72.213 10.2755C71.9916 10.4827 71.7394 10.64 71.4556 10.7475C71.1447 10.8668 70.823 10.9243 70.4905 10.9205H68.7402V6.43377ZM69.7271 7.33112V10.0232H70.4888C70.6787 10.0259 70.8621 9.99388 71.04 9.92715C71.2017 9.86639 71.3439 9.77524 71.4665 9.65317C71.5864 9.53165 71.6781 9.39167 71.7421 9.23325C71.811 9.05855 71.8441 8.87735 71.8414 8.69017V8.67715C71.843 8.49052 71.8099 8.30986 71.7421 8.1357C71.6791 7.97511 71.5875 7.83297 71.4665 7.70927C71.3439 7.58666 71.2017 7.49388 71.04 7.43204C70.8626 7.36368 70.6793 7.33058 70.4888 7.33275H69.7271V7.33112Z" fill="white"/>
<path d="M73.7324 6.43359H74.7198V10.9204H73.7324V6.43359Z" fill="white"/>
<path d="M77.3152 6.40234H78.2256L80.1489 10.9303H79.1181L78.7068 9.92394H76.8183L76.401 10.9303H75.3936L77.3152 6.40234ZM78.3542 9.04395L77.7579 7.58941L77.1611 9.04123L78.3542 9.04395Z" fill="white"/>
<path d="M82.6826 6.43359H83.6695V10.9204H82.6826V6.43359Z" fill="white"/>
<path d="M84.7275 6.43359H85.6374L87.7359 9.19835V6.43359H88.7103V10.9204H87.871L85.6987 8.06771V10.9204H84.7292V6.43359H84.7275Z" fill="white"/>
<path d="M90.7703 7.34592H89.4053V6.43555H93.1238V7.34592H91.7588V10.9304H90.7719V7.34592H90.7703Z" fill="white"/>
<path d="M93.8171 6.43359H97.1949V7.30924H94.7914V8.21908H96.9057V9.09744H94.7898V10.042H97.2253V10.9301H93.8154V6.43359H93.8171Z" fill="white"/>
<path d="M98.0465 6.43359H100.093C100.661 6.43359 101.097 6.5855 101.401 6.88878C101.533 7.02604 101.632 7.18392 101.699 7.36241C101.766 7.54091 101.794 7.72483 101.785 7.91526V7.92773C101.793 8.0867 101.773 8.24186 101.728 8.39431C101.682 8.54677 101.613 8.68728 101.519 8.81586C101.336 9.05078 101.104 9.21842 100.824 9.31934L101.926 10.922H100.77L99.8082 9.48644H99.0323V10.9301H98.0449V6.43359H98.0465ZM100.035 8.61404C100.243 8.62869 100.43 8.57118 100.595 8.4426C100.661 8.38455 100.71 8.3151 100.745 8.23481C100.779 8.15451 100.794 8.07042 100.791 7.98307V7.97005C100.796 7.87999 100.78 7.79319 100.744 7.71018C100.708 7.62663 100.656 7.5561 100.586 7.49805C100.414 7.37977 100.224 7.32769 100.016 7.34071H99.035V8.62218L100.035 8.61404Z" fill="white"/>
<path d="M102.618 6.43359H103.528L105.631 9.19835V6.43359H106.606V10.9204H105.766L103.594 8.06771V10.9204H102.62V6.43359H102.618Z" fill="white"/>
<path d="M109.156 6.40234H110.065L111.989 10.9303H110.958L110.547 9.92394H108.658L108.239 10.9303H107.233L109.156 6.40234ZM110.195 9.04395L109.598 7.58941L109.001 9.04123L110.195 9.04395Z" fill="white"/>
<path d="M113.663 7.34592H112.293V6.43555H116.012V7.34592H114.655V10.9304H113.667V7.34592H113.663Z" fill="white"/>
<path d="M116.751 6.43359H117.738V10.9204H116.751V6.43359Z" fill="white"/>
<path d="M120.977 10.9989C120.646 11.0027 120.328 10.9414 120.021 10.8166C119.738 10.7011 119.488 10.5367 119.269 10.324C119.055 10.1135 118.89 9.87044 118.776 9.59321C118.656 9.30512 118.597 9.0051 118.6 8.6926V8.68012C118.598 8.36816 118.657 8.06868 118.779 7.78114C118.899 7.49957 119.067 7.25163 119.285 7.03678C119.504 6.82248 119.755 6.65809 120.039 6.54416C120.346 6.42209 120.665 6.36133 120.996 6.36133C121.326 6.36133 121.645 6.42209 121.953 6.54416C122.236 6.65972 122.488 6.82465 122.707 7.03841C122.92 7.24837 123.085 7.49197 123.199 7.76866C123.32 8.05675 123.378 8.35677 123.376 8.66927V8.68175C123.378 8.99425 123.318 9.29427 123.197 9.58236C123.077 9.86393 122.909 10.1119 122.69 10.3262C122.472 10.5405 122.221 10.7043 121.937 10.8183C121.629 10.9425 121.309 11.0027 120.977 10.9989ZM120.99 10.0875C121.178 10.0896 121.36 10.0533 121.534 9.97895C121.698 9.90896 121.84 9.80859 121.961 9.67839C122.081 9.54709 122.172 9.39898 122.236 9.23296C122.304 9.05881 122.337 8.87815 122.335 8.69097V8.67849C122.336 8.49078 122.303 8.30903 122.236 8.13379C122.172 7.9656 122.078 7.81586 121.955 7.68566C121.83 7.5549 121.686 7.45345 121.521 7.38129C121.347 7.30859 121.165 7.2717 120.975 7.2717C120.786 7.2717 120.604 7.30859 120.429 7.38129C120.267 7.45182 120.125 7.55219 120.005 7.68186C119.886 7.81315 119.794 7.96181 119.73 8.12782C119.663 8.30197 119.629 8.48264 119.631 8.66927V8.68175C119.629 8.86947 119.663 9.05122 119.73 9.22645C119.794 9.3941 119.887 9.54329 120.011 9.67405C120.134 9.80425 120.278 9.90571 120.442 9.97895C120.616 10.0554 120.799 10.0918 120.99 10.0875Z" fill="white"/>
<path d="M124.182 6.43359H125.091L127.195 9.19835V6.43359H128.169V10.9204H127.33L125.158 8.06771V10.9204H124.183V6.43359H124.182Z" fill="white"/>
<path d="M130.719 6.40234H131.629L133.553 10.9303H132.521L132.111 9.92394H130.222L129.803 10.9303H128.797L130.719 6.40234ZM131.758 9.04395L131.162 7.58941L130.565 9.04123L131.758 9.04395Z" fill="white"/>
<path d="M134.175 6.43359H135.162V10.023H137.399V10.9204H134.175V6.43359Z" fill="white"/>
<path d="M78.2614 12.8184H79.3242L80.5015 14.7075L81.6794 12.8184H82.7416V17.3051H81.7673V14.3673L80.508 16.283H80.4825L79.2342 14.3923V17.3035H78.2598V12.8184H78.2614Z" fill="white"/>
<path d="M85.6336 17.3697C85.0314 17.3697 84.5594 17.2026 84.217 16.8689C83.8747 16.5353 83.7016 16.0372 83.6973 15.3748V12.8184H84.6847V15.3574C84.6733 15.5072 84.6896 15.6536 84.734 15.7969C84.7785 15.9401 84.8474 16.0703 84.9413 16.187C85.0341 16.283 85.1426 16.3551 85.2668 16.404C85.3905 16.4528 85.5196 16.4734 85.6526 16.4658C85.7849 16.4729 85.913 16.4528 86.0367 16.4061C86.1604 16.3589 86.27 16.2895 86.3644 16.1967C86.4577 16.0839 86.5266 15.9575 86.5711 15.818C86.6156 15.6781 86.6318 15.5354 86.621 15.3889V12.8184H87.6079V15.3368C87.6144 15.6423 87.5683 15.939 87.4695 16.2282C87.3854 16.4674 87.2541 16.6774 87.0756 16.8575C86.8977 17.0317 86.6904 17.1576 86.4539 17.2357C86.188 17.3268 85.9146 17.3719 85.6336 17.3697Z" fill="white"/>
<path d="M90.1395 17.3638C89.7939 17.3638 89.4587 17.3052 89.1331 17.1875C88.7979 17.067 88.4989 16.8864 88.2363 16.646L88.8201 15.9467C89.0127 16.1068 89.2227 16.2386 89.45 16.3438C89.6751 16.4442 89.9111 16.4936 90.158 16.4914C90.3267 16.5001 90.484 16.4627 90.6305 16.3797C90.6853 16.3466 90.7276 16.3021 90.758 16.2456C90.7884 16.1892 90.8025 16.129 90.8003 16.065V16.0525C90.802 15.9928 90.7906 15.9364 90.7656 15.8821C90.7336 15.8236 90.6886 15.778 90.6305 15.7454C90.5432 15.6928 90.4515 15.6505 90.3549 15.6179C90.2372 15.5756 90.0842 15.5295 89.897 15.4823C89.6882 15.4324 89.4831 15.3705 89.2812 15.2968C89.1104 15.2376 88.953 15.153 88.8092 15.0434C88.6796 14.9425 88.5808 14.8177 88.5114 14.6685C88.4349 14.4905 88.3996 14.305 88.4061 14.1113V14.0988C88.4018 13.9111 88.4382 13.731 88.5146 13.5596C88.5906 13.3881 88.7002 13.2405 88.8423 13.1179C88.9888 12.9932 89.1538 12.9015 89.3366 12.8423C89.5411 12.7761 89.7511 12.7441 89.9659 12.7463C90.2773 12.7425 90.5795 12.7919 90.873 12.8944C91.1503 12.9926 91.4036 13.1342 91.6331 13.3181L91.1199 14.0609C90.9344 13.9328 90.7374 13.8249 90.5296 13.7364C90.3452 13.6588 90.1526 13.6198 89.9518 13.6187C89.795 13.6073 89.6507 13.6447 89.5189 13.7305C89.4738 13.7625 89.4386 13.8032 89.4131 13.852C89.3876 13.9014 89.3746 13.9534 89.3746 14.0088V14.0218C89.3729 14.088 89.3865 14.1509 89.4153 14.2106C89.4532 14.2741 89.5059 14.3218 89.5726 14.3538C89.667 14.4059 89.7663 14.4461 89.8704 14.4748C89.9963 14.5128 90.1553 14.5584 90.3424 14.6088C90.5492 14.662 90.751 14.7293 90.9485 14.8101C91.1118 14.8768 91.2615 14.9669 91.3971 15.0797C91.517 15.1817 91.6087 15.3043 91.6727 15.4481C91.7389 15.6103 91.7699 15.7796 91.7655 15.9548V15.9673C91.7688 16.174 91.7286 16.3721 91.6445 16.5609C91.5653 16.7323 91.453 16.8777 91.3076 16.9971C91.153 17.1208 90.981 17.2103 90.7911 17.2662C90.579 17.3318 90.3614 17.3644 90.1395 17.3638Z" fill="white"/>
<path d="M92.627 12.8184H93.6138V17.3051H92.627V12.8184Z" fill="white"/>
<path d="M96.7744 17.3838C96.4564 17.3865 96.151 17.3268 95.858 17.2042C95.584 17.086 95.3426 16.9205 95.1337 16.7067C94.9249 16.494 94.7648 16.2494 94.6536 15.9732C94.5364 15.6835 94.4789 15.3819 94.4805 15.0694V15.0569C94.4784 14.7449 94.5364 14.4449 94.6536 14.1563C94.7659 13.8796 94.9259 13.6338 95.1337 13.4195C95.3459 13.2036 95.5916 13.0365 95.8705 12.9187C96.1732 12.794 96.4879 12.7332 96.8151 12.7365C97.0077 12.7348 97.1986 12.7522 97.388 12.7885C97.5502 12.8195 97.7081 12.8667 97.8605 12.9301C97.9983 12.9882 98.1285 13.0603 98.2506 13.1472C98.37 13.2318 98.4812 13.3256 98.5848 13.4293L97.9549 14.153C97.7932 14.0049 97.6148 13.8812 97.4194 13.7819C97.2263 13.6886 97.0218 13.643 96.8075 13.6463C96.6279 13.643 96.4554 13.6772 96.291 13.7488C96.126 13.8204 95.9833 13.9224 95.8629 14.0554C95.7446 14.1872 95.6551 14.3353 95.5938 14.5013C95.5282 14.6755 95.4962 14.8561 95.4978 15.0428V15.0552C95.4962 15.243 95.5282 15.4242 95.5938 15.6C95.654 15.766 95.743 15.9157 95.8597 16.0486C95.979 16.1832 96.1217 16.2868 96.2866 16.3595C96.4516 16.4322 96.6241 16.4669 96.8042 16.4642C97.0326 16.4713 97.2496 16.4241 97.4542 16.3226C97.6473 16.2174 97.8236 16.0893 97.9831 15.9385L98.613 16.5684C98.5018 16.6883 98.3819 16.8 98.2539 16.902C97.9902 17.1109 97.6929 17.2493 97.363 17.316C97.1688 17.3583 96.9729 17.3811 96.7744 17.3838Z" fill="white"/>
<path d="M100.818 12.8191H101.876L102.805 15.8573L103.811 12.8066H104.658L105.664 15.8573L106.593 12.8191H107.625L106.093 17.3384H105.234L104.222 14.393L103.209 17.3292H102.35L100.818 12.8191Z" fill="white"/>
<path d="M108.293 12.8184H111.671V13.6967H109.268V14.6066H111.383V15.4849H109.268V16.4295H111.703V17.3078H108.293V12.8184Z" fill="white"/>
<path d="M112.524 12.8184H115.903V13.6967H113.499V14.6066H115.615V15.4849H113.499V16.4295H115.934V17.3078H112.524V12.8184Z" fill="white"/>
<path d="M116.755 12.8184H117.742V14.7796L119.562 12.8184H120.755L118.927 14.7075L120.837 17.2905H119.651L118.26 15.3813L117.74 15.9195V17.2905H116.753V12.8184H116.755Z" fill="white"/>
</svg>
