<svg width="134" height="50" viewBox="0 0 134 50" fill="none" xmlns="http://www.w3.org/2000/svg">
<path d="M43.4243 1.10326C43.2861 0.789218 43.0726 0.424933 42.9595 0.299317C42.7962 0.110893 42.7962 0.0857703 42.9344 0.16114C43.0349 0.223948 43.9392 0.839464 44.9441 1.53035C45.949 2.22124 47.3809 3.2136 48.1471 3.74119C48.9007 4.26877 49.9182 4.98478 50.408 5.3365C50.8854 5.68823 51.3627 6.11532 51.438 6.30375C51.526 6.47961 51.6013 6.83133 51.6013 7.07C51.6013 7.30867 51.5008 7.69808 51.3878 7.92419C51.2747 8.13773 50.1568 9.44414 48.9133 10.8008C47.5191 12.3207 46.5644 13.4764 46.464 13.7528C46.3635 14.0165 46.263 14.2427 46.2379 14.2678C46.2127 14.2803 45.9364 14.1045 45.5973 13.8784C45.2707 13.6397 43.8011 12.6348 42.3189 11.6424C40.6232 10.5119 39.5304 9.69537 39.3922 9.4567C39.2666 9.24315 39.1661 8.89143 39.1661 8.67788C39.1661 8.45177 39.2666 8.0498 39.4048 7.79857C39.5304 7.53478 40.3845 6.61778 41.3015 5.75104C42.231 4.88429 43.1354 3.92961 43.3363 3.61557C43.6127 3.16335 43.688 2.91212 43.688 2.35941C43.688 1.94488 43.5875 1.44242 43.4243 1.10326Z" fill="#FDFEFE"/>
<path d="M13.203 24.5306C16.3181 19.8954 19.609 14.9964 20.5385 13.6397L22.2217 11.1525H22.7115C23.1512 11.1525 23.641 11.4414 30.3736 15.9887V16.5289C30.3736 17.0188 29.9968 17.6092 25.073 24.8697C22.1589 29.1784 17.1471 36.5646 8.12847 49.9049L7.66372 49.9426C7.24922 49.9678 6.84727 49.7291 3.61915 47.5559C0.0644543 45.1441 0.0393327 45.119 0.00165033 44.6542C-0.0234712 44.2397 0.215184 43.8377 2.32539 40.7099C3.61915 38.788 5.31486 36.2631 6.10619 35.0823C6.89752 33.9015 10.1005 29.1658 13.203 24.5306Z" fill="#FDFEFE"/>
<path d="M28.8538 23.9025C30.0721 22.1062 32.5089 18.501 34.2674 15.9008L37.4704 11.1651H37.9352C38.3497 11.1651 38.9024 11.4917 45.5596 16.0013L45.5721 16.5289C45.5721 17.0188 45.3837 17.3454 43.5247 20.1089C42.3943 21.7796 40.2338 24.9954 38.7265 27.2439C37.2192 29.4798 34.2549 33.8638 32.1447 36.9791C30.047 40.0818 27.8363 43.3352 27.246 44.202C26.6556 45.0562 25.5503 46.7017 24.7841 47.8448C23.4275 49.8673 23.3898 49.9175 22.9251 49.9426C22.5106 49.9678 22.1086 49.7291 15.3007 45.1441V44.604C15.3007 44.1266 15.4765 43.8126 16.9713 41.5892C17.9008 40.22 20.4506 36.4264 22.6487 33.1478C24.8469 29.8567 27.6479 25.6988 28.8538 23.9025Z" fill="#FDFEFE"/>
<path d="M43.3866 25.0205C44.7557 22.9981 47.4311 19.0537 49.3153 16.2525L52.7569 11.1525H53.2091C53.5482 11.1525 53.8748 11.2907 54.4275 11.6801C54.842 11.969 56.4623 13.0744 60.8963 16.0515H63.9737L65.6066 13.6397C67.1641 11.3409 67.2646 11.2153 67.6791 11.1776C68.0685 11.1399 68.4076 11.3284 70.5053 12.7478C71.8116 13.6271 73.4571 14.7326 75.404 16.0641L78.5191 15.9887L81.7472 11.1525H82.2119C82.6264 11.1525 83.1791 11.4917 89.8489 16.0013L89.874 16.5037C89.9117 16.956 89.7609 17.2197 88.329 19.3175C87.4623 20.5988 85.2642 23.8523 83.4429 26.5404C81.6341 29.2412 78.3935 34.0397 76.2456 37.2178C74.0977 40.3958 71.2715 44.5663 69.9777 46.4882L69.972 46.4966C67.6414 49.9427 67.6159 49.9803 67.1767 49.9803C66.8124 49.9803 66.1216 49.5532 59.5774 45.119L59.5397 44.6291C59.5146 44.1769 59.6653 43.9131 61.0596 41.8655C61.9011 40.6219 64.2375 37.1801 66.2472 34.203C68.2569 31.2385 70.6686 27.671 71.5981 26.2892C72.5276 24.9074 73.746 23.086 75.3412 20.6993L75.2784 17.1569L73.7585 19.4055C72.917 20.6365 71.3469 22.9729 70.2541 24.5934C69.1613 26.2264 67.6917 28.3995 66.9883 29.4296L66.8111 29.6922C65.8815 31.0703 63.1716 35.0874 60.4943 39.0392C57.6305 43.2976 54.8043 47.4806 54.2265 48.3347C53.2091 49.8547 53.1589 49.9175 52.6941 49.9426C52.2796 49.9678 51.8777 49.7416 45.0572 45.1315L45.0697 44.5663C45.0823 44.0513 45.2958 43.6995 48.1973 39.416C49.9056 36.9037 52.0786 33.7005 53.0081 32.3188C53.9376 30.937 55.2942 28.9397 56.0227 27.8594C56.7387 26.7917 58.1329 24.7316 60.8963 20.6365V18.9784C60.8963 17.9483 60.846 17.3077 60.7707 17.3077C60.6953 17.3077 59.8286 18.5136 58.8489 19.9833C57.8566 21.453 55.9725 24.2291 54.6787 26.1636C53.3724 28.0981 50.3076 32.6579 47.8582 36.2756C45.4214 39.9059 43.0474 43.4106 42.5952 44.0638C42.1556 44.7296 41.0628 46.3249 40.1961 47.6187L40.1961 47.6188C38.6009 49.9677 38.6009 49.9678 38.1236 49.9678C37.7342 49.9678 37.3574 49.7668 35.9255 48.7995C34.9834 48.1463 33.3882 47.0535 30.562 45.119V44.5663C30.562 44.0387 30.8509 43.5739 35.7245 36.3384C38.5632 32.1303 42.0174 27.0303 43.3866 25.0205Z" fill="#FDFEFE"/>
<path d="M27.7862 0.5003C27.6103 0.274191 27.4847 0.0606449 27.4847 0.0229602C27.4847 -0.0147244 27.9495 0.286753 28.5147 0.676161C29.08 1.07813 30.4868 2.04537 31.6172 2.83675C32.7603 3.62813 34.1168 4.57025 34.6318 4.93453C35.1594 5.28626 35.7623 5.78872 35.9884 6.03995C36.3024 6.39167 36.3903 6.60522 36.3903 6.99463C36.3903 7.27098 36.315 7.68551 36.2019 7.91162C36.1014 8.13773 34.971 9.48182 33.6898 10.8887C32.082 12.6725 31.3158 13.6146 31.2027 13.9412C31.1274 14.205 31.0269 14.406 30.9892 14.3808C30.9515 14.3683 29.4568 13.3633 27.6732 12.1449C25.8895 10.939 24.3194 9.7833 24.1687 9.56975C24.0054 9.34364 23.9175 9.00448 23.9175 8.69044C23.9175 8.41408 24.0054 8.02468 24.1059 7.81113C24.2189 7.61014 25.0982 6.68059 26.0779 5.73847C27.3466 4.54512 27.9495 3.8668 28.1756 3.41458C28.3389 3.07542 28.4896 2.6232 28.4896 2.40966C28.4896 2.20867 28.4017 1.78158 28.2886 1.46754C28.1756 1.16606 27.9495 0.726408 27.7862 0.5003Z" fill="#FDFEFE"/>
<path d="M95.8656 12.6473C96.0666 12.3459 96.3931 11.8811 96.5941 11.6173C96.883 11.253 97.0463 11.1399 97.3603 11.1399C97.6744 11.1399 98.541 11.6801 104.922 15.9887L104.947 16.4912C104.985 16.9559 104.733 17.3579 100.789 23.199C98.4782 26.6284 94.911 31.8916 89.1581 40.4084V43.9884L89.4219 43.6744C89.5601 43.5111 92.2732 39.5165 95.4385 34.8185C98.6038 30.1205 101.983 25.121 102.937 23.7015L103.317 23.1418C104.417 21.5214 106.417 18.5745 108.062 16.1394C111.366 11.2656 111.466 11.1399 111.855 11.1399C112.132 11.1399 112.571 11.3409 113.174 11.7555C113.677 12.0821 115.322 13.1875 116.817 14.205C119.505 16.0138 119.555 16.0515 119.555 16.4786C119.555 16.8429 119.128 17.5463 117.131 20.4983C115.8 22.4579 113.928 25.2466 112.961 26.6786C111.994 28.1106 109.519 31.7786 103.716 40.3456V43.9884L104.332 43.1091C104.658 42.6318 107.246 38.8131 110.072 34.6301C112.898 30.4596 116.176 25.6109 117.345 23.8774C118.525 22.1313 120.786 18.7774 122.381 16.4158C123.964 14.0542 125.421 11.9062 125.61 11.6298C125.898 11.2279 126.024 11.1399 126.401 11.1399C126.74 11.1399 127.18 11.3786 128.498 12.283C129.415 12.9111 131.023 14.004 134 15.9761V16.5163C134 16.9811 133.849 17.27 132.819 18.7774C132.179 19.7321 129.642 23.4754 127.192 27.0931C125.025 30.3045 122.249 34.4105 120.603 36.8457L120.02 37.7077C118.538 39.9185 116.076 43.5739 114.556 45.8099C111.83 49.8547 111.793 49.9049 111.34 49.9301C110.976 49.9552 110.7 49.8421 110.034 49.4025C109.569 49.101 107.949 47.9956 103.666 45.0687L100.526 45.119L97.2598 49.9552H96.7825C96.3931 49.9552 95.9912 49.7416 94.396 48.6613C93.3409 47.9453 91.7205 46.8399 89.0953 45.0562H86.0807L82.7521 49.9552L82.2748 49.9677C81.8729 49.9677 81.3077 49.6286 78.2303 47.5434C74.6756 45.1315 74.6504 45.1064 74.6128 44.6542C74.5876 44.2271 74.9896 43.5865 79.1849 37.3685C81.7222 33.6251 86.4325 26.6535 89.648 21.8801C92.8636 17.1192 95.6646 12.9614 95.8656 12.6473Z" fill="#FDFEFE"/>
</svg>
