<svg width="1417" height="528" viewBox="0 0 1417 528" fill="none" xmlns="http://www.w3.org/2000/svg">
<path d="M458.922 11.4506C457.462 8.13173 455.205 4.28184 454.01 2.95429C452.285 0.962967 452.285 0.697458 453.745 1.49399C454.807 2.15776 464.365 8.66275 474.984 15.9643C485.604 23.2658 500.737 33.7534 508.835 39.3291C516.799 44.9048 527.552 52.4719 532.729 56.189C537.773 59.9061 542.818 64.4198 543.614 66.4111C544.543 68.2697 545.34 71.9868 545.34 74.5092C545.34 77.0315 544.278 81.1469 543.083 83.5365C541.888 85.7933 530.074 99.5998 516.932 113.937C502.197 130.001 492.109 142.214 491.047 145.135C489.985 147.923 488.923 150.312 488.657 150.578C488.392 150.71 485.471 148.852 481.887 146.462C478.436 143.94 462.904 133.32 447.24 122.832C429.319 110.884 417.771 102.255 416.31 99.7326C414.983 97.4758 413.921 93.7586 413.921 91.5018C413.921 89.1122 414.983 84.8641 416.443 82.209C417.771 79.4211 426.797 69.73 436.488 60.5699C446.311 51.4098 455.869 41.3205 457.993 38.0016C460.913 33.2224 461.71 30.5673 461.71 24.7261C461.71 20.3452 460.648 15.035 458.922 11.4506Z" fill="#FDFEFE" fill-opacity="0.07"/>
<path d="M139.534 259.038C172.455 210.052 207.235 158.278 217.058 143.94L234.846 117.655H240.023C244.669 117.655 249.846 120.708 320.998 168.765V174.474C320.998 179.651 317.016 185.891 264.979 262.623C234.182 308.158 181.216 386.218 85.9042 527.203L80.9926 527.602C76.6119 527.867 72.3641 525.345 38.2482 502.378C0.680931 476.889 0.415437 476.624 0.0171971 471.712C-0.248296 467.331 2.27389 463.083 24.5753 430.027C38.2482 409.715 56.169 383.031 64.532 370.553C72.895 358.074 106.745 308.025 139.534 259.038Z" fill="#FDFEFE" fill-opacity="0.07"/>
<path d="M304.936 252.401C317.812 233.417 343.565 195.316 362.15 167.836L396 117.787H400.912C405.292 117.787 411.133 121.239 481.489 168.898L481.622 174.474C481.622 179.651 479.63 183.103 459.984 212.309C448.037 229.965 425.204 263.95 409.275 287.714C393.345 311.344 362.017 357.675 339.716 390.599C317.547 423.389 294.184 457.772 287.944 466.933C281.705 475.96 270.024 493.351 261.926 505.431C247.589 526.805 247.191 527.336 242.28 527.602C237.899 527.867 233.651 525.345 161.702 476.889V471.181C161.702 466.136 163.561 462.817 179.358 439.32C189.181 424.849 216.129 384.757 239.359 350.108C262.59 315.327 292.192 271.385 304.936 252.401Z" fill="#FDFEFE" fill-opacity="0.07"/>
<path d="M458.524 264.216C472.993 242.842 501.268 201.157 521.18 171.553L557.553 117.655H562.331C565.916 117.655 569.367 119.115 575.208 123.23C579.589 126.284 596.713 137.966 643.572 169.429H676.095L693.352 143.94C709.813 119.646 710.875 118.318 715.255 117.92C719.371 117.522 722.955 119.513 745.123 134.514L748.674 136.904C761.87 145.785 778.045 156.67 796.895 169.562L829.816 168.765L863.932 117.655H868.843C873.224 117.655 879.065 121.239 949.553 168.898L949.819 174.208C950.217 178.987 948.624 181.775 933.491 203.945C924.331 217.486 901.101 251.87 881.852 280.279C862.737 308.822 828.488 359.534 805.789 393.121C783.089 426.708 753.221 470.782 739.548 491.094L739.486 491.185C714.857 527.602 714.588 528 709.946 528C706.096 528 698.795 523.486 629.634 476.624L629.236 471.446C628.97 466.667 630.563 463.879 645.298 442.24C654.192 429.097 678.883 392.723 700.122 361.26C721.362 329.93 746.849 292.227 756.672 277.624C766.496 263.021 779.372 243.772 796.231 218.548L795.567 181.111L779.505 204.874C770.611 217.884 754.017 242.577 742.469 259.702C730.92 276.96 715.388 299.927 707.954 310.813L706.068 313.609C696.23 328.192 667.605 370.626 639.324 412.37C609.058 457.374 579.19 501.582 573.084 510.609C562.331 526.672 561.801 527.336 556.889 527.602C552.508 527.867 548.26 525.477 476.179 476.756L476.312 470.782C476.444 465.34 478.701 461.622 509.366 416.353C527.419 389.802 550.384 355.95 560.208 341.346C570.031 326.743 584.367 305.635 592.067 294.219C599.633 282.934 614.368 261.163 643.572 217.884V200.361C643.572 189.475 643.041 182.704 642.245 182.704C641.448 182.704 632.289 195.449 621.935 210.981C611.448 226.514 591.536 255.852 577.863 276.297C564.057 296.741 531.667 344.931 505.781 383.164C480.029 421.53 454.94 458.569 450.161 465.472C445.515 472.508 433.966 489.368 424.806 503.042L424.806 503.043C407.947 527.867 407.947 527.867 402.903 527.867C398.788 527.867 394.805 525.743 379.672 515.521C369.716 508.618 352.857 497.068 322.99 476.624V470.782C322.99 465.207 326.043 460.295 377.548 383.828C407.549 339.355 444.054 285.457 458.524 264.216Z" fill="#FDFEFE" fill-opacity="0.07"/>
<path d="M293.653 5.07834C291.794 2.68876 290.467 0.431923 290.467 0.0336587C290.467 -0.364606 295.378 2.82151 301.352 6.93691C307.326 11.1851 322.193 21.4072 334.14 29.7708C346.22 38.1343 360.557 48.0909 366 51.9408C371.575 55.658 377.947 60.9681 380.336 63.6232C383.655 67.3404 384.584 69.5972 384.584 73.7126C384.584 76.6332 383.788 81.0141 382.593 83.4037C381.531 85.7933 369.584 99.9981 356.044 114.867C339.052 133.718 330.955 143.674 329.76 147.126C328.963 149.914 327.901 152.038 327.503 151.772C327.105 151.64 311.308 141.019 292.458 128.142C273.608 115.398 257.015 103.184 255.422 100.927C253.696 98.5378 252.767 94.9534 252.767 91.6345C252.767 88.7139 253.696 84.5985 254.758 82.3417C255.953 80.2176 265.245 70.3937 275.599 60.4371C289.007 47.8254 295.378 40.6566 297.768 35.8775C299.494 32.2931 301.087 27.5139 301.087 25.2571C301.087 23.133 300.157 18.6193 298.963 15.3005C297.768 12.1144 295.378 7.46793 293.653 5.07834Z" fill="#FDFEFE" fill-opacity="0.07"/>
<path d="M1013.14 133.452C1015.26 130.266 1018.71 125.354 1020.84 122.566C1023.89 118.717 1025.62 117.522 1028.94 117.522C1032.25 117.522 1041.41 123.23 1108.85 168.765L1109.11 174.075C1109.51 178.987 1106.86 183.235 1065.18 244.966C1040.75 281.208 1003.05 336.833 942.252 426.841V464.676L945.04 461.357C946.5 459.631 975.173 417.415 1008.63 367.765C1042.08 318.114 1077.79 265.278 1087.88 250.277L1091.9 244.352C1103.52 227.225 1124.65 196.088 1142.04 170.358C1176.95 118.849 1178.01 117.522 1182.13 117.522C1185.05 117.522 1189.69 119.646 1196.06 124.027C1201.37 127.478 1218.76 139.161 1234.56 149.914C1262.97 169.031 1263.5 169.429 1263.5 173.943C1263.5 177.792 1258.99 185.227 1237.88 216.424C1223.81 237.134 1204.03 266.605 1193.81 281.74C1183.59 296.874 1157.43 335.638 1096.11 426.177V464.676L1102.61 455.383C1106.06 450.338 1133.41 409.981 1163.28 365.773C1193.14 321.699 1227.79 270.455 1240.14 252.135C1252.61 233.682 1276.51 198.237 1293.37 173.279C1310.09 148.321 1325.49 125.62 1327.48 122.699C1330.54 118.451 1331.86 117.522 1335.85 117.522C1339.43 117.522 1344.08 120.044 1358.01 129.602C1367.7 136.24 1384.7 147.79 1416.16 168.632V174.341C1416.16 179.253 1414.56 182.306 1403.68 198.237C1396.91 208.326 1370.09 247.887 1344.21 286.12C1321.24 320.161 1291.8 363.711 1274.41 389.418L1268.41 398.298C1252.75 421.663 1226.73 460.295 1210.67 483.925C1181.86 526.672 1181.46 527.203 1176.68 527.469C1172.83 527.734 1169.91 526.539 1162.88 521.893C1157.97 518.707 1140.84 507.025 1095.57 476.093L1062.39 476.624L1027.87 527.734H1022.83C1018.71 527.734 1014.47 525.477 997.607 514.06C986.457 506.493 969.333 494.811 941.589 475.96H909.729L874.552 527.734L869.507 527.867C865.259 527.867 859.286 524.283 826.763 502.245C789.195 476.756 788.93 476.491 788.532 471.712C788.266 467.198 792.514 460.428 836.852 394.714C863.666 355.153 913.446 281.474 947.429 231.027C981.412 180.713 1011.01 136.771 1013.14 133.452Z" fill="#FDFEFE" fill-opacity="0.07"/>
</svg>
