<svg width="400" height="1080" viewBox="0 0 400 1080" fill="none" xmlns="http://www.w3.org/2000/svg">
<g clip-path="url(#clip0_24_3838)">
<path d="M469.538 602.491V603.001H391.29H313.042L391.29 443.866L469.138 602.491H469.538Z" fill="#FF7A05"/>
<path d="M468.065 521.868V599.485H467.672L391.234 443.75H468.065V521.868Z" fill="#FFC803"/>
<path d="M313.042 602.425H469.651C426.402 602.425 391.347 638.222 391.347 682.385C391.347 726.549 426.402 762.346 469.651 762.346H391.347H313.042V602.425Z" fill="#5E50FF"/>
<path d="M399.959 199.104V278.719C356.71 278.719 321.654 243.077 321.654 199.104C321.654 155.131 356.71 119.489 399.959 119.489V199.104Z" fill="#5A3EE5"/>
<path d="M399.959 994.778V1074.39C356.71 1074.39 321.654 1038.75 321.654 994.778C321.654 950.805 356.71 915.163 399.959 915.163V994.778Z" fill="#5A3EE5"/>
<path d="M157.126 45.6149V125.23H314.062V-34H157.126V45.6149Z" fill="#FF7A05"/>
<path d="M311.577 125.23H314.062C314.062 37.4241 243.667 -34 157.126 -34V-31.4778C242.286 -31.4778 311.577 38.8253 311.577 125.23Z" fill="#EAF943"/>
<path d="M297.013 125.23H299.499C299.512 45.5768 235.632 -19.2361 157.126 -19.2361V-16.7139C234.264 -16.7011 297.013 46.9653 297.013 125.23Z" fill="#EAF943"/>
<path d="M282.461 125.23H284.947C284.959 53.7165 227.608 -4.47241 157.125 -4.47241V-1.95021C226.24 -1.93747 282.461 55.105 282.461 125.23Z" fill="#EAF943"/>
<path d="M267.91 125.23H270.396C270.396 61.8564 219.586 10.3042 157.125 10.3042V12.8264C218.218 12.8264 267.91 63.2449 267.91 125.23Z" fill="#EAF943"/>
<path d="M253.358 125.23H255.844C255.844 69.9964 211.563 25.0681 157.125 25.0681V27.5903C210.182 27.5903 253.358 71.3976 253.358 125.23Z" fill="#EAF943"/>
<path d="M238.808 125.23H241.293C241.293 78.1361 203.541 39.8318 157.125 39.8318V42.354C202.16 42.354 238.808 79.5373 238.808 125.23Z" fill="#EAF943"/>
<path d="M224.244 125.23H226.729C226.729 86.2888 195.505 54.5957 157.112 54.5957V57.1179C194.137 57.1306 224.244 87.6773 224.244 125.23Z" fill="#EAF943"/>
<path d="M209.692 125.23H212.178C212.178 94.4285 187.482 69.3594 157.112 69.3594V71.8816C186.114 71.8943 209.692 95.817 209.692 125.23Z" fill="#EAF943"/>
<path d="M195.141 125.23H197.627C197.627 102.568 179.46 84.1357 157.125 84.1357V86.6579C178.091 86.6579 195.141 103.957 195.141 125.23Z" fill="#EAF943"/>
<path d="M180.591 125.23H183.077C183.077 110.708 171.438 98.8997 157.126 98.8997V101.422C170.07 101.422 180.591 112.109 180.591 125.23Z" fill="#EAF943"/>
<path d="M166.04 125.23H168.525C168.525 118.848 163.416 113.664 157.126 113.664V116.186C162.034 116.186 166.04 120.249 166.04 125.23Z" fill="#EAF943"/>
<path d="M314.856 204.865V284.48H469.651V125.25H314.856V204.865Z" fill="#FF7A05"/>
<path d="M314.856 1000.54V1080.16H469.651V920.925H314.856V1000.54Z" fill="#FF7A05"/>
<path d="M137.875 841.332C181.124 841.332 216.18 876.974 216.18 920.946C172.93 920.946 137.875 885.304 137.875 841.332Z" fill="#5A3EE5"/>
<path d="M216.18 761.716C259.429 761.716 294.484 797.358 294.484 841.331C294.484 885.304 259.429 920.946 216.18 920.946C216.18 876.973 181.124 841.331 137.875 841.331C137.875 797.358 172.93 761.716 216.18 761.716Z" fill="#FF7A05"/>
<path d="M315.951 284.46L313.495 284.447L313.896 -34L316.352 -33.9873L315.951 284.46Z" fill="#5A3EE5"/>
<path d="M331.349 284.46L328.894 284.447L329.282 -33.9998L331.75 -33.987L331.349 284.46Z" fill="#5A3EE5"/>
<path d="M346.747 284.46L344.292 284.447L344.68 -33.9998L347.148 -33.987L346.747 284.46Z" fill="#5A3EE5"/>
<path d="M362.144 284.46L359.688 284.447L360.077 -33.9998L362.545 -33.987L362.144 284.46Z" fill="#5A3EE5"/>
<path d="M377.543 284.46L375.087 284.447L375.475 -33.9998L377.931 -33.987L377.543 284.46Z" fill="#5A3EE5"/>
<path d="M392.94 284.46L390.484 284.447L390.873 -33.9998L393.328 -33.987L392.94 284.46Z" fill="#5A3EE5"/>
<path d="M315.908 1080.13L313.495 1080.12L313.889 761.674L316.302 761.687L315.908 1080.13Z" fill="#5A3EE5"/>
<path d="M331.041 1080.13L328.627 1080.12L329.009 761.674L331.435 761.687L331.041 1080.13Z" fill="#5A3EE5"/>
<path d="M346.173 1080.13L343.76 1080.12L344.141 761.674L346.567 761.687L346.173 1080.13Z" fill="#5A3EE5"/>
<path d="M361.304 1080.13L358.891 1080.12L359.273 761.674L361.698 761.687L361.304 1080.13Z" fill="#5A3EE5"/>
<path d="M376.437 1080.13L374.023 1080.12L374.405 761.674L376.818 761.687L376.437 1080.13Z" fill="#5A3EE5"/>
<path d="M391.569 1080.13L389.156 1080.12L389.537 761.674L391.951 761.687L391.569 1080.13Z" fill="#5A3EE5"/>
<path d="M313.723 1000.54V1080.16C270.473 1080.16 235.418 1044.51 235.418 1000.54C235.418 956.567 270.473 920.925 313.723 920.925V1000.54Z" fill="#5A3EE5"/>
<path d="M157.112 920.925H313.721C270.472 920.925 235.417 956.567 235.417 1000.54C235.417 1044.51 270.472 1080.16 313.721 1080.16H235.417H157.112V920.925Z" fill="#5E50FF"/>
<path d="M313.289 523.087V602.424C270.191 602.424 235.258 566.907 235.258 523.087C235.258 479.268 270.191 443.75 313.289 443.75V523.087Z" fill="#5A3EE5"/>
<path d="M157.227 443.75H313.289C270.191 443.75 235.258 479.268 235.258 523.087C235.258 566.907 270.191 602.424 313.289 602.424H235.258H157.227V443.75Z" fill="#5E50FF"/>
<path d="M313.042 284.5H469.651C426.402 284.5 391.347 320.142 391.347 364.115C391.347 408.088 426.402 443.73 469.651 443.73H391.347H313.042V284.5Z" fill="#5E50FF"/>
<path d="M157.113 204.865V284.48H78.8086C78.8086 240.507 113.864 204.865 157.113 204.865Z" fill="#FF7A05"/>
<path d="M157.113 125.25V204.865C113.864 204.865 78.8086 169.223 78.8086 125.25H157.113Z" fill="#FF7A05"/>
<path d="M0.503906 125.25H78.8085C78.8085 169.223 43.7531 204.865 0.503906 204.865V125.25Z" fill="#FF7A05"/>
<path d="M78.8085 284.48H0.503906V204.865C43.7531 204.865 78.8085 240.507 78.8085 284.48Z" fill="#FF7A05"/>
<path d="M313.935 364.115V443.73H235.631H157.326V443.22V364.115V284.5H235.631H313.935V364.115Z" fill="#FF7A05"/>
<path d="M176.796 348.383L157.201 379.847H196.391L176.796 348.383Z" fill="#EBE9FF"/>
<path d="M215.974 348.383L196.392 379.847H235.569L215.974 348.383Z" fill="#EBE9FF"/>
<path d="M255.164 348.383L235.569 379.847H274.759L255.164 348.383Z" fill="#EBE9FF"/>
<path d="M294.34 348.383L274.758 379.847H313.935L294.34 348.383Z" fill="#EBE9FF"/>
<path d="M176.796 315.964L157.201 347.415H196.391L176.796 315.964Z" fill="#EBE9FF"/>
<path d="M215.974 315.964L196.392 347.415H235.569L215.974 315.964Z" fill="#EBE9FF"/>
<path d="M255.164 315.964L235.569 347.415H274.759L255.164 315.964Z" fill="#EBE9FF"/>
<path d="M294.34 315.964L274.758 347.415H313.935L294.34 315.964Z" fill="#EBE9FF"/>
<path d="M176.795 412.266L157.2 443.73H196.39L176.795 412.266Z" fill="#EBE9FF"/>
<path d="M215.974 412.266L196.391 443.73H235.568L215.974 412.266Z" fill="#EBE9FF"/>
<path d="M255.163 412.266L235.568 443.73H274.758L255.163 412.266Z" fill="#EBE9FF"/>
<path d="M294.34 412.266L274.758 443.73H313.935L294.34 412.266Z" fill="#EBE9FF"/>
<path d="M176.795 379.847L157.2 411.298H196.39L176.795 379.847Z" fill="#EBE9FF"/>
<path d="M215.974 379.847L196.391 411.298H235.568L215.974 379.847Z" fill="#EBE9FF"/>
<path d="M255.163 379.847L235.568 411.298H274.758L255.163 379.847Z" fill="#EBE9FF"/>
<path d="M294.34 379.847L274.758 411.298H313.935L294.34 379.847Z" fill="#EBE9FF"/>
<path d="M176.708 284.5L157.113 315.964H196.303L176.708 284.5Z" fill="#EBE9FF"/>
<path d="M215.886 284.5L196.303 315.964H235.481L215.886 284.5Z" fill="#EBE9FF"/>
<path d="M255.075 284.5L235.48 315.964H274.657L255.075 284.5Z" fill="#EBE9FF"/>
<path d="M294.253 284.5L274.658 315.964H313.848L294.253 284.5Z" fill="#EBE9FF"/>
<path d="M79.0345 762.345C122.281 762.345 157.339 726.701 157.339 682.731C157.339 638.761 122.281 603.116 79.0345 603.116C35.7881 603.116 0.72998 638.761 0.72998 682.731C0.72998 726.701 35.7881 762.345 79.0345 762.345Z" fill="#FFC803"/>
</g>
<defs>
<clipPath id="clip0_24_3838">
<rect width="450.992" height="1114" fill="white" transform="translate(0.503906 -34)"/>
</clipPath>
</defs>
</svg>
